<?xml version="1.0" encoding="utf-8"?>
<!-- Generator: Adobe Illustrator 19.1.0, SVG Export Plug-In . SVG Version: 6.00 Build 0)  -->
<svg version="1.1" id="Visuel_1_" xmlns="http://www.w3.org/2000/svg" xmlns:xlink="http://www.w3.org/1999/xlink" x="0px" y="0px"
	 viewBox="0 0 402.5 159" style="enable-background:new 0 0 402.5 159;" xml:space="preserve">
<style type="text/css">
	.st0{fill:none;}
</style>
<g>
	<path d="M351,101.4c-2.5-1.1-4.4-3.9-5.7-8.6c-6.1,1.2-11.1,1-15.1-0.7c-1-0.4-1.3-0.9-1.1-1.5c0.2-0.5,0.9-0.4,2.2,0.1
		c3.9,1.6,8.4,1.9,13.6,0.9c-1.8-7.4-2.2-16.6-1.2-27.7c1-11,3.1-20.3,6.3-27.8c0.4-1.1,0.9-2,1.3-2.7c-6.1-9.9-13.2-16.5-21.2-19.9
		c-5.5-2.3-10.6-2.4-15.2-0.4c-4.6,2.1-8.2,6-10.7,11.9c-4.7,11.1-3.5,23.3,3.5,36.4c4.2,8,9.2,13.2,15,15.6c3,1.3,5.8,1.4,8.4,0.3
		c2.6-1.1,4.5-3.1,5.8-6.2c2-4.9,1.7-11.2-1.1-18.9c-2.8-7.7-6.4-12.5-10.8-14.4c-0.4-0.2-0.6-0.1-0.7,0.1c0,0.2,0,0.4,0,0.6
		c0.5,1.4,0.6,2.6,0.2,3.5c-0.8,2-2.3,2.5-4.5,1.6c-2.9-1.2-3.7-3.2-2.6-6c1.1-2.6,3.2-3.2,6.3-1.9c5.6,2.3,9.9,7.5,13,15.4
		c3.1,8,3.4,14.8,1,20.7c-3.1,7.5-8.8,9.5-17.1,6.1c-8.5-3.6-14.6-10.9-18.1-22c-3.6-11.1-3.3-21.6,0.9-31.5
		c2.9-6.9,7.7-11.7,14.3-14.5c6.6-2.8,13.3-2.7,20.2,0.2c6.6,2.8,12.5,8,17.5,15.5c10.2-15.6,20.4-21.2,30.7-16.9
		c6.1,2.6,9.9,7.8,11.3,15.8c1.5,8,0.2,16.7-3.7,26c-5.5,13.1-15.4,24.5-29.7,34.1c-0.5,2.5-1.3,5-2.3,7.4
		C358.4,99.9,354.8,103,351,101.4z M364.3,83.1c11.8-9,20.6-20.2,26.2-33.5c3.5-8.3,4.6-16.3,3.2-24.1c-1.3-7.8-4.6-12.8-9.8-15
		c-9.3-3.9-18.7,1.5-28.1,16.2C365.5,42.1,368.3,61,364.3,83.1z M346,91.5c5.6-1.2,11.1-3.6,16.6-7.3c1.1-8.1,0.6-16.7-1.3-25.7
		c-1.9-9-5.1-17-9.4-24.1c-3.4,8.2-5.7,17.8-6.9,28.9C343.8,74.6,344.1,84,346,91.5z M351.4,100.5c3.2,1.3,6.1-1.1,8.7-7.4
		c0.8-1.9,1.5-4.4,2.1-7.3c-5.1,3.3-10.5,5.6-16,6.8C347.6,97,349.3,99.6,351.4,100.5z"/>
</g>
<g>
	<g>
		<g>
			<path d="M92.6,126.3c0,0,0.7-0.6,1.9-1.9c1.2-1.3,2.9-3.3,4.6-6.1c1.7-2.8,3.5-6.4,4.4-10.9c0.5-2.2,0.7-4.7,0.6-7.2
				c-0.1-1.3-0.2-2.6-0.5-3.9c-0.3-1.3-0.6-2.7-0.9-4c-0.7-2.7-1.7-5.5-3.2-8.1c-0.8-1.3-1.6-2.6-2.7-3.7c-1-1.2-2.2-2.2-3.5-3.2
				c-2.6-1.9-5.4-3.8-8.5-4.9c-3.2-1.2-6.5-1.9-10-2.3c-7-0.8-14.3-0.1-21.5,1.5c-3.6,0.8-7.2,1.9-10.7,3.2c-3.5,1.3-7,2.7-10.3,4.4
				c-6.7,3.4-12.9,7.7-17.9,13.1c-1.3,1.3-2.4,2.8-3.5,4.2c-1.1,1.5-2,3-2.8,4.7c-1.5,3.3-2.3,6.8-2.3,10.3
				c-0.1,3.5,0.6,6.9,1.6,10.1c0.5,1.6,1.1,3.2,1.9,4.6c0.4,0.7,0.7,1.5,1.2,2.2c0.4,0.7,1,1.3,1.4,2c3.9,5.1,8.7,9.2,13.7,11.6
				c5.1,2.4,10.3,3.2,14.8,3.5c4.6,0.2,8.6-0.1,11.8-0.4c3.3-0.4,5.9-0.6,7.6-0.9c1.7-0.3,2.6-0.6,2.6-0.6s-0.9,0.4-2.6,0.7
				c-1.7,0.3-4.3,0.6-7.6,1c-3.3,0.3-7.3,0.7-11.9,0.5c-4.6-0.2-9.8-0.9-15-3.4c-5.2-2.4-10-6.5-14-11.6c-0.5-0.7-1-1.2-1.5-2
				c-0.4-0.7-0.8-1.4-1.2-2.2c-0.7-1.5-1.4-3.1-1.9-4.7c-1.1-3.2-1.7-6.7-1.7-10.3c0-3.6,0.8-7.2,2.3-10.5c0.7-1.7,1.7-3.3,2.8-4.8
				c1.1-1.5,2.3-2.9,3.5-4.3c5.1-5.5,11.4-9.9,18.1-13.3c3.4-1.7,6.9-3.2,10.4-4.4c3.5-1.3,7.1-2.3,10.8-3.2
				c7.2-1.6,14.7-2.3,21.7-1.4c3.5,0.4,7,1.2,10.2,2.4c3.2,1.2,6,3.1,8.6,5c1.3,1,2.5,2.1,3.5,3.3c1.1,1.2,1.9,2.5,2.7,3.8
				c1.5,2.7,2.5,5.5,3.2,8.2c0.4,1.4,0.6,2.7,0.9,4c0.2,1.3,0.4,2.7,0.5,4c0.1,2.6-0.2,5-0.7,7.3c-1,4.5-2.8,8.1-4.6,10.9
				c-1.8,2.8-3.5,4.8-4.7,6C93.3,125.7,92.6,126.3,92.6,126.3z"/>
		</g>
		<g>
			<path d="M89.4,74.3c0,0,0.2,0.1,0.6,0.4c0.4,0.2,0.9,0.6,1.6,1.1c1.3,1,3.1,2.6,4.8,4.9c0.8,1.2,1.6,2.5,2.1,4.1
				c0.6,1.6,0.8,3.3,0.8,5.1c-0.1,1.8-0.5,3.7-1.2,5.4c-0.7,1.8-1.6,3.5-2.7,5.1c-2.2,3.2-4.8,5.9-7.5,8.3c-2.7,2.4-5.4,4.3-7.8,5.9
				c-1.2,0.8-2.3,1.4-3.3,2c-1,0.6-1.8,1.1-2.6,1.6c-0.7,0.4-1.3,0.7-1.7,0.9c-0.2,0.1-0.4,0.2-0.5,0.2c-0.1,0-0.2,0-0.2,0
				s0.1,0,0.2-0.1c0.1,0,0.3-0.1,0.4-0.2c0.4-0.2,0.9-0.6,1.6-1c0.7-0.5,1.5-1,2.5-1.7c0.9-0.7,2.1-1.3,3.2-2.2
				c2.3-1.6,4.9-3.6,7.6-6c2.6-2.4,5.2-5.1,7.3-8.2C97,97,98.5,93.5,98.6,90c0.1-1.7-0.1-3.4-0.6-4.9c-0.5-1.5-1.2-2.9-2-4
				c-1.6-2.3-3.3-4-4.6-5c-0.6-0.5-1.1-1-1.5-1.2C89.6,74.5,89.4,74.3,89.4,74.3z"/>
		</g>
		<g>
			<path d="M11.6,94.7c0,0-0.4,0.8-1.1,2.3c-0.4,0.7-0.7,1.7-1.2,2.7c-0.2,0.5-0.4,1.1-0.6,1.7c-0.2,0.6-0.4,1.2-0.6,1.9
				c-0.4,1.3-0.7,2.8-0.9,4.4c0,0.4-0.1,0.8-0.1,1.2c0,0.4,0,0.8,0,1.2c0,0.8,0.1,1.7,0.2,2.5c0.3,1.7,1,3.4,1.9,4.9
				c1,1.5,2.3,2.8,3.8,3.9l1.1,0.8c0.4,0.2,0.8,0.5,1.2,0.7c0.8,0.5,1.6,0.8,2.5,1.2c0.8,0.4,1.7,0.6,2.5,1c0.9,0.3,1.7,0.5,2.5,0.7
				c1.7,0.4,3.3,0.8,4.9,1c1.6,0.3,3.1,0.4,4.5,0.6c2.8,0.2,5.1,0.3,6.8,0.3c1.6,0,2.6,0,2.6,0s-0.9,0.1-2.6,0.2
				c-1.6,0.1-4,0.1-6.8-0.1c-1.4-0.1-2.9-0.2-4.5-0.4c-1.6-0.2-3.3-0.5-5-0.9c-0.9-0.2-1.7-0.5-2.6-0.7c-0.9-0.3-1.7-0.6-2.6-1
				c-0.9-0.4-1.7-0.7-2.5-1.2c-0.4-0.2-0.8-0.4-1.2-0.7l-1.2-0.8c-1.5-1.1-2.9-2.5-3.9-4.1c-1-1.6-1.7-3.4-2-5.1
				c-0.1-0.9-0.3-1.8-0.2-2.6c0-0.4,0-0.9,0-1.3c0-0.4,0.1-0.8,0.1-1.2c0.2-1.6,0.6-3.1,1-4.5c0.2-0.7,0.4-1.3,0.7-1.9
				c0.2-0.6,0.4-1.2,0.7-1.7c0.5-1,0.9-2,1.3-2.7C11.2,95.6,11.6,94.7,11.6,94.7z"/>
		</g>
	</g>
	<g>
		<path class="st0" d="M14.2,122.7"/>
	</g>
	<g>
		<path d="M14.2,122.7c0,0,0-0.2,0-0.5c0-0.3,0.1-0.8,0.1-1.4c0.1-0.3,0.1-0.6,0.2-1c0.1-0.4,0.2-0.8,0.3-1.2
			c0.1-0.4,0.2-0.9,0.4-1.3c0.2-0.5,0.3-1,0.5-1.4c0.2-0.5,0.4-1,0.7-1.5c0.3-0.5,0.5-1,0.8-1.6c0.1-0.3,0.3-0.5,0.4-0.8
			c0.2-0.3,0.3-0.5,0.5-0.8c0.4-0.5,0.7-1.1,1.1-1.7c0.4-0.5,0.8-1.1,1.3-1.6l0.6-0.8l0.7-0.8c0.5-0.5,1-1,1.5-1.6
			c0.5-0.5,1-1,1.6-1.5l1.6-1.4c0.6-0.4,1.1-0.9,1.7-1.3c0.6-0.4,1.1-0.8,1.7-1.3c0.6-0.4,1.1-0.8,1.7-1.1c1.1-0.7,2.2-1.5,3.3-2
			c1.1-0.6,2.1-1.1,3.1-1.6c0.9-0.5,1.8-0.9,2.6-1.2c0.8-0.3,1.5-0.6,2.1-0.9c1.1-0.5,1.8-0.8,1.8-0.8s-0.6,0.3-1.7,0.9
			c-0.6,0.3-1.2,0.6-2,1c-0.8,0.4-1.7,0.8-2.6,1.4c-0.9,0.5-1.9,1.1-3,1.7c-1.1,0.6-2.1,1.4-3.2,2.1c-0.5,0.4-1.1,0.7-1.7,1.1
			c-0.5,0.4-1.1,0.8-1.6,1.3c-0.5,0.4-1.1,0.8-1.7,1.3l-1.6,1.4c-0.5,0.5-1.1,0.9-1.6,1.4c-0.5,0.5-1,1-1.5,1.5l-0.7,0.8l-0.6,0.8
			c-0.4,0.5-0.9,1.1-1.3,1.6c-0.4,0.5-0.7,1.1-1.1,1.6c-0.2,0.3-0.4,0.5-0.5,0.8c-0.2,0.3-0.3,0.5-0.5,0.8c-0.3,0.5-0.6,1-0.9,1.5
			c-0.2,0.5-0.5,1-0.7,1.5c-0.2,0.5-0.4,1-0.6,1.4c-0.2,0.4-0.4,0.9-0.5,1.3c-0.1,0.4-0.3,0.8-0.4,1.2c-0.1,0.4-0.2,0.7-0.2,1
			c-0.1,0.6-0.2,1.1-0.2,1.4C14.2,122.5,14.2,122.7,14.2,122.7z"/>
	</g>
	<g>
		<path d="M97.6,95.5c0,0-0.5-0.5-1.3-1.4c-0.5-0.4-1-0.9-1.7-1.4c-0.7-0.5-1.5-1-2.3-1.6c-0.9-0.5-1.9-1.1-3-1.6
			c-0.5-0.2-1.1-0.5-1.7-0.8c-0.6-0.2-1.2-0.5-1.8-0.7c-0.6-0.3-1.2-0.4-1.9-0.6c-0.6-0.2-1.3-0.4-2-0.5c-0.7-0.1-1.4-0.3-2-0.4
			c-0.7-0.1-1.4-0.3-2.1-0.3c-1.4-0.1-2.8-0.4-4.1-0.4c-0.7,0-1.4,0-2,0c-0.3,0-0.7,0-1,0c-0.3,0-0.7,0-1,0.1
			c-1.3,0.1-2.6,0.1-3.8,0.2c-1.2,0.2-2.3,0.3-3.4,0.5c-0.5,0.1-1,0.1-1.5,0.2c-0.5,0.1-0.9,0.2-1.3,0.3c-0.8,0.2-1.6,0.3-2.2,0.4
			c-1.2,0.2-1.9,0.4-1.9,0.4s0.7-0.2,1.9-0.5c0.6-0.2,1.3-0.4,2.1-0.6c0.4-0.1,0.9-0.2,1.3-0.4c0.5-0.1,1-0.2,1.5-0.3
			c1-0.2,2.2-0.4,3.4-0.6c1.2-0.1,2.5-0.2,3.8-0.3c0.3,0,0.7-0.1,1-0.1c0.3,0,0.7,0,1,0c0.7,0,1.4,0,2.1,0c1.4,0,2.8,0.2,4.2,0.3
			c0.7,0.1,1.4,0.2,2.1,0.4c0.7,0.1,1.4,0.3,2.1,0.4c0.7,0.2,1.3,0.4,2,0.6c0.7,0.2,1.3,0.4,1.9,0.6c0.6,0.2,1.2,0.5,1.8,0.7
			c0.6,0.3,1.1,0.6,1.7,0.8c1.1,0.5,2,1.2,2.9,1.7c0.9,0.6,1.7,1.2,2.3,1.8c0.7,0.5,1.2,1.1,1.6,1.5C97.2,95,97.6,95.5,97.6,95.5z"
			/>
	</g>
	<g>
		<path d="M103.8,96.4l5.7,2.1c1.9,0.8,3.7,1.6,5.6,2.4c1.8,0.9,3.7,1.7,5.4,2.6l2.7,1.4c0.9,0.5,1.7,1,2.6,1.5
			c0.9,0.5,1.7,1,2.6,1.6c0.8,0.6,1.7,1.1,2.5,1.7l2.4,1.8c0.8,0.6,1.6,1.3,2.4,1.9c0.8,0.7,1.5,1.3,2.3,2c0.7,0.7,1.5,1.4,2.1,2.2
			l1,1.1l1,1.2c0.6,0.8,1.2,1.6,1.7,2.5l0,0l0,0c0.1,0.8,0.2,1.6,0.2,2.4c0,0.8,0.1,1.6,0.1,2.4c0,0.8,0,1.6-0.1,2.4
			c0,0.8-0.1,1.6-0.2,2.4c-0.1,0.8-0.3,1.6-0.4,2.4c-0.2,0.8-0.4,1.6-0.6,2.3c-0.2,0.8-0.5,1.5-0.8,2.3c-0.3,0.7-0.6,1.5-1,2.2
			c-0.4,0.7-0.8,1.4-1.2,2.1c-0.4,0.7-0.9,1.3-1.4,2c-1,1.3-2.1,2.5-3.3,3.6c-1.2,1.1-2.5,2.1-3.8,3c-1.4,0.9-2.8,1.7-4.3,2.3l0,0
			l0,0c-11.4,2.4-23.1,1.7-34.4-0.6c-5.7-1.2-11.2-2.8-16.7-4.7c-5.4-2-10.8-4.2-15.9-6.9c-2.5-1.4-5-2.8-7.4-4.5
			c-2.4-1.7-4.6-3.5-6.7-5.5c-2.1-2-4-4.3-5.5-6.7c-1.6-2.4-2.9-5.1-3.7-7.9c-0.4-1.4-0.7-2.8-0.8-4.3c0-1.5,0.2-2.9,0.3-4.3
			c0.4-2.9,1-5.7,2.1-8.4c1-2.7,2.5-5.3,4.5-7.4c2-2.1,4.5-3.8,7.5-4.4l0,0c3.9-1,7.9-1.3,11.8-1.3c4,0,7.9,0.4,11.8,0.9
			c2,0.3,3.9,0.6,5.8,1c1.9,0.4,3.8,0.9,5.8,1.4c1.9,0.5,3.8,1,5.7,1.6c0.9,0.3,1.9,0.6,2.8,0.9c0.9,0.3,1.9,0.6,2.7,1.1
			c-0.9-0.5-1.8-0.8-2.8-1.1c-0.9-0.3-1.9-0.6-2.8-0.9c-1.9-0.5-3.8-1.1-5.7-1.5c-1.9-0.5-3.8-1-5.8-1.4c-1.9-0.4-3.9-0.7-5.8-1
			c-3.9-0.5-7.9-0.8-11.8-0.8c-3.9,0-7.9,0.4-11.7,1.3l0,0c-2.8,0.6-5.2,2.2-7.2,4.3c-1.9,2.1-3.4,4.6-4.4,7.3c-1,2.7-1.6,5.5-2,8.3
			c-0.2,1.4-0.3,2.9-0.3,4.3c0.1,1.4,0.4,2.8,0.7,4.2c0.8,2.7,2.1,5.3,3.6,7.7c1.6,2.4,3.4,4.6,5.5,6.6c2.1,2,4.3,3.8,6.6,5.4
			c2.4,1.6,4.8,3.1,7.4,4.4c5.1,2.6,10.4,4.9,15.8,6.8c5.4,1.9,10.9,3.5,16.6,4.7c11.2,2.3,22.9,3,34.2,0.7l0,0
			c1.5-0.6,2.9-1.4,4.2-2.2c1.3-0.9,2.6-1.8,3.8-2.9c1.2-1.1,2.3-2.2,3.3-3.5c0.5-0.6,1-1.3,1.4-1.9c0.4-0.7,0.8-1.4,1.2-2.1
			c0.4-0.7,0.7-1.4,1-2.2c0.3-0.7,0.6-1.5,0.8-2.2c0.3-0.8,0.4-1.5,0.6-2.3c0.1-0.8,0.3-1.6,0.4-2.4c0.1-0.8,0.2-1.6,0.3-2.4
			c0.1-0.8,0.1-1.6,0.1-2.4c0-0.8-0.1-1.6-0.1-2.4c-0.1-0.8-0.1-1.6-0.2-2.4l0,0.1c-0.5-0.9-1.1-1.7-1.7-2.5c-0.6-0.8-1.3-1.5-2-2.3
			c-0.7-0.7-1.4-1.4-2.1-2.1c-0.7-0.7-1.5-1.4-2.2-2c-0.8-0.6-1.5-1.3-2.3-1.9l-2.4-1.8c-0.8-0.6-1.7-1.1-2.5-1.7
			c-0.8-0.6-1.7-1.1-2.6-1.6c-0.9-0.5-1.7-1.1-2.6-1.5l-2.7-1.5c-1.8-1-3.6-1.8-5.4-2.7c-1.8-0.8-3.7-1.6-5.5-2.4L103.8,96.4z"/>
	</g>
	<g>
		<path d="M45.4,91.9c-0.9,0.7-1.6,1.6-1.9,2.7c-0.3,1.1-0.3,2.2,0,3.3c0.6,2.1,2,4,3.5,5.6c1.5,1.6,3.3,3,5,4.3
			c1.8,1.3,3.7,2.5,5.6,3.6c1.9,1.1,3.9,2.2,5.8,3.2c1,0.5,2,1,3,1.5c1,0.5,2,1,3,1.5c2,1,4,1.9,6.1,2.8c1,0.5,2,0.9,3.1,1.3
			l1.5,0.6l0.8,0.3l0.8,0.3c2.1,0.7,4.2,1.4,6.4,2.1c2.1,0.6,4.3,1.3,6.4,1.9c2.1,0.6,4.3,1.1,6.5,1.7c2.2,0.5,4.3,1,6.5,1.4
			c2.2,0.5,4.4,0.8,6.6,1.1c2.2,0.3,4.4,0.6,6.6,0.7l1.7,0.1l1.7,0l1.7,0l0.8,0l0.8-0.1c1.1-0.1,2.2-0.1,3.3-0.3l3.3-0.6l0,0
			c1.3-0.3,2.7-0.7,3.9-1.2c1.3-0.6,2.5-1.3,3.4-2.3c0.2-0.3,0.4-0.5,0.6-0.8c0.2-0.3,0.3-0.6,0.4-0.9c0.1-0.3,0.2-0.7,0.2-1
			c0-0.3,0-0.7,0-1c-0.1-0.3-0.1-0.7-0.2-1c-0.1-0.3-0.2-0.7-0.3-1c-0.3-0.6-0.6-1.3-0.9-1.9c0.4,0.6,0.7,1.2,1,1.8
			c0.1,0.3,0.3,0.6,0.3,1c0.1,0.3,0.2,0.7,0.2,1c0,0.4,0,0.7,0,1.1c0,0.3-0.1,0.7-0.2,1c-0.1,0.3-0.2,0.7-0.4,1
			c-0.2,0.3-0.4,0.6-0.6,0.9c-0.9,1.1-2.1,1.9-3.4,2.5c-1.3,0.6-2.6,1-4,1.3l0,0l-3.3,0.6c-1.1,0.2-2.2,0.2-3.3,0.3l-0.8,0.1l-0.8,0
			l-1.7,0l-1.7,0l-1.7-0.1c-2.2-0.1-4.5-0.4-6.7-0.6c-2.2-0.3-4.4-0.6-6.6-1.1c-2.2-0.4-4.4-0.9-6.6-1.4c-2.2-0.5-4.3-1.1-6.5-1.7
			c-2.2-0.6-4.3-1.2-6.4-1.9c-2.1-0.7-4.3-1.4-6.4-2.1l-0.8-0.3l-0.8-0.3l-1.5-0.7c-1-0.4-2.1-0.9-3.1-1.3c-2-0.9-4.1-1.8-6.1-2.8
			c-1-0.5-2-1-3-1.5c-1-0.5-2-1-3-1.5c-2-1.1-3.9-2.2-5.8-3.3c-1.9-1.1-3.8-2.4-5.6-3.7c-1.8-1.4-3.5-2.8-5-4.5
			c-1.5-1.7-2.9-3.5-3.4-5.7c-0.3-1.1-0.3-2.3,0.1-3.3C43.8,93.4,44.5,92.5,45.4,91.9z"/>
	</g>
	<g>
		<path d="M52,107.3c0,0,2.1-0.4,5.2-0.6c1.6-0.1,3.4-0.2,5.4-0.1c1,0,2,0.1,3,0.1c1,0,2.1,0.1,3.1,0.2c2.1,0.2,4.2,0.5,6.2,0.8
			c1,0.1,1.9,0.3,2.8,0.5c0.9,0.2,1.7,0.4,2.5,0.5c1.5,0.3,2.8,0.7,3.7,0.9c0.9,0.3,1.4,0.4,1.4,0.4s-0.5-0.1-1.4-0.3
			c-0.5-0.1-1-0.2-1.6-0.3c-0.6-0.1-1.3-0.2-2.1-0.4c-0.8-0.1-1.6-0.3-2.5-0.4c-0.9-0.1-1.8-0.3-2.8-0.4c-1.9-0.3-4-0.5-6.1-0.7
			c-1-0.1-2.1-0.2-3.1-0.3c-1-0.1-2-0.1-3-0.2c-2-0.1-3.8-0.1-5.4-0.1c-1.6,0-2.9,0-3.8,0.1C52.5,107.3,52,107.3,52,107.3z"/>
	</g>
	<g>
		<path d="M126.9,131.8c0,0-1.5-1.1-3.8-2.8c-1.1-0.9-2.5-1.8-4-2.8c-1.5-1-3-2.1-4.6-3.1c-0.8-0.5-1.6-1-2.4-1.5
			c-0.8-0.5-1.6-1-2.4-1.4c-0.8-0.4-1.5-0.9-2.2-1.3c-0.7-0.4-1.4-0.7-2-1.1c-0.6-0.3-1.2-0.6-1.8-0.8c-0.5-0.3-1-0.4-1.4-0.6
			c-0.8-0.3-1.2-0.5-1.2-0.5s0.5,0.1,1.3,0.3c0.4,0.1,0.9,0.2,1.4,0.4c0.5,0.2,1.2,0.4,1.8,0.7c1.3,0.6,2.9,1.3,4.4,2.1
			c0.8,0.5,1.6,0.9,2.4,1.4c0.8,0.5,1.6,1,2.4,1.5c1.6,1.1,3.2,2.2,4.6,3.2c1.4,1.1,2.7,2.1,3.8,3
			C125.5,130.5,126.9,131.8,126.9,131.8z"/>
	</g>
</g>
</svg>
