<?xml version="1.0" encoding="utf-8"?>
<!-- Generator: Adobe Illustrator 23.0.3, SVG Export Plug-In . SVG Version: 6.00 Build 0)  -->
<svg version="1.1" id="Ballon" xmlns="http://www.w3.org/2000/svg" xmlns:xlink="http://www.w3.org/1999/xlink" x="0px" y="0px"
	 viewBox="0 0 297.6 198.4" style="enable-background:new 0 0 297.6 198.4;" xml:space="preserve">
<style type="text/css">
	.st0{fill:none;}
	.st1{fill-rule:evenodd;clip-rule:evenodd;}
</style>
<path class="st0" d="M268,49.5c0-1.6-0.1-2.5-0.5-3c-0.5,2.4-2.4,4.5-5.6,4.5c-0.2,0-0.3,0-0.5,0c-0.5,0.1-1,0.2-1.5,0.2
	c-1.1,0-2.1-0.3-2.9-0.7c-2.5-0.1-4.1-1.5-4.9-3.4c-3.1-0.6-5.4-3-6.7-6.2c-1-2.4-1.2-5.2-1.4-7.8c-0.1-1.1,0.3-2.2,0.9-3.1
	c0.4-1.3,1.3-2.5,2.6-3.2c-0.1,0-0.2,0.1-0.3,0.1c-2.8,1-5.6,2.1-8.4,2.9c-1.5,0.4-2.9,1.1-4.6,0.9c-1.1-0.1-2.8,0.4-3.1,1.7
	c-0.4,2.1-1.8,2.9-3.4,3.7c-2.9,1.4-5.5,3.1-7.8,5.5c-3.3,3.4-6.8,6.8-10.1,10.2c-0.6,0.6-1.1,1.4-1.6,2.2c-0.5,1-0.9,2-1.3,3
	c-0.8,2-1.7,3.9-2.4,6c-0.3,0.9-0.1,2-0.1,3.1c0,0.2,0.2,0.3,0.3,0.5c0.1-0.2,0.3-0.3,0.4-0.5c0.3-1.3,0.4-2.7,0.8-4
	c0.6-1.8,1.3-3.5,2.1-5.2s2.2-3,3.7-4.2c3.1-2.5,6.3-4.4,10.6-3.2c2.9,0.8,5.4,2.1,7.1,4.6c2.6,3.9,2.6,8.1,1.1,12.3
	c-0.3,0.8-1.2,1.4-1.5,2.2c-1.6,4-4.4,7.2-6.9,10.6c-0.7,1-0.7,1.4,0.4,1.9c0.4,0.2,0.9,0.1,1.3,0.3c1,0.4,2,0.8,3,1.3
	c0.7,0.4,1.3,0.9,2,1.3s1.4,0.5,2.2,0c1.4-0.9,3-1.6,4.5-2.5c1.2-0.7,2.5-1.3,3.5-2.2c3-2.4,6.1-4.7,9.7-6.2c2.7-1.1,5-2.7,6.7-5.1
	c1.9-2.6,3.2-5.7,5.8-7.7c0.1-0.1,0.2-0.4,0.3-0.5c1.4-1.4,2.2-3.4,4.5-4c1.5-0.4,1.5-0.9,1.3-2.6c0-0.3,0-0.6,0.1-0.9
	C267.5,51.4,267.8,50.4,268,49.5z"/>
<path class="st0" d="M115.2,162.4c-0.1,0.1-0.2,0.3-0.4,0.3c-0.2,0-0.6,0-0.7-0.2c-0.7-1.1-1.5-2.1-2.2-3.2c-0.1-0.2-0.1-0.5,0-0.7
	c0.1-0.1,0.6-0.2,0.6-0.1c1.1,1.4,2.1,0.2,3-0.2c0.9-0.5,1.7-1.2,2.6-1.8c0.7-0.5,1.1-1,0.4-1.8c-0.1-0.2-0.1-0.5-0.1-0.8
	c0.3,0,0.7-0.2,0.8,0c0.6,0.5,1.1,1,1.5,1.7c0.1,0.2-0.4,0.9-0.7,1.2c-1.4,1-2.8,2-4.3,3c-0.8,0.6-1.7,1.1-0.7,2.2
	C115.2,162.1,115.2,162.2,115.2,162.4z"/>
<g>
	<path d="M268,7.3c-10.9,0-19.6,8.8-19.5,19.6c0,10.8,8.8,19.5,19.7,19.4c11.1-0.1,19.6-9.3,19.4-19.9C287.3,16.1,278.8,7.3,268,7.3
		z M285.9,19.6c-0.5-0.2-1.1-0.4-1.6-0.6c-0.1,0-0.1-0.1-0.2-0.2c-1.5-2.2-3.4-4-5.3-5.8c-0.2-0.1-0.3-0.3-0.4-0.5
		c-0.8-1.3-1.9-2.4-3-3.4c-0.1-0.1-0.1-0.1-0.2-0.2c0,0,0,0,0-0.1C280.2,11.1,283.8,14.6,285.9,19.6z M271,7.8
		c0.4,0,0.8,0.2,1.2,0.2c2.2,0.3,3.6,1.8,5,3.4c0.3,0.4,0.6,0.8,1,1.3c-0.2,0.1-0.4,0.2-0.6,0.3c-1.4,0.6-2.7,1.5-3.9,2.4
		c-0.2,0.2-0.4,0.2-0.6,0.1c-2-1-4.2-1.4-6.4-1.7c-0.6-0.1-1.2-0.2-1.7-0.2c-0.2,0-0.4-0.1-0.5-0.3c-0.6-0.9-1.3-1.9-2-2.8
		c-0.2-0.3-0.4-0.5-0.7-0.7c0.9-0.6,1.8-1,2.8-1.3c1.1-0.3,2.2-0.6,3.3-0.7C269,7.5,270,7.7,271,7.8z M261.9,28.3
		c-0.2,0-0.3-0.1-0.4-0.3c-1.1-1.9-2.1-3.9-2.4-6c-0.1-0.5-0.1-1-0.2-1.5c-0.1-0.6,0.1-1.1,0.5-1.5c1.7-1.7,3.4-3.5,5.1-5.2
		c0.1-0.1,0.3-0.2,0.4-0.2c2.6,0.3,5.2,0.7,7.7,1.7h0.1c0.5,0.2,0.8,0.5,1,1.1c0.7,2.1,1.5,4.2,2.3,6.4c0.1,0.2,0.1,0.3-0.1,0.5
		c-1.7,2.3-3.7,4.3-5.8,6.2c-0.1,0.1-0.3,0.2-0.4,0.1C267.1,29.2,264.5,28.8,261.9,28.3z M266.2,7.6c-0.1,0.1-0.2,0.1-0.2,0.1
		c-0.1,0-0.1,0-0.2,0c-1.5,0.4-3,0.9-4.3,1.8c-0.5,0.3-1.1,0.4-1.6,0.6c-1.6,0.8-3.1,1.6-4.7,2.5c-0.2,0.1-0.3,0.2-0.4,0.3
		c0,0,0-0.1-0.1-0.1C257.9,9.8,261.7,8.1,266.2,7.6z M248.7,26c0.1-3.1,1-6,2.5-8.7c0.9-1.6,2-3.1,3.4-4.3c0,0,0.1,0,0.1,0.1
		c-0.1,0.1-0.1,0.2-0.2,0.3c-0.9,1.7-1.6,3.5-1.7,5.5c0,0.1-0.1,0.3-0.2,0.4c-1.8,1.8-2.9,4-3.5,6.4C249,26,249,26,248.7,26z
		 M249.2,26.4c-0.1-0.4,0.1-0.8,0.3-1.2c0.6-2.1,1.6-4,3.2-5.7c0.2-0.2,0.4-0.3,0.8-0.3c1.5,0.1,3,0.2,4.5,0.3c0.3,0,0.5,0,0.8,0.1
		c0.1,0.9,0.1,1.7,0.3,2.5c0.4,2,1.2,3.8,2.2,5.5c0.2,0.4,0.2,0.6,0,1c-1.3,1.8-2.3,3.7-3.2,5.8c-0.1,0.3-0.3,0.5-0.7,0.5
		c-1.1-0.1-2.2-0.1-3.3-0.3c-0.4,0-0.8-0.2-1.2-0.4c-0.9-0.4-1.4-1.1-1.8-1.9C249.9,30.6,249.5,28.5,249.2,26.4z M263.1,45.1
		c-1.1,0.1-2.2-0.2-3.2-0.6c-3.4-1.5-6.1-3.9-8.1-6.9c0,0,0.1,0,0.1-0.1s0-0.3,0-0.4c-0.3-0.9-0.5-1.8-0.4-2.7c0-0.1,0-0.3,0-0.4
		h0.1c1.3,1,2.7,1.2,4.3,1.3c0.5,0,1,0,1.5,0c0.3,0,0.5,0.1,0.6,0.3c0.9,1.1,1.8,2.3,2.8,3.4c0.8,0.8,1.7,1.5,2.5,2.2
		c0.1,0.1,0.2,0.3,0.2,0.4c-0.2,1-0.2,2,0,3C263.6,44.9,263.5,45,263.1,45.1z M278.2,43.2L278.2,43.2c-0.6,0.4-1.3,0.8-2,1.2
		c-3,1.4-6.2,2-9.5,1.8c-0.9-0.1-1.8-0.3-2.6-0.8c-0.3-0.2-0.4-0.4-0.4-0.7c0-1,0-1.9,0-2.9c0-0.4,0.2-0.6,0.6-0.7
		c1.4-0.5,2.8-1,4.2-1.5c0.9-0.4,1.7-0.9,2.6-1.4c0.2-0.1,0.3-0.1,0.5,0c1.9,0.9,3.9,1.3,5.9,1.2c0.2,0,0.3,0,0.5,0
		c0.1,0,0.3,0,0.5,0c0,1.4-0.2,2.6-0.9,3.8C277.8,43.1,278,43.2,278.2,43.2z M283.5,33.8c-1.2,1.4-2.2,2.8-3.4,4.1
		c-0.7,0.8-1.6,1.2-2.7,1.2c-2,0-3.9-0.4-5.7-1.2c-0.2-0.1-0.3-0.2-0.3-0.5c-0.2-2.2-0.4-4.5-0.9-6.6v-0.1c-0.4-0.7-0.1-1.2,0.5-1.7
		c1.9-1.7,3.6-3.6,5.2-5.6c0.1-0.2,0.2-0.2,0.5-0.2c2,0.5,4,1,6.1,1.5c0.1,0,0.3,0.2,0.3,0.3c0.6,1.3,0.8,2.8,1,4.2
		c0.1,0.8,0.1,1.6,0.2,2.6C284.3,32.6,284,33.2,283.5,33.8z M286,33.7c-0.5-0.3-1.1-0.5-1.6-0.8c-0.1,0-0.1-0.2-0.1-0.4
		c-0.2-1.6-0.3-3.3-0.6-4.9c-0.1-0.9-0.5-1.7-0.7-2.6c0-0.1-0.1-0.3,0-0.4c0.4-1.7,0.8-3.3,1.2-5c0-0.1,0-0.2,0.1-0.4
		c0.9,0.3,1.7,0.7,2,1.7c1.3,4.2,1.2,8.4-0.2,12.5C286.1,33.5,286.1,33.6,286,33.7z"/>
</g>
<g>
	<path class="st1" d="M173.5,100.8c0.2-0.1,0.4-0.1,0.6-0.2l1.2-0.6c-0.9-1.8-2.1-2.9-3.4-2.2c-0.9,0.5-1,1.3-0.5,2
		C171.8,100.5,172.7,100.9,173.5,100.8z"/>
	<path class="st1" d="M289.4,24.7c0-0.7-0.1-1.5,0-2.3c0.1-1.4-0.3-2.6-0.9-3.8c-0.5-0.9-1.1-1.7-2.3-1.7c-0.7,0-1.3-0.3-1.8-0.7
		c0,0.1,0,0.2,0,0.3c1.9,3,3.1,6.5,3.1,10.3c0,10.6-8.9,19.5-19.5,19.5c-0.2,0-0.3,0-0.5,0c0,0.1,0,0.1,0,0.2c0.5,0.5,0.6,1.3,0.5,3
		c-0.2,1-0.5,1.9-0.7,2.9c-0.1,0.3-0.1,0.6-0.1,0.9c0.2,1.7,0.2,2.2-1.3,2.6c-2.3,0.6-3.1,2.6-4.5,4c-0.1,0.1-0.2,0.4-0.3,0.5
		c-2.7,2-4,5.1-5.8,7.7c-1.7,2.4-4,3.9-6.7,5.1c-3.6,1.5-6.7,3.8-9.7,6.2c-1.1,0.9-2.3,1.5-3.5,2.2c-1.5,0.8-3,1.6-4.5,2.5
		c-0.8,0.5-1.5,0.5-2.2,0c-0.7-0.4-1.3-1-2-1.3c-1-0.5-2-0.9-3-1.3c-0.4-0.2-0.9-0.1-1.3-0.3c-1.1-0.5-1.2-0.9-0.4-1.9
		c2.5-3.4,5.3-6.6,6.9-10.6c0.3-0.8,1.2-1.4,1.5-2.2c1.5-4.3,1.6-8.4-1.1-12.3c-1.7-2.5-4.1-3.8-7.1-4.6c-4.3-1.2-7.5,0.7-10.6,3.2
		c-1.5,1.2-2.8,2.5-3.7,4.2c-0.8,1.7-1.5,3.4-2.1,5.2c-0.4,1.3-0.5,2.6-0.8,4c0,0.2-0.3,0.4-0.4,0.5c-0.1-0.2-0.3-0.3-0.3-0.5
		c0-1-0.2-2.1,0.1-3.1c0.7-2,1.6-4,2.4-6c0.4-1,0.8-2,1.3-3c0.4-0.8,0.9-1.5,1.6-2.2c3.4-3.4,6.8-6.8,10.1-10.2
		c2.3-2.3,4.9-4.1,7.8-5.5c1.6-0.8,3-1.6,3.4-3.7c0.3-1.3,1.9-1.8,3.1-1.7c1.7,0.2,3.1-0.5,4.6-0.9c2.9-0.8,5.6-1.9,8.4-2.9
		c0.1,0,0.2-0.1,0.3-0.1c0.3-0.2,0.7-0.3,1.1-0.4c0.2-10.4,9-19.1,19.5-19.1c0.9,0,1.8,0.1,2.7,0.2c0-0.1,0-0.2,0.1-0.3
		c-0.3-0.1-0.6-0.3-0.6-0.5c-0.4-1.6-1.6-1.9-3-1.9c-2.6,0-5.1-0.1-7.7-0.1c-0.9,0-1.8,0.3-2.5,0.8c-2.9,1.6-5.8,3.3-8.8,4.9
		c-2,1.2-4.3,2-6.1,3.5c-2.7,2.3-5.6,4.1-8.9,5.5c-0.8,0.3-1.5,1-2,1.7c-0.8,1.2-1.7,1.7-3.1,1.8c-0.6,0-1.3,0.2-1.8,0.5
		c-2.5,1.6-5.1,2-8,1.5c-0.8-0.1-1.7,0.2-2.4,0.6c-3.3,1.9-6.6,4-9.3,6.7c-1.2,1.2-2.3,2.4-3.6,3.4c-2.2,1.7-4.6,3.2-6.7,5
		c-0.9,0.7-1.8,1.8-2.1,2.8c-0.3,1.2-0.8,2-1.9,2.4c-2.8,1.2-4.7,3.4-6.1,6c-1.4,2.6-2.8,5.2-4.1,7.8c-1.9,3.8-3.8,7.7-5.8,11.5
		c-1.4,2.7-3.1,5.4-4.7,8c-1.2,1.9-2.6,3.7-4.3,5.1c-2.7,2.2-5.3,4.6-7.9,6.9c-1.6,1.4-3.2,2.9-4.8,4.3c-1.3,1.2-2.8,2-4.6,2.1
		c-2.9,0.3-5.8,0.6-8.6,0.6c-3.7,0.1-7,1.9-10.6,2.7c-2.6,0.5-5.1,1.3-7.7,1.8c-2.7,0.6-5.5,0.9-8.2,1.6c-2.2,0.6-4.2,1.8-6.3,2.6
		c-3.4,1.4-6.8,2.6-10.5,3.1c-1.4,0.2-2.4,0.9-3.1,1.9c-0.7,1.1-1.7,1.5-2.8,1.8c-2.7,0.7-5.4,1.4-8.2,2c-1.9,0.4-3.8,0.9-5.7,1.1
		c-2.8,0.3-5.4,1.1-7.6,2.8c-3,2.3-6,4.7-8.8,7.2s-5.7,4.3-9.5,4.8c-2.4,0.3-4.8,1.3-7.2,2.1c-2.6,0.9-5,2.3-7,4.3
		c-1.7,1.7-1.7,5.4,0.3,6.1c1.9,0.7,4,1,6.1,1.2c0.7,0.1,1.5-0.2,2.3,0.2s1.3,0.1,1.6-0.8c0.2-0.5,0.6-1.1,1-1.4
		c0.8-0.6,1.8-1.1,2.7-1.5c1.9-0.9,4-0.8,6-1c0.9-0.1,1.8-0.3,2.5,0.7c0.4,0.6,1.2,0.5,1.5-0.2c0.4-0.8,0.9-0.8,1.7-1
		c2.1-0.4,3.9-1.1,4.3-3.7c0.1-0.7,0.7-1.8,1.4-2c2-0.7,4.1-1.1,6.2-1.7c2.4-0.7,4.8-1.3,7.2-2c1.5-0.4,3-1.1,4.6-1.2
		c2-0.1,4,0.3,6,0.4c1.8,0.1,3.2,0.9,4.1,2.3c0.6,0.9,1.2,1.9,1.7,2.8c0.8,1.5,2,1.9,3.7,1c2.8-1.4,5.8-2.4,8.8-3.2
		c1.8-0.5,3.7-0.8,5.6-1.2c0.2,0,0.4,0.1,0.6,0.2c-0.1,0.2-0.2,0.4-0.4,0.6c-0.9,0.7-1.9,1.3-2.8,2c-3.5,2.4-7.1,4.8-10.6,7.3
		c-1,0.7-2.2,1.5-2.9,2.5c-0.9,1.3-1.7,2.5-3.2,3.2c-1.3,0.6-2.7,1.4-4,2.1c-3.8,2.1-7.6,4.3-11.4,6.4c-2.1,1.1-4.1,2.4-6.3,3.1
		c-2.6,0.8-5.3,1.2-7.9,1.6c-3.4,0.4-6.3,2.1-9.1,3.7c-4.3,2.3-8.6,4.4-13.2,6c-3.4,1.2-6.8,2.6-10.3,3.8c-2.4,0.8-4.9,1.8-7.4,2.1
		c-2.8,0.3-5.4,1.2-7.9,2.1c-2.3,0.9-4.6,1.9-6.9,2.8c-3.5,1.3-6,3.5-7.5,6.9c-0.5,1.2-0.5,2.6,0.5,3.6s2.2,1.5,3.6,1.6
		c4.5,0.3,8.4-1.5,12.3-3.2c2-0.9,3.9-1.8,5.9-2.5c3.3-1.2,6.6-2.3,9.9-3.3c2.8-0.8,5.7-1.5,8.6-2.1c1.8-0.4,3.5-0.7,5.3-0.9
		c3.4-0.4,6.7-0.8,10.1-1.1c2.6-0.2,5.3,0.2,7.9-0.8c1.9-0.7,3.8-1.5,5.6-2.3c3-1.3,6.2-2.3,9-4.4c1.9-1.4,3.9-2.8,6.1-3.7
		c2.4-1.1,5.1-1.5,7.5-2.4c2.8-1.1,5.2-0.8,7.4,1.1c0.1,0.1,0.2,0.2,0.4,0.3c2.1,1.6,3.4,1.6,5.6,0.2c1.7-1.1,3.4-2.3,5.2-3.2
		c2.1-1.1,4.1-2.2,6.5-2.6c2.3-0.3,4.5-0.8,6.7-1.4c3.3-1,6.5-2.6,9.9-3.3c3.1-0.7,5.5-3,8.4-4.3c0.6-0.2,1-0.8,1.4-1.3
		c0.8-1,1.8-1.6,2.9-2c1.2-0.4,2.5-0.7,3.7-1c2-0.4,4-1.1,5.4-2.5c2.9-2.9,6.3-5.2,9.6-7.6c3.9-2.8,7.9-5.2,12.4-7
		c3.1-1.3,6.2-2.5,9.2-3.9c1.3-0.6,2.6-1.5,3.7-2.5c1.9-1.7,3.6-3.6,5.5-5.3c2.8-2.7,6.1-4.8,9.4-6.9c1.1-0.7,2.2-1.4,3.5-1.8
		c3.3-1.1,6.6-2.1,10-3.1c2.9-0.9,5.8-1.7,8.3-3.4c3.6-2.6,7-5.3,10.5-8c2.5-1.9,4.8-4.1,7.3-6c3.9-2.9,8-5.5,11-9.4
		c2.6-3.4,5.3-6.8,7-10.8c0.5-1.3,1.2-2.5,1.7-3.8c0.5-1.4,0.9-2.8,1.3-4.3c0.2-0.9,0.5-2,0.4-2.9c-0.2-1.4,0.2-2.5,1.3-3.4
		c0.4-0.3,0.8-0.6,1.1-1c0.9-1.3,1.6-2.8,2.5-4.1c1.6-2.3,3.2-4.6,5.1-6.7c2.4-2.6,4.3-5.4,5.3-8.8C289,32.4,289.5,28.7,289.4,24.7z
		 M120.1,156.8c-1.4,1-2.8,2-4.3,3c-0.8,0.6-1.7,1.1-0.7,2.2c0.1,0.1,0,0.2,0.1,0.4c-0.1,0.1-0.2,0.3-0.4,0.3c-0.2,0-0.6,0-0.7-0.2
		c-0.7-1.1-1.5-2.1-2.2-3.2c-0.1-0.2-0.1-0.5,0-0.7c0.1-0.1,0.6-0.2,0.6-0.1c1.1,1.4,2.1,0.2,3-0.2c0.9-0.5,1.7-1.2,2.6-1.8
		c0.7-0.5,1.1-1,0.4-1.8c-0.1-0.2-0.1-0.5-0.1-0.8c0.3,0,0.7-0.2,0.8,0c0.6,0.5,1.1,1,1.5,1.7C121,155.8,120.5,156.5,120.1,156.8z"
		/>
	<path class="st1" d="M199.4,101.9c-3.6,3.4-4.5,5.9-3.1,7.3c1.3,1.4,3.8,0.5,7.4-2.9c3.4-3.3,4.5-5.8,3.2-7.2
		C205.6,97.8,203,98.5,199.4,101.9z"/>
</g>
<rect x="106.7" y="147.8" transform="matrix(0.7788 -0.6273 0.6273 0.7788 -70.3226 108.4344)" width="23.7" height="12.3"/>
</svg>
