<?xml version="1.0" encoding="utf-8"?>
<!-- Generator: Adobe Illustrator 19.1.0, SVG Export Plug-In . SVG Version: 6.00 Build 0)  -->
<svg version="1.1" id="Calque_15" xmlns="http://www.w3.org/2000/svg" xmlns:xlink="http://www.w3.org/1999/xlink" x="0px" y="0px"
	 viewBox="0 0 337.5 198.4" style="enable-background:new 0 0 337.5 198.4;" xml:space="preserve">
<style type="text/css">
	.st0{fill-rule:evenodd;clip-rule:evenodd;fill:none;}
	.st1{fill-rule:evenodd;clip-rule:evenodd;}
</style>
<g>
	<path d="M78.8,72.1c-14.1,0-25.6-11.5-25.6-25.6c0-14.1,11.5-25.6,25.6-25.6c14.1,0,25.6,11.5,25.6,25.6
		C104.5,60.6,93,72.1,78.8,72.1z M78.8,23.7c-12.5,0-22.7,10.2-22.7,22.7s10.2,22.7,22.7,22.7c12.5,0,22.7-10.2,22.7-22.7
		S91.3,23.7,78.8,23.7z"/>
	<g>
		<path d="M78.8,25.9c-11.3,0-20.5,9.2-20.5,20.5s9.2,20.5,20.5,20.5c11.3,0,20.5-9.2,20.5-20.5S90.1,25.9,78.8,25.9z M78.4,54.3
			c-4.1,0-7.5-3.4-7.5-7.5c0-4.1,3.4-7.5,7.5-7.5c4.1,0,7.5,3.4,7.5,7.5C85.9,50.9,82.6,54.3,78.4,54.3z"/>
		<path d="M78.4,43.8c-1.7,0-3,1.4-3,3c0,1.7,1.4,3,3,3c1.7,0,3-1.4,3-3C81.5,45.1,80.1,43.8,78.4,43.8z"/>
	</g>
</g>
<g>
	<path d="M111.6,73.7c-6-7.5-9.6-17-9.6-27.3c0-24,19.6-43.6,43.6-43.6c24,0,43.6,19.6,43.6,43.6c0,24-19.6,43.6-43.6,43.6
		c-18.1-0.2-28.3-10.7-28.3-10.7v-5.6H111.6 M145.6,7.9c-21.3,0-38.6,17.3-38.6,38.6c0,21.3,17.3,38.6,38.6,38.6
		c21.3,0,38.6-17.3,38.6-38.6C184.1,25.2,166.8,7.9,145.6,7.9z"/>
	<g>
		<path d="M145.6,11.6c-19.2,0-34.8,15.6-34.8,34.8c0,19.2,15.6,34.8,34.8,34.8c19.2,0,34.8-15.6,34.8-34.8
			C180.4,27.2,164.8,11.6,145.6,11.6z M144.9,59.7c-7,0-12.7-5.7-12.7-12.7s5.7-12.7,12.7-12.7c7,0,12.7,5.7,12.7,12.7
			S151.9,59.7,144.9,59.7z"/>
		<path d="M144.9,41.9c-2.8,0-5.2,2.3-5.2,5.2s2.3,5.2,5.2,5.2c2.8,0,5.2-2.3,5.2-5.2S147.8,41.9,144.9,41.9z"/>
	</g>
</g>
<g>
	<path d="M212.1,72.1c-14.1,0-25.6-11.5-25.6-25.6c0-14.1,11.5-25.6,25.6-25.6c14.1,0,25.6,11.5,25.6,25.6
		C237.7,60.6,226.2,72.1,212.1,72.1z M212.1,23.7c-12.5,0-22.7,10.2-22.7,22.7c0,12.5,10.2,22.7,22.7,22.7
		c12.5,0,22.7-10.2,22.7-22.7C234.8,33.9,224.6,23.7,212.1,23.7z"/>
	<g>
		<path d="M212.1,25.9c-11.3,0-20.5,9.2-20.5,20.5c0,11.3,9.2,20.5,20.5,20.5c11.3,0,20.5-9.2,20.5-20.5
			C232.5,35.1,223.4,25.9,212.1,25.9z M211.7,54.3c-4.1,0-7.5-3.4-7.5-7.5c0-4.1,3.4-7.5,7.5-7.5c4.1,0,7.5,3.4,7.5,7.5
			C219.2,50.9,215.8,54.3,211.7,54.3z"/>
		<path d="M211.7,43.8c-1.7,0-3,1.4-3,3c0,1.7,1.4,3,3,3s3-1.4,3-3C214.7,45.1,213.4,43.8,211.7,43.8z"/>
	</g>
</g>
<g>
	<path class="st0" d="M228.9,66.2c-1.3,2-2.6,4-3.8,6.1 M223.7,76.1c0.1,0,0.2,0.1,0.3,0.1c0,0.7,0,1.4-0.1,2.1
		c-0.2,0.8-0.6,1.7,0.4,2.3c0.1,0.1,0.1,0.2,0.1,0.3c0.1,1.6,0.3,3.2,0.4,4.7c0.1,1.9,0,3.8,0,5.7c1,0.2,1.3,0.5,1.4,1.3
		c0.1,1.3,0.3,2.7,0.6,4c0.2,0.8-0.2,1.1-0.7,1.3c-0.5,0.2-1,0.3-1.5,0.4c-3.2,0.8-6.5,1.5-9.7,2.3c-1.8,0.5-3.7,1-5.5,1.5
		c-0.8,0.2-1.7,0.2-2.5,0.4c-0.4,0.1-0.6,0.5-0.9,0.8c0.3,0.2,0.7,0.3,1,0.5c0.1,0,0.1,0.1,0.2,0.2c-0.6,1.6-1.9,2.7-3.1,3.9
		c-0.7-0.7-1.1-0.3-1.5,0.3c-0.9,1.4-2,2.5-3.5,3.3c-1.7,1-3.5,1.9-5.1,3c-2.3,1.6-4.5,3.3-6.7,5c-0.2,0.2-0.5,0.7-0.4,1
		c0.2,1.2-1.1,2.7-2.3,2.6c-0.5-0.1-1-0.1-1.5-0.1c-4.2,0.2-8.5,0.4-12.7,0.8c-3.5,0.3-6.9,0.7-10.3,1.4c-3.2,0.6-6.4,1.6-9.5,2.6
		c-2.3,0.7-4.5,1.7-6.3,3.4c-2.1,2.1-2.5,3.8-0.3,6.1c1.5,1.6,3.4,2.6,5.4,3.3c3.3,1.2,6.6,2.1,10,2.9c3.1,0.7,6.3,1,9.5,1.4
		c3.1,0.4,6.3,0.6,9.5,0.7c6.9,0.2,13.7,0.1,20.6-0.7c2.9-0.4,5.8-0.7,8.7-1.3c2.7-0.5,5.4-1.2,8.1-2c2.8-0.9,5.6-2.1,7.8-4.2
		c2.4-2.2,1.8-4.6-0.2-6.3c-2.4-2-5.2-3.2-8.1-4.1c-0.7-0.2-1.1-0.6-1.2-1.2c-0.1-2.2-0.2-4.4-0.2-6.6c0-0.9-0.1-1.9-0.1-2.8
		c0-0.2,0-0.5,0-0.6c1.2,0,2.4,0.2,3.5,0c3.4-0.8,6.9-0.6,10.3-0.9c0.6-0.1,0.9,0.2,1,0.9c0.2,1.2,0.4,2.4,0.5,3.6
		c0.1,0.4,0.2,1,0,1.3c-0.6,1-0.1,1.8,0.4,2.5c0.8,1.2,0.9,2.9,2.4,3.6c0.1,0.1,0.2,0.6,0.1,0.8c-0.4,0.6-0.4,1.2,0.3,1.6
		c3.2,1.9,5.3,4.7,7.3,7.7c0.6,1,1.1,2,1.9,2.8c1.7,1.6,3.7,2.8,5.9,3.5c0.4,0.2,0.8,0.4,1.3,0.6c0,0.1-0.1,0.2-0.1,0.2
		c-0.9-0.1-1.9-0.3-2.8-0.2c-3.1,0.1-6.1-0.2-9.3,0.6c-2.7,0.8-5.7,0.7-8.6,0.8c-4,0.2-7.9,1-11.8,1.9c-3,0.6-6,1.4-9,2
		c-3.5,0.7-7,1.5-10.2,3.2c-0.3,0.2-0.6,0.2-1.2,0.4c0.4-1.1,0.7-1.9,1.1-2.7c0.5-1,0-2.3-1.1-2.5c-0.3-0.1-0.6-0.1-0.9-0.2
		c-1.6-0.2-3.1,0-4.4,1.1c-0.6,0.5-0.5,1,0,1.5c1-1.4,3.1-2,4.5-1.2c-1,0.5-1.8,0.8-2.4,1.7c-1.5,2.4-1.4,1.8-1,2.7
		c1.1,0,2.3-1.1,3.3,0c-1,0.8-2,1.6-2.9,2.5c-0.8,0.8-1.4,1.7-1.4,3c-0.1,2.2,1.4,3.5,2.9,4.7c3.2,2.4,7,3.8,10.8,4.8
		c4.4,1.1,8.8,2,13.3,2.9c2.4,0.5,4.9,0.8,7.3,1.1c2.8,0.3,5.7,0.6,8.5,0.8c3.8,0.2,7.5,0.5,11.3,0.6c4.1,0.1,8.3-0.1,12.4-0.1
		c2.2,0,4.4-0.1,6.6-0.2c0.9,0,1.9-0.1,2.8-0.2c1.1-0.1,2.1-0.3,3.2-0.4c3.6-0.4,7.3-0.6,10.9-1.2c4.3-0.7,8.5-1.9,12.7-2.8
		c1-0.2,2-0.8,3.1-0.1c0.2,0.1,0.6,0,1-0.1c-0.3-0.2-0.3-0.3-0.5-0.4c-0.1-0.1-0.2-0.1-0.5-0.1c0.4-0.2,0.4-0.3,0.5-0.3
		c3.2-1.3,6.5-2.4,9.2-4.7c1.3-1.1,2.5-2.4,2.4-4.3c-0.1-1.7-1.1-3-2.4-3.9c-1.6-1.1-3.3-2.2-5.2-3.1c-3.3-1.5-6.8-2.7-10.4-3.4
		c-2.2-0.4-4.4-1.2-6.3-2.4c-1-0.7-1.9-1.7-3.2-1.9c-0.3,0-0.5-0.5-0.7-0.7c0.4-0.1,0.7-0.1,0.9,0c3.4,1,6.7,2,10.1,3
		c1.9,0.5,3.8,0.8,5.7,1.5c3.1,1.1,6.1,2.7,9.2,3.7c3.3,1.1,6.8,1.7,10.3,2.5c0.6,0.2,1.3,0.3,1.9,0.4c0-0.1,0.1-0.2,0.1-0.3
		c-0.3-0.1-0.6-0.3-1-0.4c-1.1-0.3-2.2-0.6-3.3-1c-0.2-0.1-0.4-0.2-0.5-0.3c-0.8-1.4-1.6-2.9-2.3-4.4c-0.8-1.6-1.6-3.2-2-4.9
		c-1-3.5-1-7.1-0.6-10.8c0.1-0.9,0.4-1.7,0.7-2.6c0.1,0,0.2,0,0.3,0.1c0.1,0.8,0.1,1.5,0.2,2.3c0.1,0.3,0.4,0.6,0.7,0.9
		c0.2-0.3,0.4-0.6,0.5-0.9c0.1-0.5,0-0.9,0-1.4c0-1.6-0.3-3.3,0.2-4.7c1.1-3.3,2.5-6.5,3.9-9.7c0.7-1.5,2-2.7,2.9-4.1
		c1-1.7,2.2-3.4,2.7-5.3c0.7-2.9,1-6,1.2-9c0.2-2.2,0-4.5,0.1-6.8c0.1-2,0.5-3.9,0.5-5.9c0-3.7,1.1-7.3,0.9-11.1
		c-0.1-2.1,0-4.3-0.1-6.4c0-0.4-0.2-0.8-0.4-1.3c-0.2-0.8-0.5-1.5-0.7-2.3c-0.1-0.3,0-0.7-0.1-0.9c-0.9-2.8-1.8-5.6-2.7-8.4
		c-0.2-0.7-0.5-1.5-0.9-2.2c-0.2-0.3-0.7-0.3-1.1-0.5c-0.1,0.4-0.3,0.8-0.3,1.2c0,0.3,0.2,0.7,0.3,1c-0.1,0.1-0.1,0.1-0.2,0.2
		c-1.3-0.9-2.8-1.7-3.8-2.9c-0.7-0.8-1.2-0.9-2.1-0.7c-0.7,0.2-1.4,0.3-2.1,0.4c-1.3,0.1-2.6-0.1-3.9,0c-1.3,0.1-2.6,0.4-4,0.6
		c-2.8,0.5-5.6,0.9-8.4,1.5c-1.6,0.4-3.2,0.7-4.6-0.5c-0.2-0.2-0.5-0.3-0.7-0.3c-2,0-2.5-1.2-2.4-2.9c0-0.1-0.1-0.2-0.1-0.3
		c0.3-0.8,0.4-1.7,0.9-2.3c0.3-0.4,0.7-0.6,0.8-1.1c0.1-0.6,0.4-1.3,0.6-1.9c0.9-2.3,1-4.7,0.5-7c-0.2-0.9,0-1.6,0.4-2.4
		c0.7-1.3,1.4-2.7,2-4.1c0.3-0.8,0-1.2-0.8-1.3c-0.2,0-0.4,0-0.6-0.1c-0.1-1.3-0.1-2.5-0.2-3.7c-0.2,0.5-0.2,1-0.2,1.5
		c-0.1,2.5-0.6,4.8-1.9,6.9c-1.3,2.1-2.7,4.1-4.3,6.3c-0.1-0.2-0.2-0.4-0.3-0.6c-0.4-0.8-0.7-1.6-1.2-2.4c-0.7-1.1-1.5-2.1-3-2
		c-0.6,0-0.6-0.3-0.6-0.8c0-0.4-0.3-0.9-0.5-1c-0.4-0.2-1.1-0.3-1.3-0.1c-0.7,0.6-1.5,0.8-2.4,0.8c-0.4,0-0.9,0.1-1.3,0.2
		c-0.5,0.1-1,0.4-1.5,0.5c-1.2,0.2-2.4,0.4-3.7,0.5c-1.9,0.1-3.8,0.3-5.6,0.2c-3.7-0.2-7.4-0.5-11-0.8c-1.2-0.1-2.3-0.3-3.4-0.4
		c0-0.9,0.1-1.7,0-2.4c-0.1-0.5-0.5-1-0.7-1.5c-0.3-0.6-0.2-1.1,0.6-1.3c0.6-0.1,1.3-0.2,2.1-0.3c-0.1-0.2-0.2-0.5-0.3-0.6
		c-1.3-0.7-2.2-2.1-3.8-2.4c-0.7-0.1-0.9-0.4-0.5-1.1c1.7-2.9,3.4-5.9,5.1-8.8c0.9-1.5,1.9-2.9,2.9-4.3c0.2-0.3,0.7-0.4,1-0.6
		c0.1,0.1,0.1,0.2,0.2,0.2c-0.3,0.9-0.7,1.8-1,2.7c0,0.1,0,0.3,0,0.5c0.2,0,0.5,0,0.5-0.1c0.4-1.2,1.1-2.3,1.2-3.5
		c0.1-0.7,0.1-1.2,0.7-1.5c1.6-0.9,3.3-1.8,4.9-2.7c0.6-0.3,1.3-0.4,2.1-0.3c1.6,0.3,3.2,0.4,4.7,0.6c0.6,0.1,0.9-0.1,1.1-0.7
		c0.3-1.1,0.9-1.6,2-1.3c1.5,0.3,3.1,0.8,4.5,1.4c1.5,0.7,2.9,1.7,4.4,2.5c1.1,0.6,2.2,0.9,3.3,1.4c0.4,0.2,0.7,0.4,1.2,0.7
		c-0.1-0.3-0.1-0.5-0.1-0.5c-1.4-0.9-2.8-1.8-4.3-2.6c-0.7-0.4-1.6-0.6-2.3-1.1c-1.6-1.2-3.4-2-5.3-2.5c-1.2-0.3-2.5-0.6-3.6,0.5
		c-0.6-0.4-1.2-0.8-1.9-1.2c22.7,0,45.3,0,68,0c0,63.7,0,127.4,0,191.1c-65.5,0-131,0-196.5,0c0-18,0-36,0-54
		c1.1,0.6,2.3,1.3,3.4,1.9c2.4,1.4,4.8,2.9,7.2,4.3c3.6,2,7.3,4,10.9,6c4.6,2.5,9.1,5.1,13.7,7.4c4.4,2.2,8.9,4.3,13.4,6.4
		c3.5,1.6,7,3.2,10.5,4.7c3.4,1.5,6.8,2.9,10.2,4.3c4.8,2.1,9.7,4.3,14.5,6.5c2.6,1.2,5.3,2.3,7.9,3.4c2.6,1.1,5.3,2,7.6,3.7
		c1.2,0.9,2.3,1.8,2.9,3.2c0.5,1.3,1.3,1.9,2.6,1.9c1.7,0,3.5-0.1,4.8-1.4c0.8-0.8,1.4-1.9,2.1-2.9c0.8-1,1.4-2.2,2.4-3
		c0.9-0.8,2.2-1.2,3.3-1.8c0.2-0.1,0.3-0.3,0.6-0.7c-1-0.1-1.7-0.4-2.3-0.3c-1,0.2-1.9,0.6-2.9,0.9c-1.3,0.4-2.7,1.2-4,1.3
		c-2.1,0.1-3.9,1.4-6,1.1c-0.7-0.1-1.5,0.1-2.2-0.2c-4.4-2-8.7-4.1-13.1-6.1c-2.8-1.3-5.7-2.6-8.5-3.8c-3.8-1.7-7.7-3.5-11.5-5.2
		c-3.1-1.4-6.3-2.7-9.4-4.1c-3.7-1.7-7.5-3.3-11.2-5.1c-5.6-2.7-11.3-5.3-16.8-8.1c-2.8-1.4-5.5-3-8.3-4.5c-2.5-1.3-5.1-2.5-7.6-3.8
		c-3.5-1.8-7-3.7-10.6-5.4c-1.1-0.5-2.2-1.3-3.6-0.8c0-45.6,0-91.1,0-136.7c42.6,0,85.3,0,127.9,0c-0.3,0.2-0.6,0.4-0.9,0.6
		c-1,0.7-1.9,1.2-3.2,0.8c-0.3-0.1-0.7,0-1,0.2c-1.8,0.9-3.6,1.8-5.3,2.7c-1.2,0.7-2.6,1.3-3.4,2.3c-2.1,2.4-4,5-5.8,7.6
		c-1.4,2-2.5,4.3-3.6,6.5c-0.3,0.5-1,1.1-0.3,1.9c0.9,1,1.2,2.5,2.4,3.2c0.1,0,0.1,0.2,0.1,0.2c0.4,0.9,0.8,1.8,1.1,2.7
		c0.3,0.8,0.3,1.5-0.6,2.1c-0.9,0.7-1.8,1.6-2.1,2.6c-1,2.5-1.8,5-2.4,7.6c-0.4,1.4-0.9,2.8-0.4,4.4c0.2,0.7,0.6,0.8,1.1,0.8
		c0.3,0,0.6-0.1,0.8-0.2c1.8-0.4,3.5-0.8,5.3-1.1c1.1-0.2,1.1-0.1,1.2,1c0.3,2.2,0.2,4.4,1.5,6.3c0.1,0.1,0.2,0.4,0.2,0.5
		c-0.3,1,0.3,1.6,0.9,2.3c1.7,2,1.7,2.1-0.4,3.6c-0.1,0.1-0.2,0.2-0.4,0.3c-1.1,0.8-3.5,0.7-4.6-0.2c0.7-0.6,1.3-1.3,2-1.9
		c-0.1-0.1-0.1-0.2-0.2-0.3c-0.4,0.1-0.8,0.1-1.1,0.3c-1,0.7-2,1.5-3.1,2.2c-2.6,1.9-5.4,3.4-8.6,4.1c-0.3,0.1-0.6,0-0.9-0.1
		c-0.5-0.2-1-0.4-1.5-0.6c-0.8-0.2-0.9,0.2-0.8,0.8c0,0.4,0.2,0.8,0.1,1.1c-0.5,1.4-1.5,2.1-3.1,2.3c0.1-0.3,0.1-0.5,0.2-0.7
		 M329.9,157.2c0.4,1.5-0.8,1.7-1.7,2c-0.8,0.3-1.7,0.5-2.5,0.8c-2.5,1-5,2.1-7.5,3c-3.7,1.4-7.4,2.7-11.1,4.1
		c-3.5,1.3-7,2.5-10.5,3.8c-3.6,1.2-7.1,2.4-10.7,3.6c-3.9,1.3-7.7,2.5-11.6,3.7c-0.6,0.2-0.9,0.5-0.8,1.1c0.1,0.6,0.6,0.7,1.1,0.6
		c1-0.2,2-0.3,3-0.5c2.4-0.5,4.7-1,7.1-1.5c0.8-0.2,1.5-0.3,2.3-0.4c1.5-0.2,3.1-0.3,4.6-0.6c1.6-0.3,3.2-0.7,4.8-1.1
		c3.2-0.7,6.5-1,9.4-2.8c0.2-0.1,0.4-0.2,0.6-0.3c2.2-0.6,4.4-1.1,6.5-1.9c3.9-1.4,7.7-3,11.5-4.6c1.8-0.7,3.5-1.7,5.1-2.6
		c0.8-0.4,1.5-1,2.2-1.7c1.3-1.2,1.5-3,0.4-4.4c-0.1-0.1-0.3-0.2-0.4-0.2C331.1,157.3,330.6,157.2,329.9,157.2z M254.9,14.8
		c0.3,0.1,0.6,0.2,0.9,0.2c0.7-0.1,1.5-0.2,2.1-0.6c1-0.6,1.7-0.6,2.7,0.1c1.4,1,3.3,1.2,4.2,3c0.1,0.1,0.3,0.2,0.5,0.4
		c0-1.1,0.4-2.3-1-2.7c-0.1,0-0.2-0.2-0.3-0.3c-0.4-1.3-1.3-2.3-2.4-3.1c-1.2-1-2.1-1-3.2,0.2c-0.2,0.2-0.5,0.3-0.7,0.4
		C256.3,12.4,255,12.8,254.9,14.8z M180.3,150.7c1.7-0.6,3.3-1.6,5.1-0.1c-0.5,0.2-0.8,0.3-1.2,0.4c-0.7,0.2-1.5,0.1-2.1,0.5
		c-0.8,0.5-0.9,1.9-0.5,2.8c0.1,0.2,0.4,0.4,0.7,0.5c0.3,0.1,0.7,0.2,1,0.3c1,0.3,2.9-0.2,3.3-1.1c0.3-0.8,0.4-1.8,0.4-2.7
		c0-0.5-0.4-1.1-0.7-1.3c-1.1-0.7-2.3-1.2-3.6-0.9C181.8,149.3,180.9,149.5,180.3,150.7z M261.5,32.8c0.1,0.1,0.2,0.3,0.2,0.4
		c0.8-0.2,1.7-0.5,2.5-0.7c0.7-0.2,1.4-0.8,2.1-0.7c1.4,0,2.4-0.7,3.4-1.4c0.6-0.4,1.6-0.8,1.2-2.1c-0.3,0.1-0.6,0.3-0.8,0.4
		c-0.9,0.5-1.8,1.3-2.8,1.3c-2,0.1-3.6,1.3-5.3,2.1C261.8,32.2,261.7,32.6,261.5,32.8z M231,141c0.3-0.3,0.8-0.6,0.8-0.8
		c0-0.4-0.3-0.8-0.6-1c-0.7-0.5-1.5-0.8-2.2-1.3c-0.5-0.4-1.1-0.8-1.5-0.2c-0.2,0.4-0.1,1.4,0.2,1.7C228.6,140,229.8,140.4,231,141z
		 M259,34.3c0.1,0.1,0.1,0.2,0.2,0.3c2.3,0.5,4.5,0.4,6.9-0.4c-0.3-0.2-0.4-0.3-0.5-0.3c-1.9-0.1-3.7-0.2-5.6-0.2
		C259.7,33.7,259.4,34.1,259,34.3z M234.8,138.9c0.1-0.1,0.4-0.2,0.5-0.4c0-0.3,0-0.7-0.2-0.8c-0.6-0.4-1.3-0.8-1.9-1.1
		c-0.2-0.1-0.6,0-0.9,0.2c-0.1,0.1-0.1,0.5,0,0.7C232.4,138.2,233.6,138.9,234.8,138.9z M252.7,32.8c-1.6-0.1-3-0.2-4.5-0.3
		C249.1,33.4,251.5,33.5,252.7,32.8z M267.1,7.1c0.6,0.8,1.4,0.7,2.1,0.8c0-0.3,0.1-0.8,0-0.9C268.6,6.5,267.8,6.6,267.1,7.1z
		 M275.5,26.5c-0.3,0.7-0.5,1.2-0.8,1.9C275.8,27.9,276.1,27.5,275.5,26.5z M273.7,12.1c0.1-0.1,0.3-0.2,0.4-0.2
		c-0.3-0.5-0.6-1-1-1.4c-0.1-0.1-0.4,0-0.8-0.1C272.8,11,273.2,11.5,273.7,12.1z M275.6,21.3c0.1,0,0.2-0.1,0.3-0.1
		c-0.1-0.4-0.3-0.9-0.4-1.3c0,0-0.3,0.1-0.3,0.1c0.1,0.4,0.2,0.8,0.3,1.2C275.5,21.2,275.6,21.3,275.6,21.3z"/>
	<path class="st1" d="M226.9,70.4c-0.1,0.2,1-0.4,0.9-0.2c1.6-0.2,2.7-0.9,3.1-2.3c0.1-0.3-0.1-0.7-0.1-1.1
		c-0.1-0.6,0.1-1.1,0.8-0.8c0.5,0.2,1,0.4,1.5,0.6c0.3,0.1,0.6,0.2,0.9,0.1c3.2-0.7,6-2.2,8.6-4.1c1-0.7,2-1.5,3.1-2.2
		c0.3-0.2,0.7-0.2,1.1-0.3c0.1,0.1,0.1,0.2,0.2,0.3c-0.7,0.6-1.3,1.3-2,1.9c1.1,1,3.5,1.1,4.6,0.2c0.1-0.1,0.2-0.2,0.4-0.3
		c2.1-1.5,2.1-1.6,0.4-3.6c-0.6-0.7-1.2-1.3-0.9-2.3c0-0.1-0.1-0.4-0.2-0.5c-1.3-1.9-1.3-4.1-1.5-6.3c-0.1-1.1-0.2-1.2-1.2-1
		c-1.8,0.3-3.5,0.7-5.3,1.1c-0.3,0.1-0.6,0.2-0.8,0.2c-0.6,0-0.9-0.1-1.1-0.8c-0.4-1.5,0.1-3,0.4-4.4c0.6-2.6,1.4-5.1,2.4-7.6
		c0.4-1,1.3-1.9,2.1-2.6c0.8-0.7,0.9-1.3,0.6-2.1c-0.3-0.9-0.7-1.8-1.1-2.7c0-0.1-0.1-0.2-0.1-0.2c-1.3-0.7-1.6-2.2-2.4-3.2
		c-0.7-0.8,0-1.4,0.3-1.9c1.1-2.2,2.2-4.4,3.6-6.5c1.8-2.6,3.7-5.2,5.8-7.6c0.9-1,2.2-1.6,3.4-2.3c1.7-1,3.5-1.8,5.3-2.7
		c0.3-0.1,0.7-0.3,1-0.2c1.2,0.4,2.2-0.1,3.2-0.8c0.3-0.2,0.6-0.4,0.9-0.6c0.2,0,0.4,0,0.6,0c0.6,0.4,1.2,0.8,1.9,1.2
		c1.1-1.1,2.4-0.9,3.6-0.5c1.9,0.5,3.7,1.3,5.3,2.5c0.7,0.5,1.6,0.6,2.3,1.1c1.4,0.8,2.8,1.7,4.3,2.6c0.1,0,0,0.2,0.1,0.5
		c-0.5-0.3-0.8-0.5-1.2-0.7c-1.1-0.5-2.3-0.9-3.3-1.4C276.4,8,275,7,273.5,6.4c-1.4-0.6-3-1.1-4.5-1.4c-1.1-0.2-1.7,0.2-2,1.3
		c-0.2,0.6-0.6,0.8-1.1,0.7c-1.6-0.2-3.2-0.3-4.7-0.6c-0.8-0.1-1.4,0-2.1,0.3c-1.7,0.9-3.3,1.8-4.9,2.7c-0.6,0.3-0.7,0.8-0.7,1.5
		c-0.1,1.2-0.7,2.4-1.2,3.5c0,0.1-0.3,0.1-0.5,0.1c0-0.2-0.1-0.3,0-0.5c0.3-0.9,0.7-1.8,1-2.7c-0.1-0.1-0.1-0.2-0.2-0.2
		c-0.3,0.2-0.8,0.3-1,0.6c-1,1.4-2,2.8-2.9,4.3c-1.7,2.9-3.4,5.9-5.1,8.8c-0.4,0.7-0.2,1,0.5,1.1c1.6,0.2,2.5,1.7,3.8,2.4
		c0.2,0.1,0.2,0.4,0.3,0.6c-0.8,0.1-1.4,0.2-2.1,0.3c-0.8,0.2-0.9,0.7-0.6,1.3c0.2,0.5,0.6,1,0.7,1.5c0.1,0.7,0,1.5,0,2.4
		c1.1,0.1,2.2,0.3,3.4,0.4c3.7,0.3,7.3,0.6,11,0.8c1.9,0.1,3.8-0.1,5.6-0.2c1.2-0.1,2.5-0.3,3.7-0.5c0.5-0.1,1-0.4,1.5-0.5
		c0.4-0.1,0.9-0.2,1.3-0.2c0.9,0,1.7-0.2,2.4-0.8c0.3-0.2,1-0.1,1.3,0.1c0.3,0.1,0.5,0.7,0.5,1c0,0.5,0,0.8,0.6,0.8
		c1.5-0.1,2.3,0.9,3,2c0.5,0.8,0.8,1.6,1.2,2.4c0.1,0.2,0.2,0.3,0.3,0.6c1.5-2.3,3-4.3,4.3-6.3c1.3-2.1,1.8-4.4,1.9-6.9
		c0-0.5,0-1,0.2-1.5c0.1,1.2,0.1,2.5,0.2,3.7c0.2,0,0.4,0.1,0.6,0.1c0.8,0.1,1.2,0.5,0.8,1.3c-0.6,1.4-1.3,2.8-2,4.1
		c-0.4,0.8-0.6,1.5-0.4,2.4c0.4,2.4,0.3,4.7-0.5,7c-0.2,0.6-0.4,1.2-0.6,1.9c-0.1,0.5-0.5,0.8-0.8,1.1c-0.5,0.6-0.6,1.5-0.9,2.3
		c0,0.1,0.1,0.2,0.1,0.3c-0.1,1.7,0.4,2.9,2.4,2.9c0.2,0,0.5,0.1,0.7,0.3c1.4,1.2,2.9,0.9,4.6,0.5c2.8-0.6,5.6-1,8.4-1.5
		c1.3-0.2,2.6-0.5,4-0.6c1.3-0.1,2.6,0,3.9,0c0.7,0,1.4-0.2,2.1-0.4c0.9-0.3,1.4-0.1,2.1,0.7c1,1.2,2.5,1.9,3.8,2.9
		c0.1-0.1,0.1-0.1,0.2-0.2c-0.1-0.3-0.3-0.7-0.3-1c0-0.4,0.2-0.8,0.3-1.2c0.4,0.1,0.9,0.2,1.1,0.5c0.4,0.7,0.7,1.4,0.9,2.2
		c0.9,2.8,1.8,5.6,2.7,8.4c0.1,0.3,0,0.6,0.1,0.9c0.2,0.8,0.5,1.5,0.7,2.3c0.1,0.4,0.4,0.8,0.4,1.3c0.1,2.1,0,4.3,0.1,6.4
		c0.2,3.7-0.8,7.4-0.9,11.1c0,2-0.4,3.9-0.5,5.9c-0.1,2.3,0.1,4.5-0.1,6.8c-0.2,3-0.5,6.1-1.2,9c-0.5,1.9-1.6,3.6-2.7,5.3
		c-0.9,1.4-2.2,2.6-2.9,4.1c-1.5,3.2-2.8,6.4-3.9,9.7c-0.5,1.4-0.2,3.2-0.2,4.7c0,0.5,0.1,1,0,1.4c0,0.3-0.3,0.6-0.5,0.9
		c-0.2-0.3-0.6-0.5-0.7-0.9c-0.2-0.7-0.2-1.5-0.2-2.3c-0.1,0-0.2,0-0.3-0.1c-0.2,0.9-0.6,1.7-0.7,2.6c-0.4,3.6-0.4,7.2,0.6,10.8
		c0.5,1.7,1.3,3.3,2,4.9c0.7,1.5,1.5,2.9,2.3,4.4c0.1,0.2,0.3,0.3,0.5,0.3c1.1,0.3,2.2,0.6,3.3,1c0.3,0.1,0.6,0.3,1,0.4
		c0,0.1-0.1,0.2-0.1,0.3c-0.6-0.1-1.3-0.3-1.9-0.4c-3.4-0.8-6.9-1.5-10.3-2.5c-3.1-1-6.1-2.6-9.2-3.7c-1.8-0.7-3.8-1-5.7-1.5
		c-3.4-1-6.8-2-10.1-3c-0.3-0.1-0.5-0.1-0.9,0c0.2,0.3,0.4,0.7,0.7,0.7c1.3,0.2,2.2,1.2,3.2,1.9c2,1.3,4.1,2,6.3,2.4
		c3.6,0.7,7.1,1.9,10.4,3.4c1.8,0.8,3.5,1.9,5.2,3.1c1.3,0.9,2.3,2.2,2.4,3.9c0.1,1.9-1.1,3.2-2.4,4.3c-2.7,2.3-6,3.4-9.2,4.7
		c-0.1,0-0.1,0.1-0.5,0.3c0.3,0.1,0.4,0.1,0.5,0.1c0.1,0.1,0.2,0.1,0.5,0.4c-0.5,0-0.8,0.2-1,0.1c-1.1-0.7-2.1-0.1-3.1,0.1
		c-4.2,0.9-8.4,2-12.7,2.8c-3.6,0.6-7.3,0.8-10.9,1.2c-1.1,0.1-2.1,0.3-3.2,0.4c-0.9,0.1-1.9,0.1-2.8,0.2c-2.2,0.1-4.4,0.2-6.6,0.2
		c-4.1,0.1-8.3,0.2-12.4,0.1c-3.8-0.1-7.6-0.3-11.3-0.6c-2.8-0.2-5.7-0.4-8.5-0.8c-2.4-0.3-4.9-0.6-7.3-1.1
		c-4.4-0.9-8.9-1.8-13.3-2.9c-3.9-1-7.6-2.4-10.8-4.8c-1.5-1.1-2.9-2.5-2.9-4.7c0-1.2,0.6-2.2,1.4-3c0.9-0.9,1.9-1.7,2.9-2.5
		c-1-1.2-2.2,0-3.3,0c-0.4-0.9-0.5-0.3,1-2.7c0.6-0.9,1.4-1.3,2.4-1.7c-1.5-0.8-3.5-0.2-4.5,1.2c-0.5-0.5-0.6-1,0-1.5
		c1.3-1.1,2.8-1.3,4.4-1.1c0.3,0,0.6,0.1,0.9,0.2c1.1,0.2,1.6,1.5,1.1,2.5c-0.4,0.8-0.7,1.7-1.1,2.7c0.5-0.2,0.9-0.2,1.2-0.4
		c3.2-1.6,6.6-2.5,10.2-3.2c3-0.6,6-1.3,9-2c3.9-0.8,7.8-1.6,11.8-1.9c2.9-0.2,5.9-0.1,8.6-0.8c3.1-0.9,6.2-0.5,9.3-0.6
		c0.9,0,1.9,0.2,2.8,0.2c0-0.1,0.1-0.2,0.1-0.2c-0.4-0.2-0.8-0.5-1.3-0.6c-2.2-0.8-4.2-2-5.9-3.5c-0.8-0.8-1.3-1.9-1.9-2.8
		c-2-3-4.1-5.8-7.3-7.7c-0.7-0.4-0.7-1-0.3-1.6c0.1-0.2,0.1-0.7-0.1-0.8c-1.5-0.7-1.6-2.4-2.4-3.6c-0.5-0.7-1-1.5-0.4-2.5
		c0.2-0.3,0.1-0.9,0-1.3c-0.2-1.2-0.4-2.4-0.5-3.6c-0.1-0.6-0.4-0.9-1-0.9c-3.4,0.3-6.9,0.1-10.3,0.9c-1.1,0.3-2.2,0-3.5,0
		c0,0.2,0,0.4,0,0.6c0,0.9,0.1,1.9,0.1,2.8c0.1,2.2,0.1,4.4,0.2,6.6c0,0.7,0.4,1,1.2,1.2c2.9,0.9,5.8,2,8.1,4.1
		c2,1.8,2.6,4.2,0.2,6.3c-2.3,2.1-5,3.3-7.8,4.2c-2.6,0.8-5.3,1.5-8.1,2c-2.9,0.6-5.8,0.9-8.7,1.3c-6.8,0.9-13.7,0.9-20.6,0.7
		c-3.2-0.1-6.3-0.4-9.5-0.7c-3.2-0.4-6.4-0.7-9.5-1.4c-3.4-0.7-6.7-1.7-10-2.9c-2-0.7-3.9-1.8-5.4-3.3c-2.2-2.3-1.8-4,0.3-6.1
		c1.8-1.7,4-2.7,6.3-3.4c3.1-1,6.3-2,9.5-2.6c3.4-0.7,6.9-1.1,10.3-1.4c4.2-0.4,8.5-0.5,12.7-0.8c0.5,0,1,0.1,1.5,0.1
		c1.2,0.1,2.5-1.3,2.3-2.6c0-0.3,0.2-0.8,0.4-1c2.2-1.7,4.4-3.4,6.7-5c1.6-1.1,3.4-2,5.1-3c1.4-0.8,2.6-1.9,3.5-3.3
		c0.4-0.6,0.8-1,1.5-0.3c1.2-1.2,2.5-2.3,3.1-3.9c-0.2-0.1-0.2-0.2-0.2-0.2c-0.3-0.2-0.7-0.3-1-0.5c0.3-0.3,0.6-0.7,0.9-0.8
		c0.8-0.2,1.7-0.2,2.5-0.4c1.8-0.5,3.7-1,5.5-1.5c3.2-0.8,6.5-1.5,9.7-2.3c0.5-0.1,1-0.2,1.5-0.4c0.5-0.2,0.9-0.5,0.7-1.3
		c-0.3-1.3-0.5-2.7-0.6-4c-0.1-0.8-0.4-1.1-1.4-1.3c0-1.9,0-3.8,0-5.7c-0.1-1.6-0.2-3.2-0.4-4.7c0-0.1,0-0.3-0.1-0.3
		c-1-0.6-0.5-1.5-0.4-2.3c0.1-0.7,0.1-1.4,0.1-2.1c-0.1,0-0.1-0.6-0.2-0.7C223.9,75.5,224.1,72.2,226.9,70.4z M301.1,110.1
		c0.1,0.1,0.2,0.2,0.2,0.2c-0.1,0.2-0.1,0.4-0.2,0.5c-0.9,0.9-1.8,1.9-2.8,2.7c-1.2,1.1-2.5,2.1-3.7,3.2c-1,0.9-1.9,1.9-2.9,2.7
		c-0.6,0.5-1.4,0.8-2,1.3c-2.2,1.9-4.3,3.7-6.4,5.7c-1.3,1.2-2.3,2.7-3.6,3.9c-1.8,1.8-3.8,3.4-5.6,5.1c-0.6,0.5-1.2,1-1.8,1.6
		c1.6,1.1,2.8,2.4,4.6,2.9c1.9,0.5,3.8,1.2,5.7,1.8c3,0.9,5.9,2,8.9,2.7c3.7,0.9,7.3,2.2,10.7,3.8c2.3,1.1,4.9,1.9,7.3,2.9
		c0.5,0.2,1.1,0.4,1.8,0.7c-0.3-1-0.4-1.7-0.8-2.3c-1.7-2.4-3.2-5-3.6-8c-0.3-2.5-0.3-5-0.5-7.5c0-0.4,0.1-0.9,0.3-1.1
		c0.8-0.5,0.6-1.2,0.6-1.8c0-0.6-0.1-1.2,0-1.7c0.1-0.7,0.1-1.7,0.6-2c0.7-0.5,0.7-1.2,0.9-1.9c0.2-0.6,0.2-1.2,0.5-1.7
		c0.9-2.1,1.7-4.1,2.7-6.1c0.7-1.5,1.4-3.1,2.4-4.4c1.4-2,2.4-4.1,2.9-6.4c0.5-2.2,1-4.4,1.5-6.6c0.2-1,0.2-1.9,0.3-2.9
		c-0.1,0-0.2-0.1-0.3-0.1c-2,3.7-3.8,7.5-6.3,10.8c-0.1-0.1-0.3-0.2-0.4-0.2c1.4-3.2,2.9-6.4,4.3-9.6c0.6-1.3,1.5-2.5,1.9-3.9
		c0.6-2.2,1.1-4.5,1.4-6.8c0.4-3.7,0.7-7.4,0.3-11.1c0-0.4,0.3-0.9,0.4-1.3c0.2-0.5,0.5-0.9,0.5-1.4c0.1-2.8-0.5-5.6-0.9-8.4
		c-0.5-3.3-1.8-6.2-3.9-8.7c-0.5-0.6-1.3-1-2-1.4c-0.1,0.1-0.1,0.1-0.2,0.2c0.1,0.6,0.3,1.1,0.4,1.8c-0.3-0.1-0.5-0.1-0.6-0.2
		c-1.2-0.9-2.4-1.9-3.6-2.8c-0.2-0.2-0.4-0.4-0.7-0.4c-0.8,0-1.7-0.1-2.5,0.1c-2.6,0.5-5.1,1.1-7.7,1.7c-0.9,0.2-1.7,0.1-2.5-0.5
		c-0.6-0.5-1.3-0.7-2,0c0.5,0.3,0.9,0.5,1.6,0.9c-0.4,0.2-0.6,0.3-0.9,0.3c-1.1,0-2.3,0-3.4,0c-0.5,0-1.1,0.2-1.3,0.5
		c-1.4,2.3-2.7,4.6-4.1,6.9c-2.2,3.6-5.3,6.4-8.8,8.6c-1,0.6-2.2,1.1-3.1,1.8c-2.2,1.6-4.2,3.3-6.8,4.2c-1.7,0.6-2.9,1.5-3.2,3.5
		c1,0,2,0.2,2.9,0c2.8-0.6,5.4-1.8,7.9-3.1c1.2-0.6,2.4-1.3,3.5-2.1c2.2-1.6,4.4-3.3,6.6-4.9c0.4-0.3,0.8-0.7,0.9-1.1
		c0.2-1.3,1.3-2.1,1.8-3.1c0.3-0.5,0.7-1,1.4-0.6c0.6,0.4,0.5,1,0.2,1.5c-0.5,0.7-1.1,1.3-1.6,2c-1.2,1.6-2.3,3.4-4.1,4.5
		c-1.1,0.7-2.2,1.6-3.2,2.3c-1.6,1.1-3.1,2.3-4.9,3.2c-2.2,1.1-4.6,2-7,2.9c-2.8,1.1-5.5,2.3-8.4,2.9c-2.6,0.6-5.3,1-7.9,2
		c-0.6,0.2-1.2,0.5-1.1,1.1c0.1,0.6,0.4,1.3,0.8,1.6c1.3,1,2.7,1.9,4.1,2.8c0.2,0.1,0.4,0.2,0.7,0.3c1.4,0.5,2.9,1,4.3,1.7
		c2,0.9,3.9,1.9,5.8,3c1.7,0.9,3.4,1.9,5.1,2.9c0.3,0.2,0.6,0.5,0.6,0.8c0.1,1,0.6,1.1,1.4,0.8c1.5-0.5,3-1,4.5-1.6
		c0.7-0.2,1.4-0.5,2.1-0.8c0.1,0.1,0.1,0.2,0.2,0.3c-0.9,0.6-1.8,1.3-2.7,1.7c-1,0.5-2,0.8-3.1,1.2c-0.6,0.2-1,0.6-0.8,1.3
		c0.2,0.7,0.8,0.4,1.3,0.4c0.2,0,0.5-0.3,0.7-0.3c0.4,0,1,0.1,1.3,0.3c0.4,0.3,0.6,0.3,1,0c2.6-2.4,5.3-4.6,8.5-6.2
		c2.3-1.1,4.6-2.4,6.7-3.8c3.1-2,6.1-4.3,9.2-6.4c2.4-1.7,5-3.3,7.4-4.9c0.3-0.2,0.6-0.8,0.6-1.1c-0.1-0.8,0.2-0.9,0.9-1
		c1.7-0.3,3.2-1.6,5.1-1.5c0.4,0,0.8-0.3,1,0.2c0.2,0.5-0.2,0.7-0.7,0.8c-0.9,0.2-1.6,0.4-1.4,1.6c0,0.2-0.2,0.6-0.4,0.8
		c-0.9,1.1-1.9,2.3-2.9,3.4c-2,2.5-4,5-6.1,7.4c-2,2.4-4.2,4.7-6.1,7.2c-2.6,3.3-5,6.8-7.4,10.3c-1,1.4-1.7,3.2-3.6,3.8
		c-0.1,0-0.1,0.1-0.1,0.1c-0.5,0.6-1.2,0.7-1.9,0.3c-1.2-0.8-2.4-1.7-3.7-2.5c-0.4-0.3-0.9-0.7-1.2-0.6c-1.6,0.4-3.2,0.8-4.5,1.9
		c-1.1,1-2.4,1.7-3.7,2.5c-0.3,0.2-0.8,0.2-1.4,0.3c0.9-1.2,1.6-2.1,2.4-3.1c-0.1-0.1-0.2-0.2-0.2-0.3c-0.9,0.2-1.8,0.4-2.7,0.6
		c-4.1,1.2-8.2,2-12.4,2.4c-0.2,0-0.5,0.1-0.6,0.3c-0.1,0.2,0.1,0.5,0.2,0.7c0.6,0.7,1.1,1.5,1.8,2.2c1.3,1.4,2.2,3.3,4.4,3.7
		c0.4,0.1,0.9,0.7,0.3,1.3c-0.1,0.2-0.3,0.5-0.2,0.7c0.9,1.7,1.9,3.3,2.9,5c0.1,0.1,0.3,0.2,0.5,0.2c2-0.5,3.9-1.2,5.6-2.6
		c2.2-1.9,4.6-3.6,7-5.4c2.6-2,5.3-4,7.9-6.1c2.3-1.8,4.6-3.7,7-5.5c0.3-0.2,0.8-0.2,1.1-0.4c0.5-0.2,1.1-0.3,1.6-0.5
		C300.2,111,300.6,110.5,301.1,110.1z M257.2,99.4c-1-1.1-1.8-2.1-2.7-3.1c-0.4-0.5-0.9-0.9-1.3-1.3c-0.7-0.5-1.4-1-2.1-1.5
		c-1.4-1.2-2.9-1.8-4.8-1c-0.7,0.3-1.5,0.4-2.1,0.7c-0.7,0.3-1.4,0.7-2,1.2c-0.3,0.2-0.4,0.7-0.6,1c-0.1,0.2-0.2,0.4-0.4,0.5
		c-1.9,1.3-4.2,1.2-6.3,1.7c-2,0.5-4.1,0.8-6.1,1.4c-1.4,0.4-2.7,1.1-4.2,1.5c-3,0.7-6,1.3-9,2c-1.7,0.4-3.5,1-5.2,1.3
		c-1,0.2-1.9,0.2-2.1,1.4c0,0.1-0.2,0.2-0.3,0.3c-0.7,0.7-1.4,1.4-2.1,2.2c-1.5,1.8-3.2,3.3-5.1,4.7c-2.3,1.7-4.6,3.3-7.3,4.5
		c-1.1,0.5-2.1,1.3-3.2,2c-0.6,0.4-0.8,0.9-0.5,1.6c0.1,0.3,0.2,0.7,0.1,1c-0.2,0.7-0.4,1.5-0.7,2.2c-1.2,2.8-2.6,5.4-4.6,7.6
		c-1.3,1.5-2.4,3.2-3.5,4.8c-0.2,0.2-0.2,0.6-0.3,0.9c0.1,0.1,0.2,0.1,0.3,0.2c0.3-0.3,0.7-0.6,1-0.8c0.3-0.2,0.7-0.3,1-0.4
		c0.4-0.1,0.8-0.1,1.1-0.4c0.4-0.3,0.6-0.8,1-1.2c1.1-1.3,2.4-2.4,3.3-3.8c1.4-2.1,2.4-4.5,3.6-6.7c0.2-0.3,0.5-0.7,0.8-0.8
		c2.2-0.6,4.5-1,6.6-2c1.8-0.8,3.5-1.6,5.2-2.5c1.2-0.7,2.2-1.6,3.3-2.4c0.2-0.1,0.3-0.4,0.3-0.6c0.3-1.3,0.5-2.5,0.8-3.8
		c0.1-0.4,0.6-0.9,1-0.9c0.6-0.1,0.7,0.5,0.7,1c-0.2,3.6-1.5,5.8-4.7,7.3c-0.8,0.4-1.9,0.7-2,1.9c0,0.2-0.4,0.5-0.7,0.5
		c-0.6,0.2-1.2,0.2-1.8,0.4c-0.7,0.2-1.4,0.5-2.1,0.8c1.4,0.3,2.6,0.7,3.9,0.9c1.8,0.2,2.8,1.5,3.7,2.9c0.1,0.2,0.3,0.3,0.4,0.5
		c0.5,0.4,1.1,0.7,1.6,1.2c0.6,0.5,1,1.3,1.7,1.6c1,0.4,2.1,0.5,3.2,0.6c0.2,0,0.5-0.2,0.6-0.3c0-0.2-0.1-0.6-0.2-0.7
		c-0.9-0.9-1.8-1.7-2.4-2.3c0.3-4.1,0.6-7.9,0.9-11.6c0.3-0.1,0.7-0.2,0.8-0.5c0.3-1,1.2-1,1.9-1.2c3.6-0.7,7.1-1.2,10.8-1
		c0.5,0,1.1-0.3,1.6-0.3c0.9-0.1,1.8-0.3,2.7-0.3c1.4,0.1,2.9,0.4,4.3,0.4c1.9,0.1,3.8,0,5.7,0c0.4,0,0.8,0,1.1-0.1
		c1-0.2,2-0.6,3-0.8c2-0.5,4-0.8,6-1.3c2.5-0.6,4.9-1.4,7.5-1.4c0.7,0,1.4,0.1,2.1,0.2c2.1,0.1,3.8-1,5.7-1.6c0.5-0.2,1-0.5,1.7-0.8
		c-0.3-0.3-0.5-0.6-0.7-0.7c-1.4-1-2.9-2-4.3-3c-1.7-1.2-3.6-1.7-5.6-1.3c-0.7,0.1-1.5,0.1-2.2,0.1c-0.3,0-0.6-0.4-0.9-0.6
		c0.3-0.3,0.5-0.7,0.8-0.9C255.5,100,256.4,99.7,257.2,99.4z M274.1,153.7c0.2,3.2,0.6,6.4,0.6,9.5c0,2.7,1.1,4.9,2.4,7
		c0.3,0.5,0.8,0.9,1.4,0.6c0.7-0.3,0.8-0.9,0.6-1.6c-0.1-0.3-0.3-0.5-0.3-0.8c-0.3-1.8-0.4-3.7-0.8-5.5c-0.6-2.9-0.2-5.8,0.1-8.7
		c0-0.2,0.3-0.6,0.5-0.6c0.3,0,0.8,0.1,1,0.4c0.5,0.8,1,1.7,1.4,2.5c0.9,2,1.7,4.1,2.5,6.1c0.9,2.6,2.6,4.6,4.9,6.1
		c0.4,0.2,1.1,0.1,1.5-0.1c0.2-0.1,0.4-0.9,0.2-1.2c-0.8-1.2-1.3-2.4-1.8-3.8c-0.6-1.7-1.6-3.3-2.4-5c-0.4-0.9-0.6-2-1-3.1
		c0.5,0.2,0.7,0.2,0.8,0.3c1.9,1.2,3.8,2.4,5.6,3.7c2.2,1.6,4.5,2.6,7.4,2.5c1.3-0.1,2.1-0.6,2.7-1.7c-1.6-0.9-3.1-1.8-4.6-2.7
		c-2-1.1-4.1-2.2-6.1-3.4c-0.9-0.5-1.8-1-2.7-1.5c-1.3-0.8-2.7-1.6-3.3-3.2c-0.1-0.3-0.4-0.6-0.7-0.8c-0.7-0.5-1.5-0.8-2.2-1.3
		c-1.9-1.2-3.8-2.4-5.5-3.8c-2.3-1.8-4.5-3.7-6.5-5.8c-1-1-2.2-2-2.1-3.7c0-0.1-0.2-0.2-0.3-0.4c-1.5-2.4-3.8-3.9-6-5.6
		c-0.3-0.2-0.7-0.3-1-0.3c-1.4,0.3-2.9,0.5-4.3,1c-2.1,0.7-4.1,1.6-6.1,2.6c-0.8,0.4-1.5,1.2-2.2,1.8c1.2,0.6,2.3,1,3.2,1.7
		c2,1.6,3.9,3.3,5.8,5c1,0.9,1.9,1.7,2.8,2.7c1.2,1.2,1.2,2.9,1.6,4.4c0.1,0.4,0.3,0.9,0.6,1.2c1.3,1.2,2.6,2.3,3.9,3.4
		c0.7,0.6,1.4,1.2,1.7,2c0.3,0.9,0.3,2.1,0.3,3.1c-0.1,3.8-0.3,7.5-0.4,11.2c0,0.4,0.4,0.8,0.6,1.1c0.5-0.3,1.2-0.5,1.3-0.8
		c0.7-2.9,1.3-5.9,1.9-8.8c0.4-1.9,0.8-3.9,1.1-5.8C273,153.7,273.5,153.7,274.1,153.7z M248.7,87.6c0.4-0.3,0.8-0.5,1.2-0.8
		c0.2-0.1,0.4-0.4,0.6-0.4c1.3-0.3,2.5-0.6,3.8-0.9c1.8-0.4,3.6-0.8,5.3-1.2c0.3-0.1,0.5-0.3,0.7-0.5c0-0.1,0-0.2-0.1-0.3
		c-0.8-0.1-1.6,0-2.2-0.3c-0.6-0.3-1-1.1-1.5-1.7c0.8-0.2,1.3-0.3,1.9-0.4c-0.5-0.5-0.9-0.8-1.4-1.1c-2.6-1.6-4.4-4-6.1-6.4
		c-0.4-0.6-0.8-1.2-1.6-1.3c-0.7-0.1-1.4-0.3-2-0.4c-1.3-0.3-2.6-0.5-3.9-0.8c-0.6-0.1-1-0.5-0.9-1.2c0.2-0.7,0.6-1,1.4-0.9
		c0.3,0.1,0.6,0.1,0.8,0.2c1.7,0.7,3.5,1.4,5.4,1c0-0.1,0-0.3,0-0.5c-0.4-1.1-0.7-2.3-1.1-3.4c-0.3-0.8-1.2-0.9-1.9-0.4
		c-0.4,0.2-0.8,0.4-1.1,0.5c-0.1-0.7-0.1-1.3-0.3-1.7c-0.4-0.7-1.2-0.5-1.8-0.3c-3.3,1.1-6.6,2.3-9.9,3.4c-0.7,0.2-1.6,0.3-2.1,0.8
		c-1.2,1.1-2.3,2.4-3.4,3.7c-0.3,0.3-0.5,0.7-0.8,1c-1,0.8-1.5,1.7-1.3,2.9c0.3,0.1,0.5,0.2,0.7,0.3c1.1,0.2,1,0.7,0.6,1.5
		c-0.3,0.5-0.4,1.2-0.3,1.8c0.2,2.2,0.4,4.4,0.7,6.6c0.3,1.7,0.6,3.4,1.1,5c0.4,1.3,1,2.6,1.6,3.8c0.1,0.3,0.6,0.6,0.8,0.5
		c1.2-0.4,2.3-0.6,3.5-0.6c1.3,0,2.7-0.7,4-1.1c0.9-0.3,1.7-0.7,2.5-1.1c0.8-0.4,1.7-0.6,1.5-1.8c0-0.1,0.1-0.3,0.2-0.4
		c0.6-0.5,1.3-1,2-1.5c0.3-0.3,0.9-0.5,1-0.8c0.3-1.1,0.6-2.2,0.7-3.3c0.1-0.9-0.1-1.9-0.1-2.8c0-0.3,0.1-0.7,0.3-1
		c0.1-0.1,0.7-0.1,0.8,0c0.2,0.3,0.2,0.7,0.2,1.1c0,0.4-0.2,0.9-0.1,1.3C248.1,85,248.4,86.2,248.7,87.6z M285.6,54.8
		c0.2,1.2,0.4,2.2,0.5,3.2c0,0.2-0.1,0.5-0.3,0.6c-0.1,0.1-0.5,0-0.5-0.2c-0.1-0.2-0.1-0.5-0.2-0.8c-0.2-0.7-0.3-1.5-0.7-2
		c-0.8-1.1-1.3-2.2-1.4-3.5c0-0.6-0.1-1.2-0.2-1.8c-0.1-0.8-0.8-1.2-1.7-1.1c-0.4,0-1-0.1-1.1-0.4c-0.2-0.6,0.3-0.6,0.8-0.7
		c0.3-0.1,0.6-0.2,0.8-0.4c0.6-0.5,1.2-1,1.8-1.5c0.3-0.3,0.8-0.5,0.9-0.9c0.7-1.8,1.4-3.7,1.9-5.6c0.2-0.7,0-1.4,0-2.1
		c-0.7,0.4-1.2,0.7-0.9,1.5c0.1,0.3-0.2,0.8-0.3,1.2c-0.2,0.7-0.6,1.3-0.8,2c-0.1,0.5-0.3,0.8-0.9,0.7c-0.1,0-0.3,0-0.4,0.1
		c-0.9,0.7-1,1.7-0.3,2.5c-0.7,0.5-1.6,0.4-1.6-0.1c-0.1-0.7-0.1-1.4,0.1-2c0.2-0.5,0.1-0.9-0.1-1.3c-0.5-0.9-0.9-1.9-1.4-2.8
		c-0.2-0.3-0.5-0.5-0.8-0.7c-0.2,0.3-0.5,0.6-0.6,0.9c-0.1,0.4,0,0.9,0,1.4c-0.1,0.7-0.2,1.6-0.6,2.1c-1.2,1.4-2.6,2.6-3.9,3.9
		c-0.9,0.9-1.9,1.8-2.8,2.8c-0.9,1-1.8,1.9-3.2,2.1c-0.5,0.1-1.1,0.2-1.6,0.4c-0.8,0.3-1.6,0.9-2.5,1.1c-2,0.4-4.1,0.6-6.2,0.8
		c-0.8,0.1-1.5,0.2-1.6,1.2c-0.1,0.6-0.4,1.1-0.7,1.8c-0.2-0.3-0.4-0.5-0.4-0.6c0-1.2,0-2.4,0.2-3.5c0.4-1.7,0-2.3-1.7-2.1
		c-1.2,0.1-2.4,0.1-3.6,0.2c-0.2,0-0.5,0.3-0.5,0.5c0.1,1,0.1,2.1,0.5,2.9c1.5,2.7,3.1,5.3,4.7,7.9c1.4,2.3,3,4.5,4.5,6.8
		c0.3,0.5,0.7,0.9,1.4,0.4c0.6-0.4,1.2-0.8,1.9-1.1c0.9-0.4,1.7-0.9,3.1-0.6c-0.4,0.4-0.6,0.6-0.8,0.7c-0.7,0.3-1.4,0.5-2,0.8
		c-0.2,0.1-0.4,0.4-0.5,0.6c1.2,0.8,2.5-0.7,3.5,0.6c0.1-0.3,0.4-0.7,0.4-0.8c-0.6-0.8,0.1-1.2,0.4-1.7c0.4-0.5,0.8-1,1.1-1.6
		c2.5-4.2,5.6-7.8,9-11.2c1.1-1,2.1-1.9,2.7-3.3c0.2-0.5,0.5-1,0.7-1.5c0.3-0.7,0.9-0.9,1.4-0.6c0.3,0.2,0.6,0.9,0.5,1.2
		c-0.3,1.2-0.8,2.4-1.4,3.5c-0.4,0.7-1,1.2-0.5,2c0.1,0.1,0,0.4-0.2,0.5c-1.5,1.1-2,3-3,4.5c-1.3,1.9-2.2,4-3.3,6
		c-1,1.8-2,3.7-3.1,5.5c-0.4,0.6-0.9,1.1-1.5,1.5c-0.4,0.3-1,0.6-1.5,0.8c-0.7,0.3-1.5,0.6-2.3,0.8c-0.7,0.2-1.3,0.2-2,0.3
		c-0.2,0-0.4,0-0.5-0.1c-0.8-0.6-1.6-1.3-2.3-2c-1-1.1-1.5-2.7-2.9-3.5c-0.2-0.1-0.3-0.3-0.4-0.4c-1.5-2.4-2.9-4.9-4.3-7.3
		c-0.5,0.8-1.4,0.9-2.5,0.3c0.3,0.9,0.6,1.6,1,2.2c0.5,1,0.9,2.1,1.6,2.9c0.7,0.7,0.9,1.1,0.3,1.9c0.8,1.1,2.1,1.3,3.2,1.7
		c0.4,0.1,1.3,0.2,0.5,1c-0.1,0.1,0,0.5,0.2,0.6c0.8,0.7,1.6,1.5,2.5,2.2c0.7,0.6,1.4,1.1,2.1,1.7c-0.1,0.1-0.1,0.2-0.2,0.4
		c-0.4-0.1-0.8-0.1-1.1-0.3c-0.8-0.6-1.5-1.3-2.4-1.8c-0.9-0.6-2-1-3-1.5c-0.1,0.1-0.2,0.2-0.3,0.3c0.6,0.8,1.1,1.6,1.9,2.2
		c1.2,1,2.6,1.9,4,2.9c0.6,0.5,1.2,0.5,1.8,0c0.5-0.4,1.1-0.8,1.6-1.1c3.1-2,6.2-4,9.2-6.2c2.2-1.5,4.3-3.1,5.9-5.4
		c0.3-0.5,0.8-0.8,1.5-0.4c0.2,0.1,0.8,0,0.9-0.2c1.1-1.3,2.1-2.7,3-4.1c0.4-0.5,0.7-1.1,1-1.7c-0.1-0.1-0.1-0.1-0.2-0.2
		c-1.2,0.3-2.3,0.7-3.5,1c-1.1,0.3-2.2,0.7-3.3,1c0-0.1-0.1-0.2-0.1-0.3c0.4-0.2,0.7-0.4,1.1-0.5c1.4-0.4,2.7-0.8,4.1-1.3
		c1.5-0.5,2.9-0.9,3.4-2.7c0.2-0.9,0.7-1.8,1.1-2.8C287.3,55.2,286.6,55,285.6,54.8z M253.8,46.3c0.7,0,1.4-0.1,2.1,0
		c3,0.8,6,1.6,9,2.5c1.1,0.3,1.9,0.2,2.7-0.5c0.3-0.3,0.8-0.5,1.2-0.8c0.8-0.6,1.6-1.1,2.3-1.8c1.1-1.2,2.2-2.4,3.2-3.7
		c0.9-1.2,2.4-2.2,1.1-4c-0.1-0.1,0-0.3,0-0.5c0.1-0.5,0.1-1,0.2-1.5c0.2-0.7-0.2-1-0.8-0.9c-1.5,0.2-3.1,0.4-4.6,0.7
		c-2.8,0.6-5.6,1.2-8.6,1c-1.1-0.1-2.2-0.1-3.3-0.2c-4.1-0.3-8.2-0.6-12.2-1c-0.8-0.1-1.5-0.1-1.9,0.9c-0.8,2-1.8,4-2.5,6
		c-0.5,1.4-0.6,3-0.8,4.5c-0.1,1,0.3,1.4,1.2,1C245.7,46.4,249.8,46.4,253.8,46.3z M260.2,122.9c0-0.1,0.1-0.3,0.1-0.4
		c-0.7-0.5-1.4-1.1-2.2-1.4c-3.5-1.2-7.1-2.4-10.7-3.4c-2.6-0.7-5.3-1.1-8-1.6c-2.2-0.4-4.4-0.8-6.6-1.1c-1.5-0.2-1.5-0.1-1.4,1.4
		c0,0.1,0,0.2,0.1,0.4c0.5,2.4,1.1,4.7,1.1,7.2c-0.3-0.3-0.6-0.7-0.9-1c-0.1,0.1-0.2,0.1-0.2,0.2c2.6,3.9,5.4,7.6,8.7,11
		c-0.1-3,0.9-5.6,2.8-8c-0.6,0-1.2,0-1.8,0c0.1-0.3,0.2-0.7,0.4-0.8c0.8-0.4,1.6-0.8,2.5-1c0.9-0.3,1.9-0.3,2.8-0.5
		c1.6-0.3,3.2-0.9,4.8-1c2.4-0.1,4.8,0.1,7.2,0.1C259.3,123.1,259.8,123,260.2,122.9z M184.5,129c1-1.4,2-2.8,2.9-4.1
		c0.3-0.5,0.7-1,0.9-1.5c0.1-0.3-0.1-0.6-0.1-1c-0.3,0-0.6,0-0.8,0.2c-1.3,0.8-2.6,1.7-3.9,2.5c-1.4,0.9-2.9,1.8-4.4,2.5
		c-0.7,0.3-1.5,0.3-2.3,0.5c-0.6,0.1-0.7,0.5-0.3,1c1.2,1.1,2.5,1.9,4.3,2c1.1,0,2.3-0.8,2.3-2c0-0.3,0.2-0.6,0.3-1
		C183.8,128.4,184.1,128.6,184.5,129z M285.6,149.4c0.1,0.2,0.2,0.4,0.4,0.5c1.9,1.3,3.7,2.8,5.7,3.9c2.6,1.4,5.3,2.1,7.8-0.3
		c0.3-0.3,0.6-0.8,0.5-1.1c-0.1-0.3-0.6-0.7-0.9-0.7c-1.2-0.1-2.4,0-3.6,0c-1.4-0.1-2.9,0-4.3-0.3
		C289.3,151,287.6,150.1,285.6,149.4z M178.1,132.9c0-0.2,0-0.3,0-0.5c-0.3-0.1-0.6-0.4-0.9-0.4c-3.8,0.1-7.7,0.2-11.5,0.4
		c-2.9,0.2-5.9,0.5-8.8,0.7c-1.7,0.1-3.5,0.2-5.2,0.4c-0.2,0-0.4,0.3-0.6,0.4c0,0.1,0.1,0.2,0.1,0.2c0.3,0,0.6,0,0.9,0
		c3-0.1,6-0.3,9-0.4c5-0.2,10-0.3,15-0.4C176.8,133.4,177.4,133.1,178.1,132.9z M208.8,157c0,0.1,0,0.1,0,0.2c0.3,0.1,0.7,0.2,1,0.2
		c4.4-0.1,8.8-0.2,13.3-0.4c1.7-0.1,3.4-0.1,5.1-0.2c3.6-0.3,7.2-0.6,10.8-1c0.5-0.1,1-0.4,1.5-0.6c0-0.1-0.1-0.2-0.1-0.3
		c-0.3-0.1-0.7-0.2-1-0.2c-2.1,0.2-4.1,0.4-6.1,0.5c-4.1,0.4-8.1,0.8-12.2,1.1c-2.7,0.2-5.5,0.3-8.2,0.4
		C211.4,156.8,210.1,156.9,208.8,157z M251.8,158.1c-0.1,0.4-0.3,0.7-0.2,0.9c0.4,0.6,0.7,1.2,1.3,1.6c2.5,2,4.9,4.2,7.1,6.6
		c0.2,0.2,0.6,0.3,0.9,0.4c0-0.3,0-0.7-0.2-1c-0.5-0.6-1-1.1-1.6-1.7c-1.9-2-3.7-4.1-5.6-6C253.2,158.6,252.5,158.5,251.8,158.1z
		 M247.9,147.9c-0.1,0-0.2,0-0.4,0.1c-0.8,0.5-0.9,2.5-0.1,3c0.2,0.1,0.8,0.1,0.9,0c0.4-0.6,0.8-1.3,0.9-2
		C249.3,148.4,248.8,147.9,247.9,147.9z M250.8,149.4c-0.2,0-0.4,0-0.6,0c-0.1,0.4-0.3,0.9-0.4,1.3c-0.1,1.1-0.3,2.1-0.3,3.2
		c0,0.4,0.3,0.7,0.4,1.1c0.2-0.3,0.6-0.6,0.7-1c0.2-0.9,0.3-1.7,0.4-2.6C251,150.8,250.9,150.1,250.8,149.4z M254.1,112.1
		c1.5-0.4,2.8-0.8,4.1-1.2c0.2-0.1,0.4-0.4,0.6-0.6c-0.3-0.1-0.6-0.4-0.8-0.3c-1.3,0.3-2.7,0.6-4,1c-0.3,0.1-0.4,0.4-0.7,0.6
		C253.6,111.8,253.9,111.9,254.1,112.1z M192.8,142.3c-0.1-0.1-0.1-0.3-0.1-0.4c-0.9-1.3-1.9-2.7-2.9-4c-0.2-0.3-0.6-0.3-1.1-0.6
		C188.9,138.8,191.6,141.9,192.8,142.3z M201.7,157.2c1,0.7,4.4,0.5,5.2,0C205.2,157.2,203.6,157.2,201.7,157.2z"/>
	<path class="st1" d="M136.5,140.3c1.4-0.5,2.5,0.3,3.6,0.8c3.6,1.7,7.1,3.6,10.6,5.4c2.5,1.3,5.1,2.5,7.6,3.8
		c2.8,1.5,5.5,3.1,8.3,4.5c5.6,2.8,11.2,5.4,16.8,8.1c3.7,1.7,7.4,3.4,11.2,5.1c3.1,1.4,6.3,2.7,9.4,4.1c3.9,1.7,7.7,3.5,11.5,5.2
		c2.8,1.3,5.7,2.5,8.5,3.8c4.4,2,8.7,4.1,13.1,6.1c0.6,0.3,1.4,0.1,2.2,0.2c2.1,0.3,3.9-1,6-1.1c1.4,0,2.7-0.8,4-1.3
		c1-0.3,1.9-0.7,2.9-0.9c0.7-0.1,1.4,0.2,2.3,0.3c-0.4,0.4-0.5,0.6-0.6,0.7c-1.1,0.6-2.4,1-3.3,1.8c-1,0.8-1.6,2-2.4,3
		c-0.7,1-1.3,2.1-2.1,2.9c-1.3,1.3-3,1.5-4.8,1.4c-1.3,0-2.1-0.7-2.6-1.9c-0.5-1.4-1.7-2.3-2.9-3.2c-2.3-1.7-5-2.7-7.6-3.7
		c-2.7-1.1-5.3-2.2-7.9-3.4c-4.8-2.1-9.6-4.3-14.5-6.5c-3.4-1.5-6.8-2.9-10.2-4.3c-3.5-1.5-7-3.1-10.5-4.7c-4.5-2.1-9-4.1-13.4-6.4
		c-4.6-2.4-9.2-4.9-13.7-7.4c-3.6-2-7.3-3.9-10.9-6c-2.4-1.4-4.8-2.9-7.2-4.3c-1.1-0.7-2.3-1.3-3.4-1.9
		C136.5,140.5,136.5,140.4,136.5,140.3z"/>
	<path class="st1" d="M329.9,157.2c0.6,0,1.2,0,1.7,0.1c0.2,0,0.4,0.1,0.4,0.2c1,1.5,0.9,3.2-0.4,4.4c-0.7,0.6-1.4,1.2-2.2,1.7
		c-1.7,0.9-3.4,1.9-5.1,2.6c-3.8,1.6-7.6,3.1-11.5,4.6c-2.1,0.8-4.3,1.3-6.5,1.9c-0.2,0.1-0.4,0.2-0.6,0.3c-2.9,1.8-6.2,2.1-9.4,2.8
		c-1.6,0.3-3.2,0.8-4.8,1.1c-1.5,0.3-3.1,0.4-4.6,0.6c-0.8,0.1-1.6,0.3-2.3,0.4c-2.4,0.5-4.7,1-7.1,1.5c-1,0.2-2,0.4-3,0.5
		c-0.5,0.1-1,0-1.1-0.6c-0.1-0.6,0.2-0.9,0.8-1.1c3.9-1.2,7.7-2.4,11.6-3.7c3.6-1.2,7.2-2.4,10.7-3.6c3.5-1.2,7-2.5,10.5-3.8
		c3.7-1.3,7.4-2.7,11.1-4.1c2.5-1,5-2,7.5-3c0.8-0.3,1.7-0.5,2.5-0.8C329.1,158.9,330.3,158.7,329.9,157.2z"/>
	<path class="st1" d="M254.9,14.8c0.1-2,1.4-2.4,2.8-2.6c0.3,0,0.6-0.2,0.7-0.4c1-1.2,2-1.2,3.2-0.2c1.1,0.9,2,1.8,2.4,3.1
		c0,0.1,0.1,0.2,0.3,0.3c1.4,0.5,1,1.6,1,2.7c-0.2-0.2-0.4-0.2-0.5-0.4c-0.9-1.8-2.8-2-4.2-3c-0.9-0.6-1.7-0.7-2.7-0.1
		c-0.6,0.4-1.4,0.5-2.1,0.6C255.5,15,255.2,14.9,254.9,14.8z"/>
	<path class="st1" d="M180.3,150.7c0.6-1.2,1.5-1.3,2.4-1.6c1.3-0.3,2.5,0.2,3.6,0.9c0.4,0.3,0.7,0.9,0.7,1.3c0,0.9-0.1,1.8-0.4,2.7
		c-0.4,0.9-2.3,1.4-3.3,1.1c-0.3-0.1-0.7-0.2-1-0.3c-0.2-0.1-0.5-0.3-0.7-0.5c-0.4-0.9-0.3-2.2,0.5-2.8c0.6-0.4,1.4-0.3,2.1-0.5
		c0.3-0.1,0.6-0.2,1.2-0.4C183.5,149.1,182,150.1,180.3,150.7z"/>
	<path class="st1" d="M261.5,32.8c0.2-0.2,0.4-0.6,0.6-0.7c1.7-0.8,3.2-2,5.3-2.1c1-0.1,1.8-0.9,2.8-1.3c0.3-0.1,0.5-0.3,0.8-0.4
		c0.4,1.3-0.6,1.7-1.2,2.1c-1,0.7-2,1.4-3.4,1.4c-0.7,0-1.4,0.5-2.1,0.7c-0.8,0.3-1.7,0.5-2.5,0.7C261.6,33.1,261.6,32.9,261.5,32.8
		z"/>
	<path class="st1" d="M231,141c-1.2-0.6-2.3-1-3.3-1.7c-0.3-0.2-0.4-1.3-0.2-1.7c0.4-0.5,1-0.1,1.5,0.2c0.7,0.5,1.5,0.8,2.2,1.3
		c0.3,0.2,0.6,0.7,0.6,1C231.8,140.4,231.3,140.7,231,141z"/>
	<path class="st1" d="M259,34.3c0.3-0.2,0.7-0.6,1-0.6c1.9,0,3.7,0.1,5.6,0.2c0.1,0,0.2,0.1,0.5,0.3c-2.4,0.8-4.6,0.9-6.9,0.4
		C259.1,34.5,259.1,34.4,259,34.3z"/>
	<path class="st1" d="M234.8,138.9c-1.2,0-2.4-0.7-2.6-1.5c-0.1-0.2-0.1-0.6,0-0.7c0.2-0.1,0.6-0.3,0.9-0.2c0.7,0.3,1.3,0.7,1.9,1.1
		c0.2,0.1,0.3,0.6,0.2,0.8C235.2,138.7,234.9,138.8,234.8,138.9z"/>
	<path class="st1" d="M252.7,32.8c-1.2,0.7-3.6,0.6-4.5-0.3C249.7,32.6,251.1,32.7,252.7,32.8z"/>
	<path class="st1" d="M267.1,7.1c0.7-0.5,1.5-0.6,2.1-0.1c0.1,0.1,0,0.6,0,0.9C268.5,7.7,267.7,7.9,267.1,7.1z"/>
	<path class="st1" d="M275.5,26.5c0.6,1,0.4,1.5-0.8,1.9C274.9,27.7,275.2,27.2,275.5,26.5z"/>
	<path class="st1" d="M273.7,12.1c-0.4-0.5-0.9-1-1.4-1.7c0.4,0,0.7-0.1,0.8,0.1c0.4,0.4,0.7,0.9,1,1.4
		C273.9,11.9,273.8,12,273.7,12.1z"/>
	<path class="st1" d="M275.6,21.3c-0.1,0-0.1,0-0.2-0.1c-0.1-0.4-0.2-0.8-0.3-1.2c0,0,0.3-0.1,0.3-0.1c0.2,0.4,0.3,0.9,0.4,1.3
		C275.8,21.2,275.7,21.3,275.6,21.3z"/>
	<path class="st0" d="M301.1,110.1c-0.5,0.4-1,0.9-1.5,1.2c-0.5,0.3-1,0.4-1.6,0.5c-0.4,0.1-0.8,0.1-1.1,0.4c-2.3,1.8-4.6,3.7-7,5.5
		c-2.6,2-5.2,4.1-7.9,6.1c-2.3,1.8-4.7,3.5-7,5.4c-1.7,1.4-3.5,2.2-5.6,2.6c-0.1,0-0.4-0.1-0.5-0.2c-1-1.6-1.9-3.3-2.9-5
		c-0.1-0.2,0-0.5,0.2-0.7c0.5-0.6,0.1-1.2-0.3-1.3c-2.2-0.4-3.1-2.3-4.4-3.7c-0.6-0.7-1.2-1.4-1.8-2.2c-0.1-0.2-0.3-0.5-0.2-0.7
		c0.1-0.2,0.4-0.3,0.6-0.3c4.2-0.4,8.4-1.2,12.4-2.4c0.9-0.3,1.8-0.4,2.7-0.6c0.1,0.1,0.2,0.2,0.2,0.3c-0.7,1-1.5,1.9-2.4,3.1
		c0.6-0.1,1.1-0.1,1.4-0.3c1.3-0.8,2.5-1.6,3.7-2.5c1.3-1.2,2.9-1.5,4.5-1.9c0.3-0.1,0.8,0.3,1.2,0.6c1.2,0.8,2.4,1.7,3.7,2.5
		c0.6,0.4,1.3,0.3,1.9-0.3c0,0,0.1-0.1,0.1-0.1c1.9-0.6,2.6-2.3,3.6-3.8c2.4-3.4,4.9-6.9,7.4-10.3c1.9-2.5,4.1-4.7,6.1-7.2
		c2.1-2.5,4-5,6.1-7.4c0.9-1.2,1.9-2.3,2.9-3.4c0.2-0.2,0.5-0.6,0.4-0.8c-0.2-1.2,0.5-1.5,1.4-1.6c0.5-0.1,0.9-0.2,0.7-0.8
		c-0.2-0.5-0.6-0.2-1-0.2c-1.9,0-3.3,1.2-5.1,1.5c-0.6,0.1-1,0.2-0.9,1c0.1,0.3-0.3,0.9-0.6,1.1c-2.4,1.7-5,3.3-7.4,4.9
		c-3.1,2.1-6,4.4-9.2,6.4c-2.2,1.4-4.4,2.7-6.7,3.8c-3.2,1.6-6,3.8-8.5,6.2c-0.4,0.4-0.6,0.4-1,0c-0.3-0.2-0.8-0.3-1.3-0.3
		c-0.2,0-0.5,0.3-0.7,0.3c-0.5,0-1.1,0.4-1.3-0.4c-0.2-0.7,0.2-1.1,0.8-1.3c1-0.4,2.1-0.7,3.1-1.2c0.9-0.5,1.8-1.2,2.7-1.7
		c-0.1-0.1-0.1-0.2-0.2-0.3c-0.7,0.3-1.4,0.5-2.1,0.8c-1.5,0.5-3,1.1-4.5,1.6c-0.7,0.2-1.3,0.2-1.4-0.8c0-0.3-0.3-0.6-0.6-0.8
		c-1.7-1-3.4-2-5.1-2.9c-1.9-1-3.8-2.1-5.8-3c-1.4-0.7-2.9-1.1-4.3-1.7c-0.2-0.1-0.5-0.2-0.7-0.3c-1.4-0.9-2.8-1.8-4.1-2.8
		c-0.4-0.3-0.7-1.1-0.8-1.6c-0.1-0.6,0.5-0.9,1.1-1.1c2.6-0.9,5.2-1.4,7.9-2c2.9-0.7,5.6-1.9,8.4-2.9c2.4-0.9,4.7-1.8,7-2.9
		c1.7-0.9,3.3-2.1,4.9-3.2c1.1-0.7,2.1-1.6,3.2-2.3c1.8-1.2,2.9-2.9,4.1-4.5c0.5-0.7,1.1-1.3,1.6-2c0.3-0.5,0.4-1.1-0.2-1.5
		c-0.7-0.4-1.1,0.1-1.4,0.6c-0.6,1.1-1.6,1.8-1.8,3.1c-0.1,0.4-0.5,0.8-0.9,1.1c-2.2,1.7-4.4,3.3-6.6,4.9c-1.1,0.8-2.3,1.5-3.5,2.1
		c-2.5,1.3-5.1,2.5-7.9,3.1c-0.9,0.2-1.9,0-2.9,0c0.3-2,1.5-2.9,3.2-3.5c2.6-0.9,4.7-2.6,6.8-4.2c0.9-0.7,2.1-1.1,3.1-1.8
		c3.6-2.2,6.6-5,8.8-8.6c1.4-2.3,2.7-4.6,4.1-6.9c0.2-0.3,0.9-0.5,1.3-0.5c1.1-0.1,2.3,0,3.4,0c0.2,0,0.4-0.2,0.9-0.3
		c-0.7-0.4-1.1-0.6-1.6-0.9c0.7-0.7,1.4-0.5,2,0c0.8,0.6,1.6,0.7,2.5,0.5c2.6-0.6,5.1-1.2,7.7-1.7c0.8-0.2,1.7-0.1,2.5-0.1
		c0.2,0,0.5,0.3,0.7,0.4c1.2,0.9,2.4,1.9,3.6,2.8c0.1,0.1,0.3,0.1,0.6,0.2c-0.2-0.7-0.3-1.2-0.4-1.8c0.1-0.1,0.1-0.1,0.2-0.2
		c0.7,0.5,1.5,0.8,2,1.4c2.1,2.5,3.4,5.4,3.9,8.7c0.4,2.8,1,5.5,0.9,8.4c0,0.5-0.3,0.9-0.5,1.4c-0.2,0.4-0.5,0.9-0.4,1.3
		c0.4,3.7,0.1,7.4-0.3,11.1c-0.2,2.3-0.7,4.6-1.4,6.8c-0.4,1.4-1.3,2.6-1.9,3.9c-1.5,3.2-2.9,6.4-4.3,9.6c0.1,0.1,0.3,0.2,0.4,0.2
		c2.5-3.3,4.3-7.1,6.3-10.8c0.1,0,0.2,0.1,0.3,0.1c-0.1,1-0.1,2-0.3,2.9c-0.4,2.2-1,4.4-1.5,6.6c-0.5,2.4-1.5,4.5-2.9,6.4
		c-0.9,1.4-1.6,2.9-2.4,4.4c-1,2-1.8,4.1-2.7,6.1c-0.2,0.5-0.3,1.2-0.5,1.7c-0.2,0.6-0.2,1.3-0.9,1.9c-0.5,0.3-0.5,1.3-0.6,2
		c-0.1,0.6,0,1.1,0,1.7c0,0.7,0.2,1.4-0.6,1.8c-0.2,0.1-0.3,0.7-0.3,1.1c0.1,2.5,0.2,5,0.5,7.5c0.3,3,1.8,5.6,3.6,8
		c0.4,0.6,0.5,1.3,0.8,2.3c-0.7-0.3-1.3-0.5-1.8-0.7c-2.4-1-4.9-1.8-7.3-2.9c-3.4-1.7-7-3-10.7-3.8c-3-0.7-6-1.8-8.9-2.7
		c-1.9-0.6-3.8-1.3-5.7-1.8c-1.9-0.5-3.1-1.8-4.6-2.9c0.7-0.6,1.2-1.1,1.8-1.6c1.9-1.7,3.8-3.3,5.6-5.1c1.3-1.2,2.3-2.7,3.6-3.9
		c2.1-2,4.2-3.8,6.4-5.7c0.6-0.5,1.4-0.8,2-1.3c1-0.9,1.9-1.8,2.9-2.7c1.2-1.1,2.5-2.1,3.7-3.2c1-0.9,1.9-1.8,2.8-2.7
		c0.1-0.1,0.1-0.3,0.2-0.5C301.3,110.3,301.2,110.2,301.1,110.1z M294.6,82.2c0.1,0.1,0.1,0.3,0.2,0.4c0.4-0.3,0.9-0.5,1-0.8
		c0.3-0.8-0.4-0.9-0.9-1.1c-0.2-0.1-0.5-0.2-0.7-0.3c-2.4-1.2-5-1.4-7.6-1.3c-1.4,0.1-3,0.9-4.2,1.8c-1.7,1.2-3.2,2.5-5.2,3.2
		c-0.2,0.1-0.4,0.2-0.5,0.4c-0.2,0.2-0.4,0.7-0.3,0.8c0.2,0.2,0.6,0.4,0.9,0.4c1.9-0.5,3.6-1.4,5.2-2.6c1.7-1.3,3.4-2,5.5-1
		c0.2,0.1,0.5,0.2,0.8,0.2C290.7,82.2,292.6,82.2,294.6,82.2z M295.2,126.7c0,0.1,0.1,0.1,0.1,0.2c0.3-0.1,0.7-0.1,0.9-0.3
		c0.6-0.5,1.2-1.1,1.8-1.7c1.5-1.6,2.9-3.2,4.4-4.8c1.8-2.1,3.7-4.2,5.5-6.2c0.4-0.4,1-0.8,0.5-1.4c-0.5-0.7-1.1,0.1-1.6,0.3
		c-0.1,0-0.1,0.1-0.2,0.2c-1.4,1.7-2.9,3.3-4.3,5c-1.8,2.2-3.5,4.5-5.3,6.8C296.5,125.3,295.9,126,295.2,126.7z M311.6,80.7
		c0.1,0.1,0.1,0.2,0.2,0.3c1.7-0.8,3.5-1.7,5.2-2.5c0-0.1-0.1-0.2-0.1-0.3C315.1,79.1,313.4,79.9,311.6,80.7z"/>
	<path class="st0" d="M257.2,99.4c-0.8,0.3-1.7,0.6-2.7,1.1c-0.3,0.2-0.5,0.6-0.8,0.9c0.3,0.2,0.6,0.6,0.9,0.6
		c0.7,0.1,1.5,0.1,2.2-0.1c2.1-0.4,3.9,0.1,5.6,1.3c1.4,1,2.9,2,4.3,3c0.2,0.2,0.4,0.4,0.7,0.7c-0.6,0.3-1.1,0.6-1.7,0.8
		c-1.9,0.7-3.6,1.7-5.7,1.6c-0.7,0-1.4-0.2-2.1-0.2c-2.6-0.1-5,0.8-7.5,1.4c-2,0.5-4,0.9-6,1.3c-1,0.2-2,0.5-3,0.8
		c-0.4,0.1-0.7,0.1-1.1,0.1c-1.9,0-3.8,0.1-5.7,0c-1.4-0.1-2.9-0.4-4.3-0.4c-0.9,0-1.8,0.2-2.7,0.3c-0.6,0.1-1.1,0.4-1.6,0.3
		c-3.6-0.2-7.2,0.4-10.8,1c-0.7,0.1-1.6,0.2-1.9,1.2c-0.1,0.2-0.5,0.3-0.8,0.5c-0.3,3.7-0.6,7.5-0.9,11.6c0.6,0.6,1.5,1.4,2.4,2.3
		c0.2,0.2,0.3,0.5,0.2,0.7c0,0.2-0.4,0.4-0.6,0.3c-1.1-0.2-2.2-0.2-3.2-0.6c-0.7-0.3-1.1-1.1-1.7-1.6c-0.5-0.4-1.1-0.8-1.6-1.2
		c-0.2-0.1-0.3-0.3-0.4-0.5c-0.9-1.4-1.9-2.6-3.7-2.9c-1.3-0.2-2.5-0.6-3.9-0.9c0.7-0.3,1.4-0.6,2.1-0.8c0.6-0.2,1.2-0.2,1.8-0.4
		c0.3-0.1,0.7-0.3,0.7-0.5c0.2-1.2,1.2-1.5,2-1.9c3.2-1.5,4.5-3.7,4.7-7.3c0-0.5-0.1-1.1-0.7-1c-0.4,0-0.8,0.5-1,0.9
		c-0.4,1.2-0.6,2.5-0.8,3.8c-0.1,0.2-0.2,0.5-0.3,0.6c-1.1,0.8-2.1,1.8-3.3,2.4c-1.7,0.9-3.4,1.7-5.2,2.5c-2.1,0.9-4.4,1.4-6.6,2
		c-0.3,0.1-0.6,0.5-0.8,0.8c-1.2,2.2-2.3,4.6-3.6,6.7c-0.9,1.4-2.2,2.5-3.3,3.8c-0.3,0.4-0.6,0.8-1,1.2c-0.3,0.2-0.7,0.2-1.1,0.4
		c-0.3,0.1-0.7,0.2-1,0.4c-0.4,0.2-0.7,0.6-1,0.8c-0.1-0.1-0.2-0.1-0.3-0.2c0.1-0.3,0.1-0.6,0.3-0.9c1.1-1.6,2.2-3.3,3.5-4.8
		c2-2.3,3.5-4.9,4.6-7.6c0.3-0.7,0.6-1.4,0.7-2.2c0.1-0.3,0-0.7-0.1-1c-0.3-0.7-0.1-1.2,0.5-1.6c1-0.7,2.1-1.5,3.2-2
		c2.6-1.2,5-2.7,7.3-4.5c1.8-1.4,3.6-2.9,5.1-4.7c0.6-0.8,1.4-1.5,2.1-2.2c0.1-0.1,0.3-0.2,0.3-0.3c0.2-1.2,1.2-1.2,2.1-1.4
		c1.8-0.4,3.5-0.9,5.2-1.3c3-0.7,6-1.3,9-2c1.4-0.4,2.7-1.1,4.2-1.5c2-0.5,4-0.9,6.1-1.4c2.1-0.5,4.4-0.4,6.3-1.7
		c0.2-0.1,0.3-0.3,0.4-0.5c0.2-0.3,0.3-0.8,0.6-1c0.6-0.5,1.3-0.9,2-1.2c0.7-0.3,1.5-0.4,2.1-0.7c1.8-0.8,3.3-0.2,4.8,1
		c0.7,0.5,1.4,1,2.1,1.5c0.5,0.4,0.9,0.8,1.3,1.3C255.4,97.3,256.2,98.3,257.2,99.4z"/>
	<path class="st0" d="M274.1,153.7c-0.6,0-1.1,0-1.8,0c-0.4,1.9-0.7,3.9-1.1,5.8c-0.6,3-1.2,5.9-1.9,8.8c-0.1,0.4-0.9,0.6-1.3,0.8
		c-0.2-0.4-0.6-0.8-0.6-1.1c0.1-3.8,0.3-7.5,0.4-11.2c0-1,0.1-2.2-0.3-3.1c-0.3-0.8-1.1-1.4-1.7-2c-1.3-1.2-2.6-2.2-3.9-3.4
		c-0.3-0.3-0.5-0.8-0.6-1.2c-0.4-1.5-0.4-3.2-1.6-4.4c-0.9-0.9-1.9-1.8-2.8-2.7c-1.9-1.7-3.8-3.4-5.8-5c-0.9-0.7-2-1.1-3.2-1.7
		c0.7-0.6,1.4-1.4,2.2-1.8c2-1,4-1.8,6.1-2.6c1.4-0.5,2.9-0.7,4.3-1c0.3-0.1,0.7,0.1,1,0.3c2.2,1.6,4.5,3.2,6,5.6
		c0.1,0.1,0.3,0.3,0.3,0.4c-0.1,1.7,1.2,2.7,2.1,3.7c2,2.1,4.3,4,6.5,5.8c1.7,1.4,3.6,2.6,5.5,3.8c0.7,0.5,1.5,0.9,2.2,1.3
		c0.3,0.2,0.6,0.5,0.7,0.8c0.6,1.6,2,2.4,3.3,3.2c0.9,0.5,1.8,1,2.7,1.5c2,1.1,4.1,2.2,6.1,3.4c1.5,0.9,3,1.8,4.6,2.7
		c-0.6,1.1-1.4,1.6-2.7,1.7c-2.8,0.2-5.1-0.9-7.4-2.5c-1.8-1.3-3.7-2.5-5.6-3.7c-0.2-0.1-0.4-0.2-0.8-0.3c0.4,1.2,0.6,2.2,1,3.1
		c0.8,1.7,1.7,3.3,2.4,5c0.5,1.3,1,2.6,1.8,3.8c0.2,0.3,0,1.1-0.2,1.2c-0.4,0.2-1.2,0.3-1.5,0.1c-2.3-1.5-3.9-3.5-4.9-6.1
		c-0.7-2.1-1.6-4.1-2.5-6.1c-0.4-0.9-0.9-1.7-1.4-2.5c-0.2-0.2-0.6-0.4-1-0.4c-0.2,0-0.5,0.4-0.5,0.6c-0.2,2.9-0.7,5.8-0.1,8.7
		c0.4,1.8,0.5,3.7,0.8,5.5c0,0.3,0.2,0.5,0.3,0.8c0.2,0.7,0.1,1.3-0.6,1.6c-0.6,0.3-1.1,0-1.4-0.6c-1.3-2.2-2.4-4.4-2.4-7
		C274.7,160.1,274.3,157,274.1,153.7z"/>
	<path class="st0" d="M248.7,87.6c-0.3-1.5-0.6-2.6-0.8-3.8c-0.1-0.4,0.1-0.9,0.1-1.3c0-0.4,0-0.8-0.2-1.1c-0.1-0.1-0.7-0.2-0.8,0
		c-0.2,0.3-0.3,0.7-0.3,1c0,1,0.2,1.9,0.1,2.8c-0.1,1.1-0.3,2.2-0.7,3.3c-0.1,0.3-0.6,0.5-1,0.8c-0.7,0.5-1.3,1-2,1.5
		c-0.1,0.1-0.2,0.3-0.2,0.4c0.2,1.2-0.8,1.4-1.5,1.8c-0.8,0.4-1.7,0.8-2.5,1.1c-1.3,0.4-2.7,1.1-4,1.1c-1.3,0-2.4,0.2-3.5,0.6
		c-0.2,0.1-0.7-0.2-0.8-0.5c-0.6-1.2-1.2-2.5-1.6-3.8c-0.5-1.6-0.8-3.3-1.1-5c-0.3-2.2-0.5-4.4-0.7-6.6c0-0.6,0-1.3,0.3-1.8
		c0.4-0.8,0.5-1.3-0.6-1.5c-0.2,0-0.5-0.2-0.7-0.3c-0.2-1.2,0.3-2.2,1.3-2.9c0.3-0.2,0.5-0.6,0.8-1c1.1-1.2,2.2-2.5,3.4-3.7
		c0.5-0.5,1.4-0.6,2.1-0.8c3.3-1.1,6.6-2.3,9.9-3.4c0.6-0.2,1.4-0.4,1.8,0.3c0.3,0.4,0.2,1,0.3,1.7c0.3-0.2,0.7-0.3,1.1-0.5
		c0.7-0.5,1.6-0.4,1.9,0.4c0.4,1.1,0.8,2.2,1.1,3.4c0.1,0.2,0,0.4,0,0.5c-2,0.4-3.7-0.2-5.4-1c-0.3-0.1-0.5-0.2-0.8-0.2
		c-0.7-0.1-1.2,0.2-1.4,0.9c-0.2,0.7,0.3,1,0.9,1.2c1.3,0.3,2.6,0.5,3.9,0.8c0.7,0.1,1.4,0.3,2,0.4c0.8,0.2,1.2,0.7,1.6,1.3
		c1.7,2.4,3.5,4.8,6.1,6.4c0.4,0.3,0.9,0.5,1.4,1.1c-0.5,0.1-1.1,0.2-1.9,0.4c0.5,0.6,0.9,1.4,1.5,1.7c0.6,0.3,1.5,0.2,2.2,0.3
		c0,0.1,0,0.2,0.1,0.3c-0.2,0.2-0.4,0.4-0.7,0.5c-1.8,0.4-3.6,0.8-5.3,1.2c-1.3,0.3-2.5,0.6-3.8,0.9c-0.2,0.1-0.4,0.3-0.6,0.4
		C249.5,87.1,249.1,87.4,248.7,87.6z"/>
	<path class="st0" d="M285.6,54.8c0.9,0.2,1.7,0.4,2.3,0.5c-0.4,1-0.9,1.8-1.1,2.8c-0.5,1.8-1.9,2.2-3.4,2.7
		c-1.4,0.4-2.7,0.8-4.1,1.3c-0.4,0.1-0.7,0.4-1.1,0.5c0,0.1,0.1,0.2,0.1,0.3c1.1-0.4,2.2-0.7,3.3-1c1.2-0.4,2.3-0.7,3.5-1
		c0.1,0.1,0.1,0.1,0.2,0.2c-0.3,0.6-0.7,1.2-1,1.7c-1,1.4-2,2.7-3,4.1c-0.2,0.2-0.7,0.4-0.9,0.2c-0.7-0.4-1.2-0.1-1.5,0.4
		c-1.6,2.2-3.7,3.8-5.9,5.4c-3,2.1-6.1,4.1-9.2,6.2c-0.5,0.4-1.1,0.7-1.6,1.1c-0.6,0.5-1.2,0.5-1.8,0c-1.3-1-2.7-1.8-4-2.9
		c-0.7-0.6-1.2-1.5-1.9-2.2c0.1-0.1,0.2-0.2,0.3-0.3c1,0.5,2,0.9,3,1.5c0.8,0.5,1.6,1.3,2.4,1.8c0.3,0.2,0.7,0.2,1.1,0.3
		c0.1-0.1,0.1-0.2,0.2-0.4c-0.7-0.6-1.4-1.1-2.1-1.7c-0.8-0.7-1.7-1.4-2.5-2.2c-0.1-0.1-0.3-0.6-0.2-0.6c0.8-0.8-0.1-0.9-0.5-1
		c-1.1-0.4-2.4-0.7-3.2-1.7c0.6-0.7,0.4-1.2-0.3-1.9c-0.7-0.7-1.1-1.9-1.6-2.9c-0.4-0.7-0.7-1.4-1-2.2c1.1,0.6,2,0.5,2.5-0.3
		c1.4,2.4,2.9,4.9,4.3,7.3c0.1,0.2,0.2,0.3,0.4,0.4c1.4,0.8,1.9,2.3,2.9,3.5c0.6,0.8,1.5,1.4,2.3,2c0.1,0.1,0.4,0.1,0.5,0.1
		c0.7-0.1,1.4-0.1,2-0.3c0.8-0.2,1.5-0.5,2.3-0.8c0.5-0.2,1.1-0.4,1.5-0.8c0.6-0.4,1.1-0.9,1.5-1.5c1.1-1.8,2.1-3.7,3.1-5.5
		c1.1-2,2.1-4.1,3.3-6c1-1.5,1.5-3.4,3-4.5c0.1-0.1,0.2-0.4,0.2-0.5c-0.5-0.9,0.2-1.4,0.5-2c0.6-1.1,1-2.3,1.4-3.5
		c0.1-0.4-0.2-1.1-0.5-1.2c-0.5-0.3-1.1-0.1-1.4,0.6c-0.2,0.5-0.5,1-0.7,1.5c-0.6,1.4-1.6,2.3-2.7,3.3c-3.5,3.3-6.6,7-9,11.2
		c-0.3,0.5-0.8,1-1.1,1.6c-0.3,0.5-1,0.9-0.4,1.7c0.1,0.1-0.2,0.5-0.4,0.8c-1.1-1.3-2.4,0.2-3.5-0.6c0.2-0.2,0.3-0.5,0.5-0.6
		c0.7-0.3,1.4-0.5,2-0.8c0.3-0.1,0.4-0.4,0.8-0.7c-1.4-0.3-2.2,0.2-3.1,0.6c-0.6,0.3-1.3,0.7-1.9,1.1c-0.7,0.4-1.1,0.1-1.4-0.4
		c-1.5-2.2-3.1-4.5-4.5-6.8c-1.6-2.6-3.2-5.2-4.7-7.9c-0.4-0.8-0.4-1.9-0.5-2.9c0-0.1,0.3-0.5,0.5-0.5c1.2-0.1,2.4-0.1,3.6-0.2
		c1.7-0.1,2.1,0.4,1.7,2.1c-0.3,1.1-0.2,2.4-0.2,3.5c0,0.1,0.2,0.3,0.4,0.6c0.3-0.7,0.6-1.3,0.7-1.8c0.1-1.1,0.8-1.2,1.6-1.2
		c2.1-0.2,4.2-0.4,6.2-0.8c0.9-0.2,1.6-0.8,2.5-1.1c0.5-0.2,1.1-0.3,1.6-0.4c1.4-0.3,2.3-1.1,3.2-2.1c0.9-1,1.9-1.9,2.8-2.8
		c1.3-1.3,2.7-2.5,3.9-3.9c0.4-0.5,0.5-1.4,0.6-2.1c0.1-0.4-0.1-0.9,0-1.4c0.1-0.3,0.4-0.6,0.6-0.9c0.3,0.2,0.6,0.4,0.8,0.7
		c0.5,0.9,0.9,1.9,1.4,2.8c0.2,0.4,0.3,0.8,0.1,1.3c-0.2,0.6-0.2,1.3-0.1,2c0,0.6,0.9,0.6,1.6,0.1c-0.7-0.8-0.6-1.8,0.3-2.5
		c0.1-0.1,0.3-0.1,0.4-0.1c0.6,0.1,0.7-0.3,0.9-0.7c0.2-0.7,0.5-1.3,0.8-2c0.1-0.4,0.4-0.9,0.3-1.2c-0.4-0.8,0.2-1.1,0.9-1.5
		c0,0.7,0.2,1.5,0,2.1c-0.6,1.9-1.2,3.7-1.9,5.6c-0.1,0.4-0.6,0.6-0.9,0.9c-0.6,0.5-1.2,1-1.8,1.5c-0.2,0.2-0.5,0.3-0.8,0.4
		c-0.4,0.1-1,0.1-0.8,0.7c0.1,0.2,0.7,0.4,1.1,0.4c0.9-0.1,1.6,0.3,1.7,1.1c0.1,0.6,0.2,1.2,0.2,1.8c0.1,1.3,0.7,2.4,1.4,3.5
		c0.4,0.5,0.5,1.3,0.7,2c0.1,0.3,0.1,0.6,0.2,0.8c0.1,0.1,0.5,0.2,0.5,0.2c0.2-0.1,0.3-0.4,0.3-0.6C286,57,285.8,56,285.6,54.8z
		 M264.7,61c-0.4-0.1-0.6-0.2-0.8-0.1c-0.6,0.2-1.3,0.5-1.9,0.5c-1.4,0-2.9-0.1-4.3-0.2c-0.6-0.1-1.2-0.2-1.3,0.4
		c-0.1,0.6,0.5,1.1,1.2,1.1c1.2,0,2.5,0.1,3.7,0c0.9-0.1,1.9-0.5,2.8-0.9C264.3,61.7,264.5,61.3,264.7,61z M264,64.5
		c0-0.1-0.1-0.2-0.1-0.3c-1.3,0.2-2.7,0.4-4,0.7c-0.2,0-0.4,0.4-0.6,0.6c0.2,0.1,0.5,0.4,0.7,0.3c1.3-0.2,2.5-0.5,3.8-0.8
		C263.9,64.9,263.9,64.6,264,64.5z"/>
	<path class="st0" d="M253.8,46.3c-4.1,0.1-8.1,0.1-12,1.8c-0.9,0.4-1.3,0.1-1.2-1c0.2-1.5,0.3-3.1,0.8-4.5c0.7-2.1,1.7-4,2.5-6
		c0.4-1,1.1-1,1.9-0.9c4.1,0.3,8.2,0.6,12.2,1c1.1,0.1,2.2,0.1,3.3,0.2c2.9,0.2,5.7-0.4,8.6-1c1.5-0.3,3.1-0.5,4.6-0.7
		c0.6-0.1,1,0.2,0.8,0.9c-0.1,0.5-0.2,1-0.2,1.5c0,0.2-0.1,0.4,0,0.5c1.3,1.8-0.2,2.9-1.1,4c-1,1.3-2,2.5-3.2,3.7
		c-0.7,0.7-1.5,1.2-2.3,1.8c-0.4,0.3-0.8,0.5-1.2,0.8c-0.8,0.8-1.6,0.8-2.7,0.5c-3-0.9-6-1.7-9-2.5
		C255.3,46.2,254.5,46.3,253.8,46.3z"/>
	<path class="st0" d="M260.2,122.9c-0.5,0-0.9,0.2-1.4,0.1c-2.4,0-4.8-0.3-7.2-0.1c-1.6,0.1-3.2,0.7-4.8,1c-0.9,0.2-1.9,0.3-2.8,0.5
		c-0.9,0.2-1.7,0.6-2.5,1c-0.2,0.1-0.2,0.4-0.4,0.8c0.7,0,1.2,0,1.8,0c-1.9,2.4-3,5-2.8,8c-3.3-3.4-6.2-7.1-8.7-11
		c0.1-0.1,0.2-0.1,0.2-0.2c0.3,0.3,0.6,0.7,0.9,1c0.1-2.5-0.5-4.8-1.1-7.2c0-0.1-0.1-0.2-0.1-0.4c-0.2-1.5-0.1-1.6,1.4-1.4
		c2.2,0.3,4.4,0.7,6.6,1.1c2.7,0.5,5.4,0.9,8,1.6c3.6,1,7.1,2.2,10.7,3.4c0.8,0.3,1.5,0.9,2.2,1.4
		C260.3,122.7,260.2,122.8,260.2,122.9z"/>
	<path class="st0" d="M184.5,129c-0.4-0.4-0.7-0.6-1.1-1c-0.1,0.4-0.3,0.7-0.3,1c0.1,1.1-1.1,2-2.3,2c-1.7-0.1-3.1-0.9-4.3-2
		c-0.4-0.4-0.4-0.8,0.3-1c0.8-0.2,1.6-0.1,2.3-0.5c1.5-0.7,3-1.6,4.4-2.5c1.3-0.8,2.6-1.7,3.9-2.5c0.2-0.1,0.5-0.1,0.8-0.2
		c0,0.3,0.2,0.7,0.1,1c-0.2,0.5-0.6,1-0.9,1.5C186.5,126.2,185.5,127.6,184.5,129z"/>
	<path class="st0" d="M285.6,149.4c2,0.8,3.8,1.6,5.6,2.1c1.4,0.4,2.9,0.3,4.3,0.3c1.2,0,2.4-0.1,3.6,0c0.3,0,0.9,0.4,0.9,0.7
		c0.1,0.3-0.2,0.8-0.5,1.1c-2.5,2.4-5.2,1.7-7.8,0.3c-2-1.1-3.8-2.6-5.7-3.9C285.8,149.8,285.7,149.6,285.6,149.4z"/>
	<path class="st0" d="M178.1,132.9c-0.7,0.2-1.4,0.4-2,0.4c-5,0.2-10,0.3-15,0.4c-3,0.1-6,0.3-9,0.4c-0.3,0-0.6,0-0.9,0
		c0-0.1-0.1-0.2-0.1-0.2c0.2-0.1,0.4-0.4,0.6-0.4c1.7-0.2,3.5-0.3,5.2-0.4c2.9-0.2,5.9-0.6,8.8-0.7c3.8-0.2,7.7-0.3,11.5-0.4
		c0.3,0,0.6,0.3,0.9,0.4C178.1,132.6,178.1,132.8,178.1,132.9z"/>
	<path class="st0" d="M208.8,157c1.3-0.1,2.6-0.2,4-0.3c2.7-0.1,5.5-0.2,8.2-0.4c4.1-0.3,8.1-0.7,12.2-1.1c2-0.2,4.1-0.4,6.1-0.5
		c0.3,0,0.7,0.1,1,0.2c0,0.1,0.1,0.2,0.1,0.3c-0.5,0.2-1,0.6-1.5,0.6c-3.6,0.4-7.2,0.7-10.8,1c-1.7,0.1-3.4,0.2-5.1,0.2
		c-4.4,0.1-8.8,0.3-13.3,0.4c-0.3,0-0.7-0.1-1-0.2C208.7,157.1,208.8,157.1,208.8,157z"/>
	<path class="st0" d="M251.8,158.1c0.7,0.4,1.4,0.5,1.7,0.9c1.9,2,3.7,4,5.6,6c0.5,0.6,1.1,1.1,1.6,1.7c0.2,0.2,0.1,0.6,0.2,1
		c-0.3-0.1-0.7-0.2-0.9-0.4c-2.2-2.4-4.5-4.6-7.1-6.6c-0.5-0.4-0.9-1-1.3-1.6C251.6,158.9,251.7,158.5,251.8,158.1z"/>
	<path class="st0" d="M247.9,147.9c0.9,0,1.4,0.5,1.3,1.1c-0.1,0.7-0.5,1.4-0.9,2c-0.1,0.1-0.7,0.2-0.9,0c-0.8-0.5-0.7-2.5,0.1-3
		C247.7,147.9,247.9,147.9,247.9,147.9z"/>
	<path class="st0" d="M250.8,149.4c0.1,0.7,0.2,1.4,0.2,2c0,0.9-0.2,1.8-0.4,2.6c-0.1,0.4-0.5,0.6-0.7,1c-0.1-0.4-0.4-0.8-0.4-1.1
		c0-1.1,0.2-2.1,0.3-3.2c0.1-0.5,0.3-0.9,0.4-1.3C250.4,149.4,250.6,149.4,250.8,149.4z"/>
	<path class="st0" d="M254.1,112.1c-0.2-0.2-0.5-0.3-0.7-0.5c0.2-0.2,0.4-0.5,0.7-0.6c1.3-0.4,2.7-0.7,4-1c0.2,0,0.5,0.2,0.8,0.3
		c-0.2,0.2-0.4,0.5-0.6,0.6C256.9,111.3,255.6,111.7,254.1,112.1z"/>
	<path class="st0" d="M192.8,142.3c-1.3-0.4-3.9-3.5-4.1-4.9c0.4,0.2,0.9,0.3,1.1,0.6c1,1.3,1.9,2.6,2.9,4
		C192.8,142,192.8,142.2,192.8,142.3z"/>
	<path class="st0" d="M201.7,157.2c1.9,0,3.5,0,5.2,0C206.1,157.8,202.7,157.9,201.7,157.2z"/>
	<path class="st1" d="M294.6,82.2c-1.9,0-3.8,0-5.7,0c-0.3,0-0.6-0.1-0.8-0.2c-2.1-1-3.8-0.3-5.5,1c-1.6,1.2-3.3,2.1-5.2,2.6
		c-0.3,0.1-0.7-0.2-0.9-0.4c-0.1-0.1,0.1-0.5,0.3-0.8c0.1-0.2,0.3-0.3,0.5-0.4c2-0.7,3.5-2,5.2-3.2c1.2-0.9,2.7-1.7,4.2-1.8
		c2.6-0.2,5.2,0.1,7.6,1.3c0.2,0.1,0.4,0.2,0.7,0.3c0.5,0.2,1.2,0.3,0.9,1.1c-0.2,0.4-0.7,0.6-1,0.8
		C294.7,82.5,294.6,82.4,294.6,82.2z"/>
	<path class="st1" d="M295.2,126.7c0.6-0.7,1.3-1.3,1.8-2.1c1.8-2.2,3.5-4.5,5.3-6.8c1.4-1.7,2.9-3.3,4.3-5c0.1-0.1,0.1-0.2,0.2-0.2
		c0.5-0.2,1-0.9,1.6-0.3c0.5,0.6-0.1,1-0.5,1.4c-1.9,2.1-3.7,4.2-5.5,6.2c-1.5,1.6-2.9,3.2-4.4,4.8c-0.6,0.6-1.2,1.2-1.8,1.7
		c-0.2,0.2-0.6,0.2-0.9,0.3C295.3,126.8,295.3,126.7,295.2,126.7z"/>
	<path class="st1" d="M311.6,80.7c1.8-0.8,3.5-1.6,5.3-2.4c0,0.1,0.1,0.2,0.1,0.3c-1.7,0.8-3.5,1.7-5.2,2.5
		C311.7,80.9,311.7,80.8,311.6,80.7z"/>
	<path class="st1" d="M264.7,61c-0.2,0.4-0.3,0.8-0.6,0.9c-0.9,0.4-1.8,0.8-2.8,0.9c-1.2,0.1-2.5,0-3.7,0c-0.7,0-1.2-0.5-1.2-1.1
		c0.1-0.7,0.7-0.5,1.3-0.4c1.4,0.2,2.8,0.3,4.3,0.2c0.6,0,1.2-0.4,1.9-0.5C264.1,60.8,264.3,60.9,264.7,61z"/>
	<path class="st1" d="M264,64.5c-0.1,0.1-0.2,0.4-0.3,0.4c-1.2,0.3-2.5,0.6-3.8,0.8c-0.2,0-0.5-0.2-0.7-0.3c0.2-0.2,0.4-0.5,0.6-0.6
		c1.3-0.3,2.7-0.5,4-0.7C264,64.3,264,64.4,264,64.5z"/>
</g>
<g>
	<path d="M6.7,159.2V109l8.4-8.4l8.4-8.4v50.2h16.7V92.3H6.7V75.5h50.2v66.9l-8.4,8.4l-8.4,8.4H6.7z"/>
	<path d="M65.2,159.2v-33.4H82v16.7h16.7V109l8.4-8.4l8.4-8.4v66.9H65.2z M98.7,92.3V75.5h16.7v16.7H98.7z"/>
</g>
<g>
	<path d="M12.1,66.5v6.6h-0.8v-6.6H5.8v-0.8h11.5v0.8H12.1z"/>
	<path d="M36.3,65.7h0.8v7.4h-0.8v-4.9h-9.9v4.9h-0.8v-7.4h0.8v1.6h9.9V65.7z"/>
	<path d="M46.1,66.5v0.8h10.7v0.8H46.1v4.1h10.7v0.8H45.3v-7.4h11.5v0.8H46.1z"/>
</g>
</svg>
