<?xml version="1.0" encoding="utf-8"?>
<!-- Generator: Adobe Illustrator 19.1.0, SVG Export Plug-In . SVG Version: 6.00 Build 0)  -->
<svg version="1.1" id="Calque_16" xmlns="http://www.w3.org/2000/svg" xmlns:xlink="http://www.w3.org/1999/xlink" x="0px" y="0px"
	 viewBox="0 0 329.5 168.5" style="enable-background:new 0 0 329.5 168.5;" xml:space="preserve">
<g>
	<path d="M56.8,118.1c-3.7,1.3-11.1,3.6-19.9,3.6c-9.8,0-17.8-2.5-24.2-8.5c-5.6-5.4-9-14-9-24.1c0.1-19.3,13.3-33.4,35-33.4
		c7.5,0,13.3,1.6,16.1,3l-2,6.8c-3.5-1.5-7.8-2.8-14.3-2.8c-15.7,0-26,9.8-26,26c0,16.4,9.9,26.1,24.9,26.1c5.5,0,9.2-0.8,11.1-1.7
		V93.7H35.5V87h21.3V118.1z"/>
</g>
<g>
	<path d="M64.5,55.5l4.3,28.4c1.6,10.8,7.1,14.6,13.5,13.6c7.1-1.1,11-6.5,9.4-17.1l-4.3-28.4l6.3-0.9l4.2,28
		c2.2,14.7-4.7,22-15,23.5c-9.8,1.5-18.1-3-20.3-17.9l-4.2-28.3L64.5,55.5z"/>
</g>
<g>
	<path d="M120.4,35.6L97,51.7l-2.1-3l23.3-16.1L120.4,35.6z"/>
</g>
<g>
	<path d="M19.4,134.1l2.7,6l-2.2,1l-6.5-14.6l2.2-1l2.7,6l17.5-7.8l1.1,2.6L19.4,134.1z"/>
</g>
<g>
	<path d="M30.2,144.5l-0.1-4.5l1.7-0.6l0.3,14.5l-2,0.7l-9-11.3l1.8-0.6l2.8,3.6L30.2,144.5z M26.4,147.3l2.6,3.3
		c0.6,0.7,1.1,1.4,1.5,2.1l0,0c-0.1-0.8-0.2-1.7-0.2-2.6l-0.1-4.2L26.4,147.3z"/>
</g>
<g>
	<path d="M116.6,99.6c1.3,2,2.8,5,4,8c1.8,4.6,2.1,7.9,1.1,10.7c-0.8,2.3-2.7,4.1-5.3,5.1c-4.4,1.7-8.4,0.1-11-2.9l-0.1,0.1
		c0.1,2.9-1.6,5.4-4.8,7.6c-4.2,2.9-7.1,5-8.1,6.2l-1.8-4.5c0.7-0.9,3.3-2.8,7.1-5.4c4.2-2.8,5.2-5.3,3.8-9.2l-1.6-4.1l-14.4,5.7
		l-1.7-4.3L116.6,99.6z M103.1,109.9l1.7,4.4c1.8,4.6,5.5,6.5,9.3,5c4.3-1.7,5-5.6,3.2-10.1c-0.8-2.1-1.6-3.5-2.1-4.1L103.1,109.9z"
		/>
</g>
<g>
	<path d="M54.6,148.8c0.1,1.3,0.1,3.7-0.6,6.4c-0.8,3-2.3,5.3-4.7,6.7c-2.1,1.3-5.1,1.6-8.2,0.7c-6-1.7-9.2-7-7.3-13.7
		c0.6-2.3,1.6-4,2.3-4.7l1.9,1.2c-0.8,0.9-1.5,2.2-2.1,4.2c-1.3,4.9,0.8,8.9,5.8,10.2c5.1,1.4,8.9-0.8,10.2-5.5
		c0.5-1.7,0.5-2.9,0.4-3.6l-6-1.6l-1.1,4.1l-2.1-0.6l1.8-6.6L54.6,148.8z"/>
</g>
<g>
	<path d="M135.3,121.2l-12.3,0.9l-0.1-1.6l12.3-0.9L135.3,121.2z"/>
</g>
<g>
	<path d="M121.3,62.5l6.5,2.2l-0.7,2.2l-15.9-5.3l0.7-2.2l6.5,2.2l6-17.9l2.8,0.9L121.3,62.5z"/>
</g>
<g>
	<path d="M170,56.5l-11,4.2c-4.2,1.6-5.2,4.1-4.3,6.6c1.1,2.8,3.5,3.8,7.7,2.3l11-4.2l0.9,2.4l-10.9,4.1c-5.7,2.2-9.2,0.1-10.8-4
		c-1.4-3.8-0.4-7.5,5.4-9.7l11-4.2L170,56.5z"/>
</g>
<g>
	<path d="M188.7,58.2l6.6-0.7l1.1,2.4L175.4,62l-1.3-2.8l15.4-14.6l1.2,2.5l-4.8,4.6L188.7,58.2z M184.1,53l-4.4,4.2
		c-1,1-2,1.7-2.9,2.5l0,0.1c1.2-0.2,2.4-0.4,3.7-0.6l6.1-0.6L184.1,53z"/>
</g>
<g>
	<path d="M244.2,36.9l-48.9,18.4l-2.4-6.3l48.9-18.4L244.2,36.9z"/>
</g>
<g>
	<path d="M318.2,9.9c0.7,0.2,2,0.7,3.3,1.6c1.4,1.1,2.3,2.3,2.6,3.9c0.2,1.4-0.2,3-1.3,4.5c-2.1,2.8-5.5,3.5-8.7,1.1
		c-1.1-0.8-1.8-1.7-2-2.2l1-0.8c0.3,0.6,0.8,1.2,1.8,1.9c2.3,1.7,4.9,1.4,6.6-1c1.8-2.4,1.4-4.9-0.8-6.5c-0.8-0.6-1.4-0.9-1.8-0.9
		l-2.1,2.8l1.9,1.4l-0.7,1l-3.1-2.3L318.2,9.9z"/>
</g>
<g>
	<path d="M296.6,23.4l5.4-3.8l2.1,1.6l-17.5,11.9l-2.5-1.9l6.6-20.1l2.2,1.7l-2.1,6.3L296.6,23.4z M290.1,21.1l-1.9,5.8
		c-0.4,1.3-0.9,2.4-1.4,3.5l0,0c1-0.8,1.9-1.6,3-2.3l5-3.5L290.1,21.1z"/>
</g>
<g>
	<path d="M264.2,19.3c0.7,1.1,1.5,2.6,2.1,4.2c1,2.4,1.1,4.2,0.6,5.6c-0.4,1.2-1.4,2.2-2.8,2.7c-2.3,0.9-4.4,0.1-5.8-1.5l-0.1,0
		c0.1,1.5-0.9,2.8-2.5,4c-2.2,1.5-3.8,2.6-4.3,3.3l-0.9-2.3c0.4-0.5,1.7-1.5,3.7-2.8c2.2-1.5,2.8-2.8,2-4.9l-0.8-2.1l-7.6,3
		l-0.9-2.3L264.2,19.3z M257.1,24.7L258,27c1,2.4,2.9,3.4,4.9,2.6c2.3-0.9,2.6-2.9,1.7-5.3c-0.4-1.1-0.8-1.8-1.1-2.2L257.1,24.7z"/>
</g>
<g>
	<path d="M272.5,23.1l2.9,5.5l-2,1.1l-7.1-13.4l2-1.1l2.9,5.5l16.1-8.5l1.2,2.4L272.5,23.1z"/>
</g>
<g>
	<path d="M300.7,15.8l5,2.7c1.9,1,3.1,0.6,3.7-0.5c0.7-1.2,0.3-2.5-1.6-3.5l-5-2.7l0.6-1.1l4.9,2.7c2.6,1.4,2.9,3.3,1.9,5.1
		c-0.9,1.7-2.6,2.5-5.2,1.1l-4.9-2.7L300.7,15.8z"/>
</g>
<g>
	<path d="M282,21.7l-0.3,10.4l-1.3,0l0.3-10.4L282,21.7z"/>
</g>
<g>
	<path d="M124.3,40.8l9.2-3.5c3.5-1.3,4.4-3.4,3.6-5.5c-0.9-2.3-2.9-3.2-6.4-1.9l-9.2,3.5l-0.8-2l9-3.4c4.8-1.8,7.7,0,8.9,3.3
		c1.2,3.2,0.3,6.2-4.5,8.1l-9.1,3.5L124.3,40.8z"/>
</g>
<g>
	<path d="M65.1,111.7l-2.9,6.2l-2.1-1l7.1-15.1l2.1,1l-2.9,6.2l17.1,8l-1.3,2.7L65.1,111.7z"/>
</g>
<g>
	<path d="M77.5,124l-14.1,13.2c-5.3,5-5.4,9.5-2.4,12.6c3.3,3.5,7.7,3.6,13-1.3l14.1-13.2l2.9,3.1l-13.9,13
		c-7.3,6.8-13.9,5.8-18.7,0.7c-4.6-4.9-5.2-11.1,2.2-18l14-13.1L77.5,124z"/>
</g>
<g>
	<path d="M64.1,124.9l-25,17.3l-2.2-3.2l25-17.3L64.1,124.9z"/>
</g>
<g>
	<path d="M122.2,90.9l0.8-4.5l1.8-0.3l-2.6,14.2l-2.1,0.3l-6.6-12.9l1.9-0.3l2.1,4.1L122.2,90.9z M118,92.9l1.9,3.7
		c0.4,0.8,0.8,1.6,1.1,2.4l0,0c0.1-0.8,0.2-1.7,0.3-2.6l0.7-4.1L118,92.9z"/>
</g>
<g>
	<path d="M132.2,70.1c-0.2,1.9-0.9,4.5-1.7,6.9c-1.3,3.7-2.8,5.9-4.9,7.1c-1.7,1-3.8,1.1-5.9,0.4c-3.6-1.2-5.2-4.3-5.2-7.5l-0.1,0
		c-1.4,1.8-3.8,2.4-6.8,2.1c-4.1-0.4-6.9-0.7-8.2-0.5l1.2-3.6c0.9-0.2,3.5,0,7.1,0.4c4,0.5,5.9-0.5,7.1-3.6l1.1-3.3l-11.8-4l1.2-3.5
		L132.2,70.1z M118.7,69.4l-1.2,3.6c-1.3,3.7,0,6.8,3.1,7.9c3.5,1.2,5.9-0.8,7.2-4.5c0.6-1.7,0.8-3,0.9-3.6L118.7,69.4z"/>
</g>
<g>
	<path d="M111.5,49.4l-4.1,3.2l-1.8-1.1l13.1-10.2l2,1.3l-4.1,16.1l-1.8-1.2l1.3-5L111.5,49.4z M116.7,50.9l1.2-4.6
		c0.3-1,0.6-2,0.9-2.8l0,0c-0.7,0.7-1.4,1.3-2.2,1.9l-3.8,3L116.7,50.9z"/>
</g>
<g>
	<path d="M113.5,91.1c0.1,0.8,0.1,2.3-0.4,4c-0.5,1.9-1.4,3.3-2.9,4.2c-1.3,0.8-3.2,1-5.1,0.5c-3.7-1-5.7-4.3-4.6-8.5
		c0.4-1.4,1-2.5,1.4-2.9l1.2,0.7c-0.5,0.6-0.9,1.3-1.3,2.6c-0.8,3,0.5,5.5,3.6,6.4c3.2,0.9,5.5-0.5,6.3-3.4c0.3-1.1,0.3-1.8,0.3-2.2
		l-3.7-1l-0.7,2.5l-1.3-0.4l1.1-4.1L113.5,91.1z"/>
</g>
<g>
	<path d="M121,107.5c0.5-0.7,1.2-1.5,2-2.3c1.2-1.2,2.2-1.7,3.2-1.7c0.8,0,1.6,0.3,2.3,1c1.1,1.2,1.1,2.6,0.5,3.8l0,0
		c0.9-0.4,1.9-0.2,3,0.5c1.5,0.9,2.5,1.6,3,1.8l-1.2,1.1c-0.4-0.1-1.3-0.7-2.6-1.5c-1.4-1-2.3-1-3.4,0l-1.1,1l3.6,3.8l-1.1,1.1
		L121,107.5z M125.9,110.4l1.2-1.1c1.2-1.2,1.3-2.5,0.4-3.5c-1.1-1.1-2.4-0.8-3.6,0.3c-0.5,0.5-0.9,0.9-1,1.2L125.9,110.4z"/>
</g>
<g>
	<path d="M138.1,118.5l6.7-1.5c2.5-0.6,3.4-1.9,3-3.4c-0.4-1.7-1.7-2.5-4.2-2l-6.7,1.5l-0.3-1.5l6.6-1.4c3.5-0.8,5.3,0.8,5.8,3.2
		c0.5,2.3-0.4,4.3-3.9,5.1l-6.7,1.5L138.1,118.5z"/>
</g>
<g>
	<path d="M138.8,76l2.2,5.1l-1.7,0.7l-5.3-12.3l1.7-0.7l2.2,5.1l13.9-6l0.9,2.2L138.8,76z"/>
</g>
<path d="M277.7,8.6c-0.2,0.1-0.6,0.2-1.1,0.2c-0.5,0-1-0.1-1.3-0.5c-0.3-0.3-0.5-0.8-0.5-1.3c0-1.1,0.7-1.8,1.9-1.8
	c0.4,0,0.7,0.1,0.9,0.2l-0.1,0.4c-0.2-0.1-0.4-0.2-0.8-0.2c-0.9,0-1.4,0.5-1.4,1.4c0,0.9,0.5,1.4,1.4,1.4c0.3,0,0.5,0,0.6-0.1V7.2
	h-0.7V6.9h1.2V8.6z"/>
<path d="M284,5.1v2.1c0,0.8,0.4,1.1,0.8,1.1c0.5,0,0.9-0.3,0.9-1.1V5.1h0.5v2.1c0,1.1-0.6,1.5-1.3,1.5c-0.7,0-1.3-0.4-1.3-1.5V5.1
	H284z"/>
<path d="M293,5.1v3.6h-0.5V5.1H293z"/>
<path d="M301.1,5.5H300V5.1h2.6v0.4h-1.1v3.2h-0.5V5.5z"/>
<path d="M308.6,7.6l-0.4,1.1h-0.5l1.2-3.6h0.6l1.2,3.6h-0.5l-0.4-1.1H308.6z M309.7,7.2l-0.3-1c-0.1-0.2-0.1-0.4-0.2-0.7h0
	c-0.1,0.2-0.1,0.4-0.2,0.6l-0.3,1H309.7z"/>
<path d="M315.2,5.2c0.2,0,0.6-0.1,0.9-0.1c0.5,0,0.8,0.1,1,0.3c0.2,0.2,0.3,0.4,0.3,0.7c0,0.5-0.3,0.8-0.7,0.9v0
	c0.3,0.1,0.4,0.3,0.5,0.7c0.1,0.5,0.2,0.8,0.3,1h-0.5c-0.1-0.1-0.1-0.4-0.2-0.9c-0.1-0.5-0.3-0.7-0.7-0.7h-0.4v1.5h-0.5V5.2z
	 M315.7,6.8h0.5c0.5,0,0.8-0.3,0.8-0.7c0-0.5-0.3-0.7-0.8-0.7c-0.2,0-0.4,0-0.5,0V6.8z"/>
<g>
	<path d="M147.6,63.2l-14.4,5.4l-0.7-1.9l14.4-5.4L147.6,63.2z"/>
</g>
<g>
	<path d="M298.8,12l-4,7.8l-1-0.5l4-7.8L298.8,12z"/>
</g>
<g>
	<path d="M279.3,11.4c0.1,0.6,0.2,1.4,0.2,2.1c0,1.2-0.2,2-0.6,2.5c-0.4,0.4-0.9,0.7-1.6,0.7c-1.1,0-1.9-0.7-2.2-1.6l0,0
		c-0.2,0.7-0.8,1.1-1.7,1.3c-1.2,0.3-2,0.5-2.3,0.7l0-1.1c0.2-0.1,1-0.4,2-0.6c1.2-0.3,1.6-0.8,1.6-1.8l0-1l-3.7,0.1l0-1.1
		L279.3,11.4z M275.4,12.6l0,1.1c0,1.2,0.7,1.9,1.7,1.9c1.1,0,1.6-0.8,1.6-2c0-0.5-0.1-0.9-0.1-1.1L275.4,12.6z"/>
</g>
<g>
	<path d="M142.3,29.1l-0.5-0.9l0.3-0.2l1.2,2.1l-0.3,0.2l-0.5-0.9l-2.5,1.4l-0.2-0.4L142.3,29.1z"/>
</g>
<g>
	<path d="M9.4,128.5l0.4,0.9l-0.3,0.1l-0.9-2.2l0.3-0.1l0.4,0.9l2.7-1l0.2,0.4L9.4,128.5z"/>
</g>
<g>
	<path d="M9.6,117.2c0.4-0.3,1.1-0.7,1.8-1c1-0.5,1.8-0.6,2.4-0.3c0.5,0.2,1,0.6,1.2,1.2c0.4,1,0.1,1.9-0.6,2.5l0,0
		c0.7-0.1,1.2,0.3,1.8,1c0.7,0.9,1.2,1.6,1.5,1.8l-1,0.4c-0.2-0.2-0.7-0.7-1.3-1.6c-0.7-0.9-1.3-1.1-2.1-0.8l-0.9,0.4l1.4,3.2
		l-1,0.4L9.6,117.2z M12.1,120.2l1-0.4c1-0.5,1.4-1.3,1.1-2.2c-0.4-1-1.3-1.1-2.3-0.6c-0.5,0.2-0.8,0.4-0.9,0.5L12.1,120.2z"/>
</g>
<g>
	<path d="M132.8,80.9l-0.4,2.7l-1.1,0.2l1.4-8.5L134,75l4,7.6l-1.1,0.2l-1.3-2.4L132.8,80.9z M135.3,79.6l-1.2-2.2
		c-0.3-0.5-0.5-1-0.7-1.4l0,0c0,0.5-0.1,1-0.2,1.5l-0.4,2.5L135.3,79.6z"/>
</g>
<g>
	<path d="M55.7,162.1c-0.2-0.4-0.5-0.9-0.7-1.4c-0.3-0.8-0.4-1.4-0.2-1.9c0.1-0.4,0.5-0.8,0.9-0.9c0.8-0.3,1.5,0,2,0.5l0,0
		c0-0.5,0.3-1,0.9-1.4c0.8-0.5,1.3-0.9,1.5-1.1l0.3,0.8c-0.1,0.2-0.6,0.5-1.3,1c-0.8,0.5-0.9,1-0.7,1.7l0.3,0.7l2.6-1.1l0.3,0.8
		L55.7,162.1z M58.1,160.2l-0.3-0.8c-0.3-0.8-1-1.2-1.7-0.9c-0.8,0.3-0.9,1-0.6,1.8c0.2,0.4,0.3,0.6,0.4,0.7L58.1,160.2z"/>
</g>
</svg>
