<?xml version="1.0" encoding="utf-8"?>
<!-- Generator: Adobe Illustrator 19.1.0, SVG Export Plug-In . SVG Version: 6.00 Build 0)  -->
<svg version="1.1" id="Calque_15" xmlns="http://www.w3.org/2000/svg" xmlns:xlink="http://www.w3.org/1999/xlink" x="0px" y="0px"
	 viewBox="0 0 478.1 198.4" style="enable-background:new 0 0 478.1 198.4;" xml:space="preserve">
<style type="text/css">
	.st0{fill-rule:evenodd;clip-rule:evenodd;}
</style>
<path class="st0" d="M422.5,116.9c-1.5,5.2-0.9,9.9-0.5,14.5c0.5,0.1,0.7,0.2,0.8,0.1c1.5-1.2,3.1-2.5,5.2-1.4c2.2,1.2,3,3.3,3,5.7
	c0,0.5,0.1,0.9-0.1,1.4c-1.2,4.3-0.1,8,2.4,11.8c2.7,4.1,2,9.2-1.1,12.7c-2.6,2.9-5.1,2.8-6.7-0.7c-1.6-3.7-2.6-7.7-3.8-11.6
	c-0.3-0.8-0.3-1.7-0.5-2.9c-0.8,0.3-1.4,0.5-1.9,0.7c-3.1,1.6-5.2,1.3-7.4-1.4c-1.3-1.6-2.3-3.4-3.5-5.1c-0.7-1-1.4-1.9-2.2-2.8
	c-2.1-2.7-4.3-5.3-6.2-8.1c-2.1-3.1-3.6-6.5-5.7-9.6c-5.7-8.4-9.3-17.3-8.1-27.6c0.2-1.8-0.7-2.5-2.1-3.3c-6.5-4-13-7.9-19.2-12.4
	c-3.9-2.8-4.2-5-2-9.5c3.7-7.5,7.7-14.8,11.7-22.2c1.3-2.3,2.6-4.7,4.4-6.5c2-2,4.6-3.6,7.1-5.2c1.9-1.1,4.1-1.9,5.6-2.5
	c0-5.6-0.4-10.7,0.1-15.6c0.5-4.7,6.6-11.3,13.9-8.7c2.4,0.9,4.6,2.4,6.7,3.9c0.8,0.6,1.4,2,1.4,3.1c-0.1,4.1-0.3,8.2-0.8,12.2
	c-0.2,1.6-1.2,3.1-1.7,4.4c2.1,0.6,4,1.6,5.8,1.4c4.9-0.4,8.6,2,12.7,4c3.8,1.9,6.5,4.7,8.9,8.2c1.9,2.8,4.2,5.4,6.6,7.9
	c3.3,3.4,6.9,6.5,10.1,9.9c2.9,3,2.7,4.2,0.9,8c-0.3,0.7-0.1,2.1,0.4,2.8c6.5,9.8,0.9,22-10.8,23.2c-1.7,0.2-3.4-0.1-6-0.3
	c2.1,5.6,3.8,10.9,6.1,16c1.9,4.3,2.1,4.1-0.9,7.6c-0.4,0.5-0.7,1.7-0.4,2.3c2.1,4.8,4.8,9.4,6.4,14.3c1.8,5.5,2.6,11.3,3.9,16.9
	c0.9,4,1.8,8.1,2.7,12.1c0.2,0.8-0.1,1.8,0.2,2.5c3.3,7.3,5.9,15,12.9,20.1c1.3,0.9,2.1,3.2,2.1,4.9c0,0.8-2.3,1.9-3.7,2.3
	c-2.3,0.5-4.7,0.7-7,0.5c-1-0.1-2.6-1.4-2.7-2.3c-0.2-2-1.2-3.1-2.9-3.5c-3.3-0.8-4.5-3-4.9-6.2c-0.7-5.3-1.4-10.7-2.8-15.8
	c-0.9-3.2-2.8-6.4-4.8-9.1c-3.9-5.1-5.3-11-6.5-17.1c-0.5-2.4-1.4-4.9-2.7-6.9C431.1,128.2,426.9,122.9,422.5,116.9z M440.8,62.5
	c-3.6-3.3-7.4-6.6-11.3-10.2c0,0.7-0.1,1.1,0,1.5c1.9,6.1,2.7,12.2,0.9,18.5c-0.2,0.8,0.3,1.7,0.4,2.6c0.3,0.1,0.7,0.1,1,0.2
	c0.7-1.7,1.3-3.5,2-5.1c0.3-0.6,0.8-1.4,1.3-1.4C438.6,68,440.1,65.7,440.8,62.5z M373,70.1c3.5,3.1,7,6.3,10.2,9.2
	c-0.8-6.1-1.7-12.5-2.7-19.6C377.9,63.3,375.6,66.4,373,70.1z"/>
<path class="st0" d="M4.1,90.3c-0.4-0.5-0.9-0.9-1.1-1.5c-0.1-0.1,0.5-0.8,0.8-0.9c2.1-0.3,4.3-0.7,6.4-0.8c4.4-0.1,8.8,0,13.3,0.1
	c2.4,0,4.8,0,7.2,0c0.9,0,1.4,0.3,1.4,1.4c-0.1,1.8,0,3.6,0,5.4c0,0.6-0.2,0.8-0.8,0.7c-1.9-0.4-3.8-0.9-5.7-1.3
	c-0.3-0.1-0.8,0-0.9,0.3c-1.3,1.5-2.8,3-3.9,4.7c-0.7,1-0.9,2.4-1.2,3.6c-0.3,1.3-0.4,2.6-0.4,3.9c0,0.5,0.4,0.9,0.5,1.4
	c0.1,0.3,0.1,0.6,0.1,0.9c-0.3-0.1-0.6-0.2-0.8-0.4c-0.3-0.2-0.4-0.6-0.7-0.6c-0.5-0.1-1.3-0.9-1.2,0.4c0,0.1-0.1,0.2-0.2,0.2
	c-0.1-0.1-0.1-0.2-0.2-0.3c-0.1-0.2-0.3-0.4-0.4-0.6c-0.1,0.2-0.2,0.4-0.3,0.6c-0.1,0.2-0.2,0.4-0.2,0.6c-0.2-0.1-0.4-0.2-0.5-0.4
	c-0.5-1.1-1-0.6-1.5,0c-0.6,0.7-0.8,0.3-1-0.2c0-0.1-0.1-0.2-0.2-0.3c0,0.1-0.1,0.1-0.1,0.2c-0.2,0.2-0.3,0.3-0.5,0.4
	c-0.2-0.4-0.6-0.7-0.6-1.1c-0.1-1.4,0.1-2.9,0-4.3c-0.4-4.3-3.4-7.1-5.9-10.3C4.8,91.6,4.4,90.9,4.1,90.3c0.1,0.1,0.2,0.2,0.3,0.2
	c0,0,0.1-0.1,0.2-0.2c0.1,0,0.1,0,0.2,0c0.1,0,0.1,0,0.2,0c-0.1,0-0.2,0-0.3,0c0-0.1,0-0.3,0-0.4C4.4,90,4.2,90.1,4.1,90.3z
	 M13.1,102.6c0,0,0-0.1,0-0.1C13.1,102.5,13.1,102.5,13.1,102.6c0.1,0,0.2,0,0.3,0c0,0.1,0,0.2,0,0.3c0,0,0,0,0.1,0
	c0-0.1,0-0.2,0-0.3C13.3,102.6,13.2,102.6,13.1,102.6z M14,98.5C14,98.5,14,98.5,14,98.5C14,98.5,14,98.5,14,98.5
	C13.9,98.5,13.9,98.5,14,98.5C13.9,98.5,14,98.5,14,98.5C14,98.5,14,98.5,14,98.5z M7.5,94.2c-0.1,0-0.2,0-0.2,0
	c-0.5-1-0.9-1.9-1.4-2.9c-0.1-0.1-0.2-0.2-0.4-0.3c0,0.2,0,0.4,0.1,0.5c0.6,0.9,1.1,1.8,1.7,2.7C7.4,94.2,7.5,94.2,7.5,94.2
	C7.6,94.2,7.6,94.2,7.5,94.2z M22.9,94.2c-0.1,0-0.1,0-0.2,0.1c0,0.1,0,0.3,0,0.4c0,0,0,0,0,0c0,0,0,0,0,0c0-0.1,0-0.3,0-0.4
	C22.8,94.3,22.8,94.2,22.9,94.2c0.1,0,0.1,0,0.2-0.1c0.1-0.2,0.1-0.3,0.2-0.5c0,0,0.1-0.1,0.1-0.1c0.2-0.2,0.3-0.4,0.5-0.6
	c0,0-0.1-0.1-0.1-0.1c-0.1,0.2-0.3,0.4-0.4,0.6c0,0-0.1,0.1-0.1,0.1c-0.1,0.2-0.1,0.3-0.2,0.5C23,94.2,23,94.2,22.9,94.2z
	 M10.4,96.5c0-0.1,0-0.2-0.1-0.3c-0.1-0.1-0.2-0.3-0.3-0.4c-0.1-0.2-0.2-0.4-0.3-0.5c0,0,0,0-0.1,0c0.1,0.2,0.2,0.3,0.3,0.5
	c0.1,0.1,0.2,0.3,0.3,0.4C10.4,96.3,10.4,96.4,10.4,96.5C10.4,96.5,10.5,96.5,10.4,96.5C10.5,96.5,10.5,96.5,10.4,96.5
	C10.5,96.5,10.4,96.5,10.4,96.5z M17.7,101.9c0,0.1,0,0.1,0,0.2c0,0,0.1,0,0.1,0C17.7,102,17.7,102,17.7,101.9L17.7,101.9
	L17.7,101.9z M21.1,94.1c-0.1,0.1-0.1,0.2-0.2,0.3c-0.2,0.3-0.4,0.5-0.5,0.8c-0.3,0.6-0.6,1.3-0.8,2c0,0,0.1,0.1,0.2,0.2
	c0.4-1,0.8-2,1.2-3C21,94.2,21,94.1,21.1,94.1C21.1,94.1,21.1,94,21.1,94.1C21.1,94,21.1,94.1,21.1,94.1
	C21.1,94.1,21.1,94.1,21.1,94.1z M15.9,105.8c0,0.1,0,0.1,0,0.2c0,0,0.1,0,0.1,0C15.9,105.9,15.9,105.8,15.9,105.8
	C15.9,105.8,15.9,105.8,15.9,105.8c0.1,0.1,0.1,0,0.1,0C15.9,105.8,15.9,105.8,15.9,105.8z M5.5,90.5C5.5,90.5,5.5,90.5,5.5,90.5
	C5.5,90.5,5.5,90.5,5.5,90.5c0-0.1,0-0.2,0-0.2c0,0-0.1,0-0.1,0C5.4,90.4,5.5,90.4,5.5,90.5z M12.2,104.9
	C12.2,104.9,12.2,104.9,12.2,104.9C12.2,104.8,12.2,104.8,12.2,104.9C12.2,104.8,12.2,104.9,12.2,104.9c0.1,0.1,0.1,0.1,0.2,0.2
	c0,0,0-0.1,0-0.1C12.4,105,12.3,104.9,12.2,104.9z M18.5,103.3c-0.1,0.1-0.1,0.2-0.2,0.3c0,0,0.1,0,0.1,0
	C18.4,103.5,18.4,103.4,18.5,103.3c0,0,0.1-0.1,0.1-0.1c0,0,0,0,0,0C18.6,103.2,18.5,103.2,18.5,103.3z M18.6,101.4c0,0,0-0.1,0-0.1
	c0-0.1,0-0.1,0-0.2C18.6,101.2,18.6,101.3,18.6,101.4c0,0.1,0,0.1,0.1,0.2c0.1,0.1,0.2,0.2,0.2,0.3
	C18.8,101.8,18.7,101.6,18.6,101.4z M13.3,97.7C13.3,97.8,13.4,97.8,13.3,97.7c0.1,0.1,0.1,0.1,0.1,0C13.4,97.7,13.4,97.7,13.3,97.7
	c-0.1-0.2-0.2-0.4-0.3-0.6c0,0-0.1,0.1-0.1,0.1C13.1,97.4,13.2,97.6,13.3,97.7z M20.8,91.1c0.1-0.2,0.2-0.3,0.3-0.5
	c-0.1,0-0.1,0-0.2-0.1C21,90.7,20.9,90.9,20.8,91.1L20.8,91.1L20.8,91.1z M22.9,90.3c-0.1,0.1-0.3,0.1-0.4,0.2
	c-0.1-0.1-0.2-0.1-0.3-0.1c-0.2,0-0.5,0.1-0.7,0.1c0.1,0.1,0.2,0.3,0.2,0.3c0.2,0,0.5-0.1,0.7-0.2c0.1,0,0.1-0.1,0.2-0.1
	c0,0.1,0.1,0.2,0.1,0.3C22.7,90.6,22.8,90.4,22.9,90.3C22.9,90.3,22.9,90.3,22.9,90.3C22.9,90.3,22.9,90.3,22.9,90.3
	C22.9,90.3,22.9,90.3,22.9,90.3z M24.8,92.7c0.2-0.2,0.3-0.5,0.5-0.7c0,0,0,0,0,0C25.1,92.2,24.9,92.4,24.8,92.7
	c-0.1,0-0.1,0-0.1,0.1C24.7,92.7,24.7,92.7,24.8,92.7z M19.4,100c-0.1,0.2-0.3,0.5-0.4,0.8c0,0,0.1,0.1,0.1,0.1
	C19.2,100.6,19.3,100.3,19.4,100L19.4,100L19.4,100z M13.9,100.6C13.9,100.6,13.9,100.6,13.9,100.6
	C13.9,100.6,13.9,100.6,13.9,100.6c0.1,0.3,0.2,0.6,0.3,0.8c0.1,0,0.1-0.1,0.2-0.1c-0.1-0.2-0.3-0.4-0.4-0.6
	C14,100.7,13.9,100.7,13.9,100.6z M8.2,94.4c0.1,0.2,0.1,0.3,0.2,0.5c0.4,0.6,0.8,1.2,1.2,1.8c0,0,0,0,0,0c0,0,0,0,0,0
	c-0.4-0.6-0.8-1.2-1.2-1.7C8.3,94.7,8.3,94.5,8.2,94.4c-0.4-0.6-0.7-1.1-1.1-1.7c0,0,0,0,0,0c0,0,0,0,0,0
	C7.5,93.3,7.9,93.8,8.2,94.4z M21.7,91.3c-0.2,0.1-0.4,0.2-0.7,0.3c0.2,0.1,0.3,0.2,0.5,0.2c0.2,0.1,0.4,0,0.6,0.1
	C21.9,91.7,21.8,91.5,21.7,91.3c0.1,0,0.1,0,0.2,0c0.1,0,0.1,0,0.2,0C21.9,91.3,21.8,91.3,21.7,91.3z M10.6,99.1
	C10.6,99.1,10.6,99.1,10.6,99.1C10.6,99.1,10.6,99.1,10.6,99.1c0.2,0.5,0.3,0.9,0.5,1.4c0,0.1,0.2,0.2,0.3,0.3c0-0.2,0.1-0.3,0-0.5
	C11.2,99.8,10.9,99.5,10.6,99.1z M9.3,96.6C9.3,96.6,9.3,96.6,9.3,96.6C9.3,96.6,9.3,96.6,9.3,96.6C9.3,96.6,9.3,96.6,9.3,96.6
	c0.3,0.4,0.5,0.9,0.8,1.4c0.1,0.1,0.2,0.1,0.4,0.2c0-0.2,0.1-0.5,0-0.6C10.1,97.2,9.7,96.9,9.3,96.6z M9.9,89c-0.1,0-0.2,0-0.3,0
	c0,0,0,0.1,0,0.1C9.7,89,9.8,89,9.9,89c-0.1,0.1-0.3,0.2-0.4,0.3c-0.1,0.1-0.1,0.1-0.2,0.2c0.4,0.1,0.8,0.2,1.1,0.2
	c0.1,0,0.1-0.1,0.2-0.1C10.4,89.3,10.2,89.1,9.9,89z M21.6,96.7c0.9-1.1,1.8-2.3,2.7-3.4c0,0,0-0.1,0-0.2c0,0-0.1,0-0.1,0
	C23.4,94.3,22.5,95.5,21.6,96.7C21.6,96.7,21.6,96.7,21.6,96.7c-0.1,0.1,0,0.1,0,0.1C21.6,96.7,21.6,96.7,21.6,96.7z M11,96.7
	C11,96.6,11,96.6,11,96.7C10.9,96.6,10.9,96.6,11,96.7C10.9,96.6,11,96.7,11,96.7c0,0.2-0.1,0.5,0,0.7c0.2,0.3,0.6,0.6,0.9,0.9
	c0.2-0.2,0.3-0.5,0.5-0.7C11.9,97.2,11.5,96.9,11,96.7z M14.3,87.9c-0.4,0-0.7-0.1-1.1-0.1c-0.2,0-0.3,0.1-0.4,0.2
	c0.3,0.4,0.7,0.8,1,1.2C14,88.8,14.1,88.4,14.3,87.9c0.3,0.1,0.7,0.3,1.1,0.4c0,0,0.1-0.2,0.2-0.4c-0.4,0-0.7,0-1.1-0.1
	C14.4,87.9,14.3,87.9,14.3,87.9z M9.3,93.4c0,0.1,0,0.1-0.1,0.2c0,0,0.1,0,0.1,0C9.3,93.5,9.3,93.4,9.3,93.4
	c-0.2-0.8-0.4-1.6-0.7-2.4c-0.1-0.3-0.5-0.5-0.7-0.6c-0.1-0.1-0.3,0-0.5,0c0.1,0.3,0.2,0.5,0.3,0.8c0.2,0.3,0.4,0.7,0.6,1
	C8.6,92.5,9,92.9,9.3,93.4z M17.2,94.4c0.3-1,0.7-1.9,1-2.9c0-0.1-0.1-0.4-0.1-0.4c-0.4-0.1-0.8-0.2-1.3-0.2c0.1,0.3,0.1,0.6,0.2,1
	c0.1,0.4,0.1,0.8,0.1,1.1C17.2,93.4,17.2,93.9,17.2,94.4C17.2,94.4,17.2,94.4,17.2,94.4C17.2,94.4,17.2,94.4,17.2,94.4z M20.4,97
	c0.8-1.2,1.7-2.5,2.5-3.7c0.1-0.2,0-0.5,0-0.7c-0.3,0.1-0.8,0.2-0.9,0.4c-0.5,1-0.9,2-1.3,3C20.6,96.3,20.5,96.6,20.4,97
	C20.4,97,20.4,97,20.4,97C20.4,97,20.4,97,20.4,97z M9.4,95.6C9.4,95.6,9.4,95.6,9.4,95.6C9.4,95.6,9.4,95.5,9.4,95.6
	c-0.1-2.1-1.7-3.5-2.6-5.3c-0.1-0.2-0.6-0.1-0.9-0.2C6,90.4,6,90.6,6.1,90.8C7.2,92.4,8.3,94,9.4,95.6z M15.6,91.7
	c-0.4,0.4-1,0.6-1.1,1.1c-0.3,0.8-0.2,1.8-0.4,2.7c-0.3,1.1,0.8,1.2,1.2,1.7c0.4-0.5,1.2-1,1.1-1.4C16.4,94.4,15.9,93.1,15.6,91.7
	c0.1,0,0.2,0,0.3,0.1c0-0.1,0-0.2-0.1-0.3C15.8,91.6,15.7,91.7,15.6,91.7z M10.1,91.4c-0.2,0.2-0.4,0.4-0.4,0.5
	c-0.2,1.5,0.6,4.4,2.6,5c0.1,0,0.3,0.1,0.4,0c0.1-0.1,0.2-0.3,0.1-0.4c-0.6-1.4-1.2-2.8-1.8-4.1C10.8,92,10.4,91.8,10.1,91.4z
	 M18.8,91.2c-0.1,0-0.2,0.1-0.2,0.1c-0.5,1.7-0.9,3.5-1.4,5.2c0,0.1,0.1,0.2,0.1,0.3c0.1-0.1,0.2-0.2,0.2-0.3
	c0.7-1.2,1.5-2.5,2.2-3.7c0.2-0.3,0.4-1,0.3-1.1C19.8,91.5,19.2,91.4,18.8,91.2z M12.7,90.6c-1.2-0.3-1.3,0.2-0.9,1.1
	c0.5,1.1,1,2.1,1.5,3.2c0,0.1,0.1,0.1,0.2,0.2c0-0.1,0-0.2,0.1-0.3c0.1-1,0.1-1.9,0.2-2.9C14,90.9,13.9,90.2,12.7,90.6z M17.5,87.8
	c-0.4,0-0.7,0-1,0.1c-0.3,0-0.5,0.1-0.8,0.1c0.2,0.6,0.3,1.4,0.7,1.7c0.7,0.5,2.6-0.2,3.1-1c0.2-0.4,0.3-0.8-0.4-0.8
	C18.5,87.9,17.9,87.9,17.5,87.8z M22.4,87.9C22.4,87.9,22.4,88,22.4,87.9c-0.2,0-0.5-0.1-0.6,0c-0.3,0.3-0.6,0.6-0.7,1
	c0,0.1,0.5,0.6,0.7,0.6c0.7,0,1.3-0.1,2-0.2c0.2-0.1,0.5-0.4,0.6-0.6c0-0.1-0.3-0.4-0.5-0.5C23.3,88,22.9,88,22.4,87.9z M12.3,89.7
	c0.3,0,0.4,0,0.5,0c0.3,0,0.6,0,0.9,0c-0.2-0.1-0.5-0.2-0.7-0.4c-0.2-0.2-0.3-0.5-0.4-0.7c-0.3-0.7-1.6-1.1-2.2-0.6
	c-0.1,0.1-0.1,0.2,0,0.4C10.7,89.4,11.3,90,12.3,89.7z M27.8,90.7c0-0.4,0-0.9,0-1.3c0-0.2,0-0.3-0.1-0.5c-0.2,0.1-0.4,0.2-0.4,0.3
	c-0.4,0.7-0.8,1.4-1.1,2.2c-0.1,0.1,0,0.5,0.2,0.6c1.5,0.8,1.5,0.8,1.5-0.9C27.8,91,27.8,90.9,27.8,90.7z M8.5,89.8
	C8.7,89.5,9,89.3,9,89.1c0-0.3-0.2-0.9-0.3-0.9c-0.7-0.1-1.5,0-2.2,0c-0.1,0-0.2,0.6-0.2,0.6C7,89.1,7.7,89.4,8.5,89.8z M13.5,95.8
	c-0.1-0.1-0.1-0.2-0.1-0.3c-0.7-1.5-1.4-3.1-2.1-4.6c-0.1-0.1-0.3-0.3-0.4-0.3c-0.1,0-0.3,0.1-0.4,0.3c0,0.2,0,0.4,0.1,0.6
	c0.3,0.5,0.8,0.9,1,1.5c0.5,1,0.9,2.1,1.3,3.1c0.1,0.1,0.2,0.2,0.3,0.3C13.3,96.2,13.4,96,13.5,95.8z M21.8,92.3
	c-0.2-0.1-0.5-0.2-0.7-0.3c-0.2,0-0.5,0.1-0.6,0.2c-0.2,0.6-0.4,1.2-0.6,1.7c-0.2,0.6-0.3,1.2-0.4,1.7c0.4-0.5,0.7-1,1.1-1.5
	C21,93.6,21.4,93,21.8,92.3z M24.4,90.2c-0.1,0-0.2-0.1-0.3-0.2c-0.5-0.1-1.8,1.5-1.7,1.9c0,0.1,0.1,0.1,0.2,0.2
	C23.1,92.4,24.4,91.2,24.4,90.2z M27.8,93.6c0.1-0.2,0.2-0.3,0.3-0.5c-0.2-0.1-0.5-0.1-0.7-0.2c-0.5-0.2-0.9-0.5-1.4-0.6
	c-0.3-0.1-0.6,0.3-0.9,0.4c0.2,0.2,0.3,0.4,0.5,0.4c0.6,0.2,1.2,0.4,1.8,0.6C27.6,93.7,27.7,93.6,27.8,93.6z M19.5,94.3
	c0,0,0-0.1,0-0.1c-0.1,0.1-0.1,0.1-0.2,0.2c-0.5,0.9-1.1,1.8-1.6,2.7c-0.1,0.1,0,0.2-0.1,0.3c0.1,0,0.2-0.1,0.3-0.1
	C19.4,96.7,19.1,95.3,19.5,94.3z M19.5,97.8c-0.2-0.4-0.3-0.7-0.4-0.9c-0.5,0.4-1.1,0.8-1.6,1.2c0.3,0.2,0.6,0.6,0.8,0.5
	C18.7,98.4,19,98.1,19.5,97.8z M12.5,106.6c0.2,0.4,0.4,0.8,0.5,1.1c0.4-0.4,0.8-0.7,1.3-1.1c-0.4-0.2-0.8-0.5-1.3-0.6
	C12.9,106,12.7,106.4,12.5,106.6z M13.7,97.4c0.2,0.2,0.4,0.5,0.6,0.8c0.3-0.3,0.5-0.5,0.8-0.8c-0.4-0.3-0.7-0.6-1.1-0.8
	C13.9,96.8,13.8,97,13.7,97.4z M17.1,97.5c-0.2-0.5-0.3-0.8-0.4-1.1c-0.3,0.4-0.7,0.8-1,1.1c0.2,0.2,0.5,0.6,0.7,0.6
	C16.6,98,16.8,97.7,17.1,97.5z M12.5,99.1c-0.2,0.4-0.5,0.7-0.5,1c0.1,0.4,0.4,0.7,0.6,1c0.2-0.3,0.6-0.6,0.5-0.9
	C13.1,99.8,12.8,99.5,12.5,99.1z M18.6,100.4c-0.2-0.4-0.4-0.7-0.5-1c-0.2,0.4-0.5,0.7-0.7,1.1c-0.1,0.2,0.3,0.5,0.4,0.7
	C18.1,101,18.3,100.7,18.6,100.4z M19.8,90.4c-0.4,0.2-0.7,0.3-1.1,0.4c0.5,0.2,0.9,0.4,1.4,0.6c0.1,0,0.2-0.4,0.4-0.6
	C20.3,90.6,20.1,90.5,19.8,90.4z M11.9,98.8c-0.3-0.2-0.5-0.5-0.8-0.8c-0.1,0.2-0.4,0.4-0.4,0.5c0.2,0.5,0.6,0.9,0.9,1.3
	C11.6,99.5,11.7,99.2,11.9,98.8z M19.7,99c-0.2-0.3-0.3-0.5-0.4-0.7c-0.3,0.3-0.7,0.5-0.8,0.8c-0.1,0.2,0.3,0.6,0.4,0.9
	C19.2,99.6,19.4,99.3,19.7,99z M16.8,93.6C16.8,93.6,16.8,93.6,16.8,93.6c0-0.5,0-1.1-0.1-1.6c0-0.2-0.2-0.3-0.4-0.4
	c0,0.2-0.1,0.3-0.1,0.5c0,0.5,0.1,1.1,0.2,1.6c0.1,0.5,0.2,0.9,0.3,1.4C16.8,94.6,16.8,94.1,16.8,93.6z M14.8,90.4
	c-0.4,0.2-0.6,0.3-0.6,0.3c-0.1,0.6-0.1,1.2-0.2,1.8c0.1,0,0.1,0,0.2,0c0.2-0.3,0.5-0.6,0.6-0.9C14.9,91.3,14.8,91,14.8,90.4z
	 M18,98.9c-0.3-0.2-0.5-0.5-0.8-0.5c-0.1,0-0.5,0.3-0.5,0.5c0,0.2,0.2,0.5,0.3,0.8C17.4,99.5,17.7,99.2,18,98.9z M15.8,90.1
	c0-0.2,0.1-0.3,0.1-0.5c0-1-1-0.1-1.2-0.6c-0.1,0.1-0.2,0.3-0.3,0.4C14.7,89.5,15.1,89.7,15.8,90.1z M13.3,98.2
	c-0.2,0.3-0.6,0.6-0.6,0.7c0.1,0.3,0.4,0.6,0.6,0.8c0.2-0.3,0.4-0.5,0.4-0.8C13.9,98.8,13.6,98.5,13.3,98.2z M12.3,106.4
	c-0.1-0.3-0.2-0.5-0.3-0.8c-0.1,0-0.2,0-0.2,0.1c-0.1,0.4-0.3,0.9-0.3,1.3c0,0.1,0.3,0.3,0.4,0.5C12,107.1,12.1,106.8,12.3,106.4z
	 M19.9,89.8c0.2-0.1,0.5-0.3,0.8-0.5c-0.3-0.2-0.6-0.5-0.8-0.5c-0.2,0-0.4,0.4-0.6,0.7C19.5,89.6,19.6,89.7,19.9,89.8z M15.1,100.5
	c-0.2-0.2-0.4-0.5-0.6-0.7c-0.2,0.2-0.3,0.3-0.5,0.5c0.2,0.2,0.5,0.5,0.7,0.7C14.8,100.8,15,100.7,15.1,100.5z M16,98.3
	c-0.3-0.2-0.6-0.6-0.6-0.5c-0.3,0.2-0.5,0.4-0.7,0.7c0.2,0.1,0.4,0.3,0.5,0.3C15.4,98.7,15.7,98.5,16,98.3z M14.1,101.9
	c-0.2-0.3-0.3-0.6-0.5-0.8c-0.1,0.2-0.4,0.4-0.4,0.6c0,0.2,0.3,0.5,0.5,0.7C13.8,102.3,13.9,102.1,14.1,101.9z M18.6,106.3
	c-0.2-0.3-0.3-0.5-0.4-0.6c-0.1,0.2-0.4,0.4-0.4,0.6c0,0.2,0.2,0.4,0.2,0.6C18.3,106.7,18.4,106.5,18.6,106.3z M15.5,106.3
	c-0.2,0.3-0.6,0.5-0.6,0.7c0,0.2,0.3,0.5,0.5,0.7c0.1-0.4,0.2-0.7,0.3-1.1C15.7,106.6,15.6,106.5,15.5,106.3z M17.4,102.2
	c-0.3-0.4-0.5-0.6-0.6-0.8c-0.1,0.2-0.3,0.4-0.3,0.6c0,0.2,0.2,0.5,0.3,0.6C17,102.6,17.2,102.3,17.4,102.2z M12.4,102
	c-0.2-0.3-0.4-0.7-0.6-1c-0.1,0.1-0.2,0.3-0.1,0.4c0.2,0.4,0.4,0.8,0.6,1.1C12.3,102.4,12.3,102.3,12.4,102z M20.9,96.9
	c-0.4,0.4-0.7,0.7-0.9,1c0,0,0.1,0.2,0.2,0.4c0.3-0.4,0.5-0.7,0.8-1.1C21,97.2,20.9,97.1,20.9,96.9z M14.5,106
	c0.1,0.2,0.2,0.3,0.3,0.5c0.2-0.2,0.4-0.4,0.5-0.6c0-0.1-0.2-0.3-0.3-0.5C14.8,105.6,14.7,105.8,14.5,106z M18.6,102.5
	c-0.1-0.3-0.2-0.5-0.3-0.7c-0.1,0.3-0.3,0.5-0.4,0.8c0,0.1,0.2,0.3,0.3,0.4C18.3,102.9,18.4,102.7,18.6,102.5z M9.7,87.9
	c-0.2,0.1-0.4,0.2-0.6,0.3c0.2,0.1,0.4,0.3,0.6,0.3c0.1,0,0.3-0.3,0.4-0.4C10,88.1,9.9,88,9.7,87.9z M21.1,88
	c-0.2-0.1-0.3-0.1-0.4-0.1c-0.3,0-0.6,0.1-0.9,0.1c0.2,0.2,0.3,0.4,0.5,0.4C20.5,88.4,20.7,88.2,21.1,88z M14.8,104
	c0.2-0.2,0.4-0.4,0.3-0.5c-0.1-0.2-0.3-0.4-0.4-0.6c-0.1,0.1-0.3,0.3-0.3,0.4C14.4,103.6,14.6,103.7,14.8,104z M16.1,101.8
	c-0.2-0.1-0.4-0.3-0.4-0.3c-0.2,0.1-0.3,0.3-0.4,0.5c0,0.1,0.2,0.2,0.3,0.4C15.7,102.3,15.9,102.1,16.1,101.8z M4.8,88.5
	c-0.3,0.1-0.6,0.2-0.8,0.2C4.2,88.8,4.5,89,4.8,89c0.1,0,0.2-0.1,0.3-0.2C5,88.7,4.9,88.6,4.8,88.5z M17.6,102.9
	c-0.2,0.3-0.3,0.5-0.4,0.8c0,0.1,0.1,0.2,0.2,0.4c0.2-0.2,0.4-0.4,0.5-0.6C17.9,103.4,17.7,103.2,17.6,102.9z M18.8,106.7
	c-0.2,0.2-0.3,0.4-0.3,0.4c0.2,0.3,0.5,0.5,0.7,0.7c0,0,0.1-0.1,0.1-0.2C19.1,107.4,19,107.1,18.8,106.7z M16.5,100.3
	c0.1-0.2,0.2-0.3,0.2-0.4c-0.1-0.2-0.2-0.4-0.3-0.6c-0.1,0.1-0.4,0.3-0.3,0.4C16.1,99.9,16.3,100.1,16.5,100.3z M15.6,90.5
	c-0.2,0.1-0.3,0.2-0.5,0.2c0.2,0.2,0.3,0.3,0.5,0.5c0.1-0.1,0.3-0.3,0.3-0.3C15.9,90.7,15.7,90.6,15.6,90.5z M13.1,98.1
	c-0.2-0.2-0.3-0.3-0.4-0.4c-0.1,0.2-0.3,0.4-0.4,0.7c0,0,0.1,0.1,0.1,0.2C12.7,98.4,12.9,98.3,13.1,98.1z M9.8,90.3
	c-0.1,0.2-0.2,0.3-0.3,0.4c0.2,0.1,0.4,0.2,0.7,0.3c0-0.1,0.2-0.3,0.1-0.4C10.2,90.5,10,90.5,9.8,90.3z M12.9,102.6
	c-0.1,0.2-0.3,0.4-0.3,0.6c0,0.2,0.3,0.3,0.4,0.4c0.1-0.1,0.3-0.3,0.2-0.4C13.2,103.1,13,102.9,12.9,102.6z M25.4,89.9
	C25.7,89.9,25.5,89.9,25.4,89.9c-0.2,0.3-0.5,0.5-0.7,0.8c0,0,0.1,0.1,0.1,0.2C25.1,90.5,25.3,90.1,25.4,89.9z M16.2,100.4
	c-0.2-0.2-0.3-0.3-0.5-0.4c-0.1,0.1-0.3,0.3-0.3,0.4c0,0.1,0.2,0.3,0.3,0.4C15.9,100.7,16,100.6,16.2,100.4z M16.3,98.8
	c-0.1-0.1-0.2-0.2-0.3-0.1c-0.2,0.1-0.4,0.3-0.6,0.4c0.1,0.1,0.2,0.2,0.3,0.3C15.9,99.2,16.1,99.1,16.3,98.8z M9.5,92.4
	c-0.1-0.2-0.2-0.5-0.3-0.7C9.1,91.8,9,91.9,9,92c0.1,0.3,0.2,0.5,0.3,0.8C9.4,92.7,9.4,92.6,9.5,92.4z M15.5,104.5
	c-0.1,0.3-0.2,0.5-0.2,0.6c0,0.2,0.2,0.3,0.3,0.5c0.1-0.1,0.2-0.3,0.2-0.4C15.8,105,15.7,104.8,15.5,104.5z M5.7,88.2
	c-0.2,0.2-0.3,0.3-0.5,0.4c0.1,0.1,0.3,0.3,0.4,0.3c0.1,0,0.2-0.2,0.3-0.4C5.9,88.4,5.8,88.3,5.7,88.2z M16.4,104.1
	c-0.1-0.1-0.2-0.2-0.3-0.3c-0.1,0.2-0.3,0.3-0.3,0.5c0,0.1,0.1,0.3,0.2,0.4C16.2,104.6,16.3,104.4,16.4,104.1z M25.9,88.2
	c-0.1,0.1-0.2,0.1-0.2,0.1c0.2,0.1,0.5,0.3,0.7,0.4c0.1,0,0.2-0.1,0.3-0.2C26.4,88.4,26.2,88.3,25.9,88.2z M16.7,106.7
	c-0.1-0.2-0.2-0.4-0.3-0.6c-0.1,0.1-0.3,0.2-0.3,0.3c0.1,0.2,0.2,0.4,0.4,0.6C16.5,106.9,16.6,106.8,16.7,106.7z M17.9,103.9
	c-0.2,0.3-0.4,0.5-0.5,0.8c0,0.1,0.1,0.2,0.2,0.3c0.1-0.2,0.3-0.4,0.4-0.6C18,104.3,18,104.2,17.9,103.9z M18.9,105
	c0-0.1-0.1-0.3-0.1-0.4c-0.1,0.2-0.2,0.3-0.3,0.5c0,0.1,0.1,0.2,0.2,0.3C18.8,105.3,18.9,105.1,18.9,105z M15.6,101.1
	c-0.1-0.1-0.2-0.2-0.3-0.3c-0.1,0.2-0.2,0.3-0.3,0.5c0,0,0.1,0.2,0.2,0.2C15.3,101.4,15.4,101.3,15.6,101.1z M5,90.6
	c-0.1,0.3-0.3,0.4-0.2,0.5c0.1,0.2,0.2,0.3,0.4,0.5c0-0.1,0.1-0.1,0-0.2C5.2,91.2,5.1,91,5,90.6z M24.5,91.4
	c-0.1-0.1-0.2-0.1-0.2-0.1c-0.2,0.3-0.4,0.6-0.6,0.9c0,0,0,0.1,0.1,0.1C24,92,24.3,91.8,24.5,91.4z M14.1,106
	c0.1-0.1,0.1-0.2,0.1-0.3c-0.1-0.1-0.2-0.3-0.3-0.4c0,0-0.2,0.1-0.3,0.1C13.8,105.6,13.9,105.8,14.1,106z M24.2,92.7
	c0.2-0.3,0.4-0.6,0.6-0.9c0,0-0.1-0.1-0.1-0.1c-0.2,0.3-0.4,0.6-0.6,0.9C24.1,92.5,24.2,92.6,24.2,92.7z M16.7,100.9
	c-0.1-0.1-0.3-0.2-0.3-0.2c-0.1,0.1-0.3,0.3-0.4,0.5c0,0,0.1,0.1,0.2,0.2C16.3,101.3,16.5,101.2,16.7,100.9z M24.7,88.1
	c-0.1,0.1-0.2,0.1-0.3,0.1c0.1,0.1,0.3,0.2,0.4,0.2c0.1,0,0.3-0.1,0.4-0.2C25,88.2,24.9,88.1,24.7,88.1z M16.3,103.2
	c0.1-0.2,0.1-0.3,0.1-0.4c-0.1-0.1-0.2-0.3-0.3-0.4c-0.1,0.1-0.2,0.2-0.2,0.3C16,102.9,16.1,103,16.3,103.2z M15.3,103.2
	c0.1-0.1,0.2-0.3,0.2-0.3c-0.1-0.2-0.2-0.3-0.3-0.4c0,0.1-0.1,0.1-0.1,0.1C15.1,102.8,15.2,103,15.3,103.2z M8.7,90.6
	c0.1,0.3,0.1,0.4,0.2,0.6C9,91,9.1,90.8,9.1,90.6c0,0-0.2-0.2-0.2-0.1C8.8,90.5,8.8,90.6,8.7,90.6z M17,103.3
	c0.2-0.3,0.3-0.5,0.4-0.7c0,0,0-0.1-0.1-0.2c-0.1,0.1-0.3,0.3-0.4,0.5C16.9,103,16.9,103.1,17,103.3z M11.4,105
	c0.1,0.1,0.1,0.2,0.2,0.4c0.1-0.1,0.2-0.2,0.2-0.3c0-0.2-0.1-0.3-0.2-0.4C11.6,104.7,11.5,104.8,11.4,105z M25.8,90.9
	c-0.2-0.2-0.3-0.2-0.3-0.2c-0.2,0.2-0.3,0.3-0.5,0.5c0,0,0.1,0.1,0.1,0.2C25.3,91.3,25.5,91.1,25.8,90.9z M14.1,104.8
	c-0.1-0.2-0.1-0.3-0.2-0.4c-0.1,0.2-0.2,0.3-0.3,0.5c0,0,0.1,0.2,0.2,0.1C13.9,105,14,104.9,14.1,104.8z M25.6,91.7
	c0.3-0.4,0.5-0.6,0.7-0.9c0,0,0-0.1,0-0.2c-0.2,0.3-0.4,0.5-0.6,0.8C25.5,91.5,25.6,91.5,25.6,91.7z M15.3,103.8
	c-0.2,0.2-0.3,0.4-0.3,0.5c0,0.1,0.1,0.2,0.1,0.2c0.1-0.1,0.2-0.2,0.3-0.4C15.4,104.1,15.4,104,15.3,103.8z M11.7,102.3
	c0,0.2-0.1,0.3,0,0.4c0.1,0.2,0.3,0.3,0.4,0.5c0-0.1,0.1-0.1,0-0.2C12,102.8,11.9,102.6,11.7,102.3z M13.8,103.9
	c-0.1,0-0.2-0.1-0.3-0.1c-0.1,0.1-0.2,0.2-0.2,0.3c0,0.1,0.1,0.2,0.2,0.4C13.5,104.4,13.6,104.2,13.8,103.9z M16.1,103.4
	c-0.1-0.1-0.2-0.2-0.3-0.2c-0.1,0.1-0.2,0.2-0.2,0.3c0,0.1,0.1,0.2,0.2,0.3C15.8,103.7,15.9,103.6,16.1,103.4z M14.7,101.6
	c-0.1,0.1-0.2,0.2-0.2,0.3c0,0.1,0.1,0.2,0.2,0.4c0.1-0.1,0.2-0.1,0.2-0.2C14.9,101.9,14.8,101.8,14.7,101.6z M14.7,102.5
	c-0.2-0.1-0.4-0.2-0.4-0.2c-0.1,0.1-0.2,0.2-0.3,0.4c0,0,0.1,0.1,0.1,0.2C14.3,102.8,14.4,102.7,14.7,102.5z M14.4,99.4
	c-0.1,0-0.2-0.1-0.2-0.1c-0.1,0.1-0.2,0.3-0.3,0.5c0,0,0,0.1,0.1,0.1C14,99.8,14.2,99.6,14.4,99.4z M14.2,103.6c0,0.2-0.1,0.2,0,0.3
	c0.1,0.2,0.1,0.3,0.2,0.5c0-0.1,0.2-0.2,0.1-0.2C14.4,104.1,14.3,103.9,14.2,103.6z M25.9,88.9c-0.2-0.1-0.3-0.1-0.4-0.1
	c-0.1,0-0.3,0.1-0.4,0.1c0,0.1,0.1,0.2,0.1,0.2C25.4,89,25.6,88.9,25.9,88.9z M15,104.9c-0.1-0.1-0.3-0.2-0.3-0.2
	c-0.1,0.1-0.2,0.2-0.2,0.4c0,0,0.1,0.1,0.1,0.2C14.7,105.2,14.8,105.1,15,104.9z M17.2,105.8c-0.2-0.2-0.3-0.3-0.3-0.4
	c-0.1,0.1-0.2,0.2-0.3,0.3c0,0,0.1,0.2,0.2,0.2C16.9,105.9,17,105.8,17.2,105.8z M17.4,101.5c-0.1-0.2-0.2-0.4-0.3-0.6
	c0,0-0.1,0.1-0.1,0.1c0.1,0.2,0.2,0.4,0.4,0.6C17.4,101.6,17.4,101.6,17.4,101.5z M16.4,105.4c0.2-0.2,0.3-0.3,0.3-0.4
	c0,0-0.1-0.2-0.1-0.2c-0.1,0.1-0.2,0.2-0.2,0.4C16.3,105.2,16.4,105.2,16.4,105.4z M12.8,105.6c-0.1,0-0.2-0.1-0.2-0.1
	c-0.1,0.1-0.1,0.2-0.2,0.3c0,0,0.1,0.1,0.1,0.1C12.6,105.8,12.7,105.7,12.8,105.6z M14.8,99c-0.1-0.1-0.2-0.2-0.3-0.2
	c0,0-0.1,0.1-0.1,0.1c0.1,0.1,0.1,0.2,0.2,0.3C14.6,99.2,14.7,99.1,14.8,99z M15.4,88.9c-0.1-0.1-0.2-0.2-0.2-0.2
	c-0.1,0-0.1,0-0.2,0.1c0.1,0.1,0.1,0.2,0.2,0.2C15.2,89,15.2,88.9,15.4,88.9z M3.7,89.4c-0.1,0.2-0.1,0.3-0.1,0.4
	c0,0.1,0.1,0.2,0.2,0.2C3.9,90,3.9,89.9,4,89.8C4,89.7,3.9,89.6,3.7,89.4z M17.8,105.6c0.1-0.1,0.2-0.3,0.3-0.4c0,0-0.1-0.1-0.1-0.1
	c-0.1,0.1-0.2,0.2-0.3,0.4C17.7,105.5,17.8,105.5,17.8,105.6z M16.2,90.7c0.1,0.1,0.2,0.2,0.3,0.2c0.1,0,0.1-0.1,0.2-0.2
	c-0.1,0-0.1-0.1-0.2-0.1C16.4,90.6,16.3,90.7,16.2,90.7z M27.8,88c-0.1-0.1-0.1-0.1-0.2-0.1c0,0-0.1,0.1-0.1,0.1
	c0,0,0.1,0.1,0.1,0.1C27.7,88.1,27.8,88.1,27.8,88z M18.5,90.6c-0.2,0-0.3,0-0.4,0c0,0-0.1,0-0.1,0.1c0.1,0,0.2,0.1,0.3,0.1
	C18.3,90.8,18.4,90.7,18.5,90.6z M17.1,104.4c-0.1-0.1-0.1-0.2-0.2-0.3c0,0.1-0.1,0.1-0.1,0.2c0,0.1,0.1,0.2,0.2,0.3
	C17,104.5,17,104.4,17.1,104.4z M24.7,88.9c-0.1,0.1-0.1,0.1-0.2,0.2c0.1,0,0.1,0,0.2,0c0,0,0.1-0.1,0.1-0.1
	C24.8,89,24.8,89,24.7,88.9z M13.8,103.6c0.1-0.1,0.1-0.2,0.1-0.3c0-0.1-0.1-0.1-0.1-0.2c0,0.1-0.1,0.1-0.1,0.2
	C13.7,103.4,13.7,103.5,13.8,103.6z M14.9,99.4c0,0.1-0.1,0.2-0.1,0.2c0,0.1,0.1,0.1,0.2,0.1c0-0.1,0-0.1,0-0.2
	C15,99.5,14.9,99.5,14.9,99.4z M13.4,96.5c0,0.1-0.1,0.2,0,0.3c0,0,0.1,0.1,0.1,0.1c0-0.1,0.1-0.1,0.1-0.2
	C13.5,96.7,13.4,96.6,13.4,96.5z M11.6,103.6c0,0.1,0,0.1,0,0.2c0,0.1,0.1,0.1,0.1,0.1c0,0,0-0.1,0-0.1
	C11.7,103.7,11.6,103.6,11.6,103.6z M15.5,99.7c0,0-0.1-0.1-0.1-0.1c0,0-0.1,0.1,0,0.1c0,0,0.1,0.1,0.1,0.1
	C15.5,99.8,15.5,99.8,15.5,99.7z M12.6,104.5C12.6,104.5,12.6,104.5,12.6,104.5c0.1-0.1,0-0.2,0-0.2c0,0,0,0-0.1,0
	C12.5,104.4,12.5,104.4,12.6,104.5z M16.5,103.5c0,0.1,0.1,0.1,0.1,0.2c0,0,0.1-0.1,0.1-0.1c0-0.1,0-0.1-0.1-0.2
	C16.6,103.4,16.5,103.4,16.5,103.5z M16.8,100.7c0-0.1,0.1-0.1,0.1-0.2c0,0,0-0.1-0.1-0.1c0,0-0.1,0.1-0.1,0.1
	C16.7,100.6,16.7,100.6,16.8,100.7z M13.2,105.2c0,0-0.1-0.1-0.1-0.1c0,0-0.1,0.1-0.1,0.1c0,0,0.1,0.1,0.1,0.1
	C13.1,105.2,13.1,105.2,13.2,105.2z M26.2,89.8C26.2,89.7,26.2,89.7,26.2,89.8c-0.1-0.1-0.1-0.1-0.2-0.1c0,0,0,0.1,0.1,0.1
	C26.2,89.8,26.2,89.8,26.2,89.8z M16.6,98.4C16.6,98.4,16.6,98.4,16.6,98.4c0,0-0.1,0-0.1,0C16.5,98.4,16.5,98.5,16.6,98.4
	C16.5,98.5,16.6,98.5,16.6,98.4z M19,102.7C19,102.6,19,102.6,19,102.7C18.9,102.6,18.9,102.6,19,102.7
	C18.9,102.7,18.9,102.7,19,102.7C19,102.7,19,102.7,19,102.7z M11.9,104.3C11.9,104.3,12,104.3,11.9,104.3c0.1,0,0.1,0,0.1,0
	C12,104.2,12,104.2,11.9,104.3C11.9,104.2,11.9,104.2,11.9,104.3z M17.4,105.8C17.4,105.9,17.4,105.9,17.4,105.8
	C17.4,105.9,17.4,105.9,17.4,105.8C17.4,105.9,17.4,105.9,17.4,105.8C17.4,105.8,17.4,105.8,17.4,105.8z M17.5,106.5
	C17.5,106.5,17.5,106.5,17.5,106.5C17.5,106.4,17.5,106.4,17.5,106.5C17.4,106.4,17.4,106.5,17.5,106.5
	C17.4,106.5,17.4,106.5,17.5,106.5z M17.1,106.2C17,106.2,17,106.2,17.1,106.2C17,106.2,17,106.2,17.1,106.2
	C17,106.3,17,106.3,17.1,106.2C17,106.3,17,106.3,17.1,106.2z M5,90C5,90,5,90,5,90c-0.1-0.1-0.1,0-0.1,0C4.9,90,4.9,90,5,90
	C5,90.1,5,90,5,90z M20.3,88.9C20.3,88.8,20.3,88.8,20.3,88.9C20.2,88.8,20.2,88.8,20.3,88.9C20.2,88.9,20.2,88.9,20.3,88.9
	C20.3,88.9,20.3,88.9,20.3,88.9z M12.7,101.9L12.7,101.9L12.7,101.9L12.7,101.9z"/>
<path class="st0" d="M16.4,2.2c0.9,0.3,1.8,0.5,2.7,0.9c3.3,1.5,5.2,5.2,4.6,8.8c-0.6,3.6-3.5,6.5-7.1,7c-4.5,0.6-8.7-2.5-9.4-7
	c-0.8-4.6,2.5-9,7.1-9.6c0.1,0,0.2-0.1,0.3-0.1C15.2,2.2,15.8,2.2,16.4,2.2z M13,6.7c-0.6,0.1-1.1,0.2-1.6,0.2
	c-0.4,0-0.5,0.2-0.5,0.6c-0.2,2.4,0.1,4.8,0.9,7.1c0.4,1.3,1.1,2.4,2.1,3.3c0.5,0.5,1.1,0.7,1.8,0.6c1.1-0.1,2.2-0.3,3.2-0.8
	c0.8-0.4,1.6-0.9,2.2-1.6C21,16.1,20.9,16,20.8,16c-1.5-1.2-3.1-2.3-4.6-3.5C14.4,11,13,9.3,13,6.7z M21.2,16
	c1.5-1.6,2.2-3.5,2.2-5.7c0-0.4-0.2-0.7-0.5-0.9C21.1,8.2,19,7.3,16.8,7c-1.1-0.2-2.3-0.2-3.5-0.4c0,0.3,0,0.4,0,0.6
	c0,1.5,0.7,2.8,1.7,3.9C16.8,13,19.1,14.4,21.2,16z M23.3,9.4c-0.4-2.2-1.4-4-3.1-5.3c-0.4-0.3-0.9-0.7-1.4-0.8
	c-1.4-0.1-2.7,0.2-3.9,0.9c-0.8,0.5-1.4,1.2-1.5,2.2C17,6.4,20.3,7.3,23.3,9.4z M10.7,7c-0.4,0.1-0.7,0.2-1,0.3
	C9.3,7.3,9.3,7.5,9.2,7.8C8.8,9.4,8.4,11,8,12.6c-0.1,0.2-0.1,0.5,0,0.7c0.7,1.8,1.8,3.1,3.5,4.1c0.8,0.5,1.6,0.8,2.5,0.9
	C10.8,15.2,10.5,11.2,10.7,7z M18.2,3.1c-1.5-0.6-3.1-0.6-4.7-0.3c-0.5,0.1-0.9,0.4-1.2,0.9c-0.3,0.6-0.6,1.1-0.8,1.7
	c-0.2,0.4-0.3,0.9-0.4,1.3c0.6-0.1,1.2-0.1,1.7-0.2c0.1,0,0.3-0.2,0.4-0.3c0.3-1.2,1.1-2,2.3-2.4C16.3,3.5,17.2,3.3,18.2,3.1z
	 M12.1,3.3c-1,0.4-1.8,1.1-2.6,1.9C9.4,5.3,9.4,5.4,9.4,5.5c0,0.5,0,1.1,0,1.6c0.4-0.1,0.8-0.2,1.2-0.3c0.1,0,0.2-0.2,0.2-0.3
	C11.2,5.4,11.7,4.4,12.1,3.3z M7.7,12.4c0.6-1.6,1-3.2,1.2-4.9C8.5,7.7,8,7.9,7.8,8.2C7.3,9.6,7.3,11,7.7,12.4z M8,7.6
	c1.1-0.3,1.3-0.8,1-1.9C8.6,6.4,8.3,7,8,7.6z"/>
</svg>
